<?xml version="1.0" encoding="UTF-8"?>
<svg version="1.1" xmlns="http://www.w3.org/2000/svg" width="499" height="499">
<path d="M0 0 C-0.57711567 3.45092575 -1.66919833 4.99739216 -4.2109375 7.36328125 C-4.87327393 7.99459961 -5.53561035 8.62591797 -6.21801758 9.27636719 C-6.92982178 9.94829102 -7.64162598 10.62021484 -8.375 11.3125 C-33.51603866 35.85421243 -49.37536748 69.5191011 -50.2878418 104.89111328 C-50.5227982 127.96336691 -44.46276518 149.53890736 -29.22265625 167.2734375 C-27 170 -27 170 -27 172 C-17.08221252 169.55052917 -7.36586525 166.57270995 2.375 163.5 C59.38678812 145.59707064 59.38678812 145.59707064 82.92578125 157.4765625 C94.3851505 164.26844847 101.55979161 174.09921854 105 187 C110.87365748 220.15353332 100.14238908 255.74413238 81.171875 283.0234375 C74.66827701 291.93664194 67.84333127 300.36278058 60.3125 308.4375 C59.70720459 309.08750977 59.10190918 309.73751953 58.47827148 310.40722656 C54.22049691 314.89856455 49.71011058 318.98988222 45 323 C44.07316406 323.80824219 43.14632812 324.61648438 42.19140625 325.44921875 C21.91238191 342.71501511 -1.31102517 357.07210634 -23.88500977 371.13427734 C-27.95830176 373.67810102 -31.91909821 376.30861912 -35.8125 379.125 C-39.08343633 381.47938674 -42.02321038 383.05812877 -46 384 C-46 380 -46 380 -44 377.75 C-43.00501757 376.82788952 -42.00432931 375.91192128 -41 375 C-15.90378036 351.08100175 2.98557401 315.62455949 4.2109375 280.62890625 C4.76584974 256.83109867 0.51201802 236.31968043 -14 217 C-14.53753906 216.23300781 -15.07507813 215.46601563 -15.62890625 214.67578125 C-17.21641502 212.44658462 -17.21641502 212.44658462 -20 210 C-24.06583467 210.31321467 -27.71292743 211.46947219 -31.54296875 212.8203125 C-33.13419556 213.37126587 -33.13419556 213.37126587 -34.75756836 213.93334961 C-36.45538452 214.52321655 -36.45538452 214.52321655 -38.1875 215.125 C-47.85543893 218.41496352 -57.55013794 221.37880963 -67.4375 223.9375 C-68.51862061 224.21932129 -69.59974121 224.50114258 -70.71362305 224.79150391 C-82.56417294 227.78781552 -93.82552382 229.36169171 -106.0625 229.375 C-107.25166016 229.39949219 -108.44082031 229.42398438 -109.66601562 229.44921875 C-121.93337165 229.48963837 -131.66897327 226.03550632 -141 218 C-151.44395168 206.99454554 -153.51505917 193.09236098 -153.1875 178.4375 C-151.39730741 128.67014593 -127.29441037 92.38706468 -92 59 C-88.48872406 55.79322495 -84.79480802 52.8645019 -81 50 C-79.76802498 49.05104627 -78.53627053 48.10180616 -77.3046875 47.15234375 C-68.44953046 40.3746429 -59.3639863 34.04992168 -50 28 C-49.20384277 27.48211914 -48.40768555 26.96423828 -47.58740234 26.43066406 C-36.81845969 19.43646548 -25.92872337 12.66059036 -14.875 6.125 C-13.84963135 5.51172852 -12.8242627 4.89845703 -11.76782227 4.26660156 C-10.81061279 3.70682617 -9.85340332 3.14705078 -8.8671875 2.5703125 C-8.02269043 2.07289551 -7.17819336 1.57547852 -6.30810547 1.06298828 C-4 0 -4 0 0 0 Z " fill="#443184" transform="translate(273,58)"/>
<path d="M0 0 C6.92936273 5.44073538 10.78218579 12.23441419 12 21 C12.69199356 29.99591626 12.02392002 38.31001273 10.1875 47.125 C10.02233887 47.91817627 9.85717773 48.71135254 9.68701172 49.52856445 C8.66178515 54.05528215 7.27923271 57.91174877 5 62 C4.34 62 3.68 62 3 62 C3 62.66 3 63.32 3 64 C2.34 64 1.68 64 1 64 C1.33 64.99 1.66 65.98 2 67 C1.34 67.66 0.68 68.32 0 69 C-0.3590684 70.32663438 -0.69005478 71.66103665 -1 73 C-1.56707201 74.26725952 -2.17334407 75.51752402 -2.8125 76.75 C-3.91730509 78.88382933 -5.00440619 81.0095439 -6.01171875 83.19140625 C-7.87755024 87.19593786 -9.27368238 89.47142733 -13 92 C-13 92.99 -13 93.98 -13 95 C-13.66 95 -14.32 95 -15 95 C-15 96.32 -15 97.64 -15 99 C-15.66 99 -16.32 99 -17 99 C-17.0825 99.5775 -17.165 100.155 -17.25 100.75 C-18.20710491 103.62131472 -19.8743794 104.8743794 -22 107 C-23.25436187 109.63222962 -23.25436187 109.63222962 -24 112 C-24.66 112 -25.32 112 -26 112 C-26 112.66 -26 113.32 -26 114 C-26.66 114 -27.32 114 -28 114 C-28 114.99 -28 115.98 -28 117 C-28.66 117 -29.32 117 -30 117 C-30.268125 117.804375 -30.53625 118.60875 -30.8125 119.4375 C-31.204375 120.283125 -31.59625 121.12875 -32 122 C-32.99 122.33 -33.98 122.66 -35 123 C-36.20882096 125.00016466 -36.20882096 125.00016466 -37 127 C-37.66 127 -38.32 127 -39 127 C-39.309375 127.78375 -39.61875 128.5675 -39.9375 129.375 C-41 132 -41 132 -42 134 C-42.66 134 -43.32 134 -44 134 C-44 134.66 -44 135.32 -44 136 C-45.6796875 137.7265625 -45.6796875 137.7265625 -47.875 139.625 C-48.59429687 140.25664062 -49.31359375 140.88828125 -50.0546875 141.5390625 C-52 143 -52 143 -54 143 C-54 143.66 -54 144.32 -54 145 C-55.98 145.99 -55.98 145.99 -58 147 C-58.8125 144.3125 -58.8125 144.3125 -59 141 C-56.5625 138.3125 -56.5625 138.3125 -54 136 C-54 135.01 -54 134.02 -54 133 C-53.34 133 -52.68 133 -52 133 C-52.309375 132.071875 -52.309375 132.071875 -52.625 131.125 C-52.74875 130.42375 -52.8725 129.7225 -53 129 C-52.01 128.01 -52.01 128.01 -51 127 C-50.59952556 124.67724823 -50.2602896 122.34260643 -50 120 C-48.515 119.505 -48.515 119.505 -47 119 C-47.0825 118.34 -47.165 117.68 -47.25 117 C-46.9991418 113.98970161 -46.49813697 112.86762284 -45.0625 110.3125 C-40.5636067 101.75877892 -42.03278985 91.81162225 -42.72412109 82.4831543 C-42.87698605 80.4105726 -43.0155415 78.33737002 -43.15234375 76.26367188 C-43.0019848 70.23088446 -43.0019848 70.23088446 -45 65 C-45.27681394 63.2454255 -45.54898476 61.48999178 -45.79760742 59.73120117 C-48.03688832 44.47035991 -53.72072376 31.31544024 -63 19 C-63.53753906 18.25621094 -64.07507813 17.51242187 -64.62890625 16.74609375 C-67.14347947 13.49618841 -68.31403894 12.19054474 -72.375 11.0625 C-73.24125 11.041875 -74.1075 11.02125 -75 11 C-72.89775995 8.89775995 -71.90571008 8.48818473 -69.140625 7.6328125 C-68.36162842 7.38893799 -67.58263184 7.14506348 -66.7800293 6.89379883 C-65.94511963 6.64009521 -65.11020996 6.3863916 -64.25 6.125 C-63.39253174 5.86033936 -62.53506348 5.59567871 -61.65161133 5.32299805 C-59.10347055 4.54050936 -56.55238103 3.76853038 -54 3 C-52.99042236 2.69328369 -52.99042236 2.69328369 -51.96044922 2.38037109 C-47.99184369 1.18041312 -44.0076045 0.062086 -40 -1 C-38.87464844 -1.30035156 -37.74929688 -1.60070312 -36.58984375 -1.91015625 C-24.8131246 -4.76471613 -10.79612967 -6.79239892 0 0 Z M-61 147 C-60.01 147.33 -59.02 147.66 -58 148 C-58.99 148.33 -59.98 148.66 -61 149 C-61 148.34 -61 147.68 -61 147 Z " fill="#7638AF" transform="translate(322,256)"/>
<path d="M0 0 C0.33 0 0.66 0 1 0 C1.31359027 4.24939767 1.61627856 8.49939869 1.90942383 12.75024414 C2.01036134 14.19250758 2.11413817 15.63457551 2.22094727 17.07641602 C3.71667182 37.33540828 3.71667182 37.33540828 -1 45 C-1.53824723 47.67614511 -1.76882897 50.27218183 -2 53 C-2.99 53.33 -3.98 53.66 -5 54 C-5.144375 55.11375 -5.28875 56.2275 -5.4375 57.375 C-6 61 -6 61 -7 63 C-7.66 63 -8.32 63 -9 63 C-8.67 64.32 -8.34 65.64 -8 67 C-8.66 67 -9.32 67 -10 67 C-9.79375 67.61875 -9.5875 68.2375 -9.375 68.875 C-9.25125 69.57625 -9.1275 70.2775 -9 71 C-11 73 -11 73 -14 75 C-13.67 76.65 -13.34 78.3 -13 80 C-12.01 79.67 -11.02 79.34 -10 79 C-10 78.34 -10 77.68 -10 77 C-6.53846154 74 -6.53846154 74 -4 74 C-3.34 72.68 -2.68 71.36 -2 70 C-1.34 70 -0.68 70 0 70 C0 69.34 0 68.68 0 68 C0.66 68 1.32 68 2 68 C2.226875 67.29875 2.45375 66.5975 2.6875 65.875 C5.04709543 60.70636238 9.02976578 56.97023422 13 53 C13.495 52.01 13.495 52.01 14 51 C14.66 51 15.32 51 16 51 C16 50.01 16 49.02 16 48 C16.66 48 17.32 48 18 48 C18 47.34 18 46.68 18 46 C18.66 45.67 19.32 45.34 20 45 C20.28875 44.236875 20.5775 43.47375 20.875 42.6875 C22.12809752 39.69398927 23.69237597 38.23318454 26 36 C26.33 35.01 26.66 34.02 27 33 C27.66 33 28.32 33 29 33 C29.103125 31.906875 29.20625 30.81375 29.3125 29.6875 C30 26 30 26 31.4375 24.0625 C33 23 33 23 35 23 C35.33 21.68 35.66 20.36 36 19 C36.66 19 37.32 19 38 19 C38 18.34 38 17.68 38 17 C38.66 17 39.32 17 40 17 C40.37125 15.63875 40.37125 15.63875 40.75 14.25 C42.03981342 10.89648511 43.31971042 9.32291764 46 7 C46 10.73335719 44.79199277 12.76062846 43 16 C42.34 16.66 41.68 17.32 41 18 C40.62875 19.051875 40.62875 19.051875 40.25 20.125 C38.21144806 24.81366946 34.92845779 28.55559516 31.77539062 32.55224609 C30.88255449 33.68543583 29.99198163 34.82041193 29.10351562 35.95703125 C28.21712075 37.09028646 27.32537373 38.21938047 26.42773438 39.34375 C23.99495925 42.45376734 22.34817469 45.30339199 21 49 C18.2459857 53.56103421 14.85883685 57.33410499 11 61 C7.54337004 64.39901946 4.24057073 67.89486506 1 71.5 C-2.24092238 75.10552615 -5.5606454 78.58365112 -9 82 C-11.36362416 84.49373043 -11.36362416 84.49373043 -13 87 C-12.67 87.99 -12.34 88.98 -12 90 C-11.34 90 -10.68 90 -10 90 C-10 88.68 -10 87.36 -10 86 C-9.34 86 -8.68 86 -8 86 C-7.67 86.66 -7.34 87.32 -7 88 C-5.68 88 -4.36 88 -3 88 C-3 87.34 -3 86.68 -3 86 C-2.34 86 -1.68 86 -1 86 C-0.87625 85.38125 -0.7525 84.7625 -0.625 84.125 C0.08597407 81.70768816 1.25438735 80.74561265 3 79 C4.99422795 78.63371323 6.99453311 78.29868656 9 78 C9.33 76.35 9.66 74.7 10 73 C10.721875 72.896875 11.44375 72.79375 12.1875 72.6875 C15.35420826 71.91341576 17.39935618 70.96805478 20 69 C20.27585937 68.18015625 20.55171875 67.3603125 20.8359375 66.515625 C22 64 22 64 24.27734375 62.8125 C25.15519531 62.544375 26.03304687 62.27625 26.9375 62 C31.48278368 60.40915071 32.62184777 59.19007774 35 55 C38.6875 54.1875 38.6875 54.1875 42 54 C42 57 42 57 40.4453125 58.8046875 C19.54910771 77.44944935 -5.31024707 92.47042963 -29.03759766 107.23608398 C-33.06094813 109.74484211 -36.96793721 112.34491115 -40.8125 115.125 C-44.08343633 117.47938674 -47.02321038 119.05812877 -51 120 C-51 116 -51 116 -49 113.75 C-48.00501757 112.82788952 -47.00432931 111.91192128 -46 111 C-14.64024622 81.11127944 -1.41630378 42.38548139 0 0 Z M-17 81 C-17 81.66 -17 82.32 -17 83 C-16.01 82.67 -15.02 82.34 -14 82 C-14.99 81.67 -15.98 81.34 -17 81 Z M-1 44 C1 45 1 45 1 45 Z " fill="#392456" transform="translate(278,322)"/>
<path d="M0 0 C-1.31435367 2.94221561 -2.67688667 4.88256392 -5.0625 7.0390625 C-5.68584229 7.61068115 -6.30918457 8.1822998 -6.95141602 8.77124023 C-7.62744873 9.38298096 -8.30348145 9.99472168 -9 10.625 C-15.31339427 16.4407511 -21.49081545 22.36960709 -27.5625 28.4375 C-28.29919922 29.16984863 -29.03589844 29.90219727 -29.79492188 30.65673828 C-34.40131456 35.27465742 -38.76346031 40.04193375 -43 45 C-43.47219971 45.54519287 -43.94439941 46.09038574 -44.4309082 46.65209961 C-63.20365258 68.34026928 -82.50859805 93.15713992 -91 121 C-92.18005182 117.31233808 -92.20993972 113.84889483 -92 110 C-90 107 -90 107 -88 105 C-87.3574765 102.93125966 -87.3574765 102.93125966 -87 101 C-86.34 101 -85.68 101 -85 101 C-84.896875 100.0925 -84.79375 99.185 -84.6875 98.25 C-83.97805978 94.89628259 -83.14606499 93.57527799 -81 91 C-80.649375 90.278125 -80.29875 89.55625 -79.9375 88.8125 C-79 87 -79 87 -77 86 C-75.47998351 82.10584371 -75.47998351 82.10584371 -75 78 C-74.01 77.505 -74.01 77.505 -73 77 C-73.20625 76.401875 -73.4125 75.80375 -73.625 75.1875 C-74 73 -74 73 -72 70 C-69.875 69.3125 -69.875 69.3125 -68 69 C-68 67.68 -68 66.36 -68 65 C-67.2575 64.979375 -66.515 64.95875 -65.75 64.9375 C-62.63748884 63.87641665 -62.28829933 63.3503752 -60.6875 60.625 C-58.78898521 57.21313145 -58.78898521 57.21313145 -59 54 C-57.35 54 -55.7 54 -54 54 C-52.55475116 49.57394994 -52.55475116 49.57394994 -52 45 C-51.195625 44.87625 -50.39125 44.7525 -49.5625 44.625 C-48.716875 44.41875 -47.87125 44.2125 -47 44 C-46.505 43.01 -46.505 43.01 -46 42 C-45.34 42 -44.68 42 -44 42 C-44 41.34 -44 40.68 -44 40 C-44.66 40 -45.32 40 -46 40 C-46 39.34 -46 38.68 -46 38 C-43.69 37.67 -41.38 37.34 -39 37 C-39 36.34 -39 35.68 -39 35 C-38.34 34.67 -37.68 34.34 -37 34 C-36.814375 33.0409375 -36.814375 33.0409375 -36.625 32.0625 C-36 30 -36 30 -33.9375 28.75 C-33.298125 28.5025 -32.65875 28.255 -32 28 C-35.43515002 27.37542727 -38.49064814 27 -42 27 C-42.495 25.02 -42.495 25.02 -43 23 C-34.16398263 17.2174418 -25.29263223 11.49427207 -16.3125 5.9375 C-15.5714502 5.47303467 -14.83040039 5.00856934 -14.06689453 4.5300293 C-3.68911215 -1.84455607 -3.68911215 -1.84455607 0 0 Z " fill="#AD82F2" transform="translate(260,67)"/>
<path d="M0 0 C-2.93993975 3.9767301 -6.2219991 7.01198221 -10.125 10 C-10.73480713 10.47147461 -11.34461426 10.94294922 -11.97290039 11.42871094 C-31.10665821 26.11705823 -51.24242028 39.1973569 -71.68212891 51.98217773 C-75.81938703 54.58016803 -79.85189063 57.26063072 -83.8125 60.125 C-87.08343633 62.47938674 -90.02321038 64.05812877 -94 65 C-94 63.68 -94 62.36 -94 61 C-93.01 61 -92.02 61 -91 61 C-89.07012386 59.17400739 -89.07012386 59.17400739 -87.1875 56.8125 C-84.78111647 53.9887732 -82.45876764 51.38511076 -79.5625 49.0625 C-76.9548587 47.25668582 -76.9548587 47.25668582 -76 45 C-73.4375 44.375 -73.4375 44.375 -71 44 C-71 43.34 -71 42.68 -71 42 C-68.646679 39.44496577 -66.24619234 37.19079907 -63.5 35.0625 C-61.42100476 33.34732893 -59.97235432 31.82846861 -58.3125 29.75 C-57.549375 28.8425 -56.78625 27.935 -56 27 C-55.34 27 -54.68 27 -54 27 C-54 26.34 -54 25.68 -54 25 C-53.01 25.33 -52.02 25.66 -51 26 C-52.33463542 27.46484375 -53.66927083 28.9296875 -55.00390625 30.39453125 C-55.33261719 30.92433594 -55.66132813 31.45414062 -56 32 C-55.67 32.99 -55.34 33.98 -55 35 C-54.34 35 -53.68 35 -53 35 C-53 33.68 -53 32.36 -53 31 C-52.34 31 -51.68 31 -51 31 C-50.67 31.66 -50.34 32.32 -50 33 C-48.68 33 -47.36 33 -46 33 C-46 32.34 -46 31.68 -46 31 C-45.34 31 -44.68 31 -44 31 C-43.87625 30.38125 -43.7525 29.7625 -43.625 29.125 C-42.91402593 26.70768816 -41.74561265 25.74561265 -40 24 C-38.00577205 23.63371323 -36.00546689 23.29868656 -34 23 C-33.67 21.35 -33.34 19.7 -33 18 C-32.278125 17.896875 -31.55625 17.79375 -30.8125 17.6875 C-27.64579174 16.91341576 -25.60064382 15.96805478 -23 14 C-22.72414063 13.18015625 -22.44828125 12.3603125 -22.1640625 11.515625 C-21 9 -21 9 -18.72265625 7.8125 C-17.40587891 7.4103125 -17.40587891 7.4103125 -16.0625 7 C-11.64009179 5.44549496 -10.09246524 4.30117856 -8 0 C-5.06038917 -1.32756618 -3.0202496 -0.97079451 0 0 Z " fill="#1F113C" transform="translate(321,377)"/>
<path d="M0 0 C-0.57711567 3.45092575 -1.66919833 4.99739216 -4.2109375 7.36328125 C-4.87327393 7.99459961 -5.53561035 8.62591797 -6.21801758 9.27636719 C-6.92982178 9.94829102 -7.64162598 10.62021484 -8.375 11.3125 C-25.77879485 28.30141339 -37.86141364 48.74688326 -45 72 C-48 70 -48 70 -48.546875 68.16015625 C-48.61390625 67.46792969 -48.6809375 66.77570313 -48.75 66.0625 C-48.82734375 65.37285156 -48.9046875 64.68320313 -48.984375 63.97265625 C-49 62 -49 62 -48 59 C-48 58.01 -48 57.02 -48 56 C-47.071875 55.690625 -46.14375 55.38125 -45.1875 55.0625 C-40.76831801 52.2030293 -40.18366998 48.95272438 -39 44 C-39.763125 44.309375 -40.52625 44.61875 -41.3125 44.9375 C-43.18789677 45.67893593 -45.08684652 46.36228217 -47 47 C-46.5882026 42.15603434 -44.28737196 39.74289918 -40.93359375 36.5078125 C-40.42127701 35.99878387 -39.90896027 35.48975525 -39.38111877 34.96530151 C-37.74239559 33.34228375 -36.09006666 31.73390667 -34.4375 30.125 C-33.35265206 29.05165336 -32.26865873 27.97744224 -31.18554688 26.90234375 C-25.62557976 21.40679495 -19.98384996 16.03680582 -14 11 C-15.44754255 9.55245745 -17.03962913 9.44266439 -19 9 C-16.58961315 7.48901123 -14.17259962 5.991175 -11.75 4.5 C-11.06808594 4.07074219 -10.38617188 3.64148437 -9.68359375 3.19921875 C-9.01972656 2.79316406 -8.35585938 2.38710938 -7.671875 1.96875 C-7.0644043 1.59169922 -6.45693359 1.21464844 -5.83105469 0.82617188 C-4 0 -4 0 0 0 Z M-39 41 C-38 43 -38 43 -38 43 Z " fill="#312654" transform="translate(273,58)"/>
<path d="M0 0 C0.99 0.33 1.98 0.66 3 1 C3.12375 1.7425 3.2475 2.485 3.375 3.25 C3.95486701 5.80141485 4.73708739 7.7267573 6 10 C6.99 10 7.98 10 9 10 C9 11.65 9 13.3 9 15 C9.66 15.33 10.32 15.66 11 16 C11 16.99 11 17.98 11 19 C11.5775 19.12375 12.155 19.2475 12.75 19.375 C15.02335767 20.00648824 16.9253529 20.88858191 19 22 C19 22.99 19 23.98 19 25 C20.32 25.33 21.64 25.66 23 26 C23 26.66 23 27.32 23 28 C23.886875 27.67 24.77375 27.34 25.6875 27 C28.7668654 26.07038026 30.8324366 25.57195089 34 26 C34.43699219 26.49628906 34.87398437 26.99257813 35.32421875 27.50390625 C38.66041662 30.48237661 43.77172208 29.2370997 48 29 C53.71186942 28.75817481 53.71186942 28.75817481 59.02734375 26.9296875 C62.05941477 25.50071146 64.75766057 26.51965342 68 27 C68.66 26.34 69.32 25.68 70 25 C73.02941524 24.16745567 76.07969412 23.53226431 79.15234375 22.87890625 C82.05760832 21.98221965 83.03723582 21.20887881 85 19 C85.66 19 86.32 19 87 19 C87 19.66 87 20.32 87 21 C87.350625 20.484375 87.70125 19.96875 88.0625 19.4375 C90 18 90 18 93.6875 18.3125 C94.780625 18.539375 95.87375 18.76625 97 19 C96.34 19.66 95.68 20.32 95 21 C95.495 21.99 95.495 21.99 96 23 C91.75234472 24.13397711 87.50148798 25.25548593 83.25 26.375 C82.06277344 26.69210937 80.87554687 27.00921875 79.65234375 27.3359375 C67.29241217 30.57788677 55.73057686 32.36108692 42.9375 32.375 C41.74833984 32.39949219 40.55917969 32.42398438 39.33398438 32.44921875 C27.08547237 32.48957629 17.30609185 29.04895312 8 21 C5.69804906 18.48922229 3.79903641 15.88792687 2 13 C1.360625 11.989375 0.72125 10.97875 0.0625 9.9375 C-1.26718201 6.26132033 -0.83007517 3.77306895 0 0 Z " fill="#3F3F51" transform="translate(124,255)"/>
<path d="M0 0 C3.88219623 3.12752631 7.09929764 6.32970278 9 11 C9.0777346 13.33203812 9.08967728 15.66839059 9 18 C8.34 18 7.68 18 7 18 C6.690625 16.906875 6.38125 15.81375 6.0625 14.6875 C5.41662103 12.44592006 4.7376883 10.2130649 4 8 C2.02 7.67 0.04 7.34 -2 7 C-2.144375 6.38125 -2.28875 5.7625 -2.4375 5.125 C-2.93152225 2.96741678 -2.93152225 2.96741678 -4 1 C-7.26459168 -0.44509797 -7.26459168 -0.44509797 -11 -1 C-12.68756133 -0.03567924 -14.35666496 0.96210419 -16 2 C-18.5625 1.3125 -18.5625 1.3125 -21 0 C-21.763125 -0.37125 -22.52625 -0.7425 -23.3125 -1.125 C-23.869375 -1.41375 -24.42625 -1.7025 -25 -2 C-25.20625 -1.401875 -25.4125 -0.80375 -25.625 -0.1875 C-27.54881498 2.87311475 -29.68750124 3.6750005 -33 5 C-34.32 5 -35.64 5 -37 5 C-37.845625 5.350625 -38.69125 5.70125 -39.5625 6.0625 C-42 7 -42 7 -45 6 C-46.67626594 6.75596307 -48.35148226 7.51458568 -50.015625 8.296875 C-53.37106419 9.48581014 -56.47233916 9.18566636 -60 9 C-60 11.31 -60 13.62 -60 16 C-60.66 16 -61.32 16 -62 16 C-62.66 13.03 -63.32 10.06 -64 7 C-56.14481532 3.66749741 -48.25385928 1.15665355 -40 -1 C-38.86304688 -1.30292969 -37.72609375 -1.60585937 -36.5546875 -1.91796875 C-24.80764157 -4.76776463 -10.76145759 -6.79775314 0 0 Z " fill="#B575EE" transform="translate(322,256)"/>
<path d="M0 0 C1.0730756 3.2192268 0.79946725 3.90206442 0 7 C0.495 7.99 0.495 7.99 1 9 C-0.0411926 11.4964267 -1.14219258 13.84922563 -2.375 16.25 C-2.74004639 16.96655762 -3.10509277 17.68311523 -3.48120117 18.42138672 C-11.82566605 34.49970258 -22.64655199 48.49961314 -34.9375 61.75 C-35.5763916 62.44206543 -36.2152832 63.13413086 -36.87353516 63.84716797 C-37.48116699 64.49057129 -38.08879883 65.13397461 -38.71484375 65.796875 C-39.25230225 66.36760742 -39.78976074 66.93833984 -40.34350586 67.52636719 C-42.11688368 69.10398082 -43.83984519 70.03731912 -46 71 C-46.66 70.01 -47.32 69.02 -48 68 C-47.375 66.125 -47.375 66.125 -46 64 C-42.875 62.75 -42.875 62.75 -40 62 C-40 60.35 -40 58.7 -40 57 C-38.88625 56.62875 -37.7725 56.2575 -36.625 55.875 C-34.66357063 55.10366396 -34.66357063 55.10366396 -33 54 C-32.29373761 52.01363702 -31.63106429 50.01151741 -31 48 C-29.24903958 46.29836241 -27.42190672 44.84724927 -25.4609375 43.39453125 C-24.97882813 42.93433594 -24.49671875 42.47414063 -24 42 C-24 41.01 -24 40.02 -24 39 C-23.40703125 38.75507813 -22.8140625 38.51015625 -22.203125 38.2578125 C-19.63301274 36.79047891 -18.45470034 35.27707775 -16.75 32.875 C-16.22921875 32.15054688 -15.7084375 31.42609375 -15.171875 30.6796875 C-14.78515625 30.12539063 -14.3984375 29.57109375 -14 29 C-14.495 28.01 -14.495 28.01 -15 27 C-14.01 27 -13.02 27 -12 27 C-11.9175 26.319375 -11.835 25.63875 -11.75 24.9375 C-11.07064324 22.27668601 -10.35181442 20.7838929 -8.9375 18.5 C-7.14353512 15.54028176 -6.57295968 13.52308266 -7 10 C-6.34 9.67 -5.68 9.34 -5 9 C-5 8.34 -5 7.68 -5 7 C-4 6 -3 5 -2 4 C-0.82425289 1.90010348 -0.82425289 1.90010348 0 0 Z " fill="#252646" transform="translate(368,305)"/>
<path d="M0 0 C0.99 0.33 1.98 0.66 3 1 C2.34 2.98 1.68 4.96 1 7 C0.34 6.67 -0.32 6.34 -1 6 C-3.14853436 6.53195637 -3.14853436 6.53195637 -5 8 C-5.81171228 10.55519921 -5.81171228 10.55519921 -6 13 C-6.66 12.67 -7.32 12.34 -8 12 C-8.66 12.99 -9.32 13.98 -10 15 C-11.0209375 15.4021875 -11.0209375 15.4021875 -12.0625 15.8125 C-14.36828478 16.91161165 -14.36828478 16.91161165 -14.75 20.125 C-14.8325 21.07375 -14.915 22.0225 -15 23 C-17.31 23.33 -19.62 23.66 -22 24 C-22 26.31 -22 28.62 -22 31 C-22.556875 30.731875 -23.11375 30.46375 -23.6875 30.1875 C-26.27057763 29.70642812 -26.27057763 29.70642812 -28.625 32.1875 C-30.55174301 34.46916935 -31.88612192 36.26593561 -33 39 C-33.66 39 -34.32 39 -35 39 C-37.05444722 41.82486493 -38.01849957 44.07969045 -38.8125 47.5 C-40.34794825 52.02553169 -42.17827734 53.2583294 -46 56 C-46.33 54.68 -46.66 53.36 -47 52 C-45.35 51.34 -43.7 50.68 -42 50 C-42.0825 49.113125 -42.165 48.22625 -42.25 47.3125 C-41.93969193 43.20091805 -40.60250744 42.12300893 -38 39 C-37.52484437 37.75420239 -37.0927999 36.49145905 -36.6953125 35.21875 C-35.17005419 31.00166218 -32.81845288 28.03974014 -29.6875 24.875 C-29.16768555 24.33439941 -28.64787109 23.79379883 -28.11230469 23.23681641 C-26.99952295 22.08478718 -25.88102857 20.93825271 -24.75732422 19.796875 C-22.9400551 17.93870596 -21.15878902 16.05020946 -19.37890625 14.15625 C-18.17054613 12.89461065 -16.96093822 11.63416506 -15.75 10.375 C-14.91988403 9.48723877 -14.91988403 9.48723877 -14.07299805 8.58154297 C-10.03182107 4.46208798 -6.49184822 2.75597722 -1 1 C-0.67 0.67 -0.34 0.34 0 0 Z " fill="#674796" transform="translate(190,113)"/>
<path d="M0 0 C-1.37171786 3.11808245 -2.90631447 5.09854729 -5.4140625 7.390625 C-6.08945068 8.01445068 -6.76483887 8.63827637 -7.46069336 9.28100586 C-8.17491455 9.93077393 -8.88913574 10.58054199 -9.625 11.25 C-11.0778091 12.58877436 -12.52964235 13.92860851 -13.98046875 15.26953125 C-14.67575684 15.91100098 -15.37104492 16.5524707 -16.08740234 17.21337891 C-19.05166683 19.98239697 -21.89705377 22.86046665 -24.71484375 25.77734375 C-26 27 -26 27 -27 27 C-26.835 25.88625 -26.67 24.7725 -26.5 23.625 C-25.9544542 20.27967967 -25.9544542 20.27967967 -26 18 C-26.99 18.33 -27.98 18.66 -29 19 C-29.33 18.67 -29.66 18.34 -30 18 C-30.33 18.99 -30.66 19.98 -31 21 C-33.72265625 21.94921875 -33.72265625 21.94921875 -37.0625 22.6875 C-38.16722656 22.93886719 -39.27195313 23.19023438 -40.41015625 23.44921875 C-41.26480469 23.63097656 -42.11945313 23.81273438 -43 24 C-39.42640061 19.94296939 -35.15866402 17.47927149 -30.5625 14.75 C-28.94376772 13.7777477 -27.32527986 12.80508836 -25.70703125 11.83203125 C-24.90990723 11.35459473 -24.1127832 10.8771582 -23.29150391 10.38525391 C-21.22540046 9.13625849 -19.1771265 7.86462714 -17.13671875 6.57421875 C-16.55913818 6.21038086 -15.98155762 5.84654297 -15.38647461 5.47167969 C-13.8546991 4.50366521 -12.32568318 3.53128784 -10.796875 2.55859375 C-3.27080581 -1.63540291 -3.27080581 -1.63540291 0 0 Z M-20 14 C-21.65 14.66 -23.3 15.32 -25 16 C-24.34 16.66 -23.68 17.32 -23 18 C-21.35 17.34 -19.7 16.68 -18 16 C-18.66 15.34 -19.32 14.68 -20 14 Z " fill="#AA81EC" transform="translate(260,67)"/>
<path d="M0 0 C-2.94000452 3.97681771 -6.22217859 7.0116239 -10.125 10 C-10.72828125 10.46712402 -11.3315625 10.93424805 -11.953125 11.41552734 C-22.35742888 19.41094002 -32.98952637 27.13923694 -43.9375 34.375 C-44.51048828 34.76252441 -45.08347656 35.15004883 -45.67382812 35.54931641 C-47.27734375 36.5859375 -47.27734375 36.5859375 -50 38 C-50.99 37.67 -51.98 37.34 -53 37 C-51.5459375 36.071875 -51.5459375 36.071875 -50.0625 35.125 C-46.97164638 33.34321154 -46.97164638 33.34321154 -46 31 C-45.34 31 -44.68 31 -44 31 C-43.87625 30.38125 -43.7525 29.7625 -43.625 29.125 C-42.91402593 26.70768816 -41.74561265 25.74561265 -40 24 C-38.00577205 23.63371323 -36.00546689 23.29868656 -34 23 C-33.67 21.35 -33.34 19.7 -33 18 C-32.278125 17.896875 -31.55625 17.79375 -30.8125 17.6875 C-27.64579174 16.91341576 -25.60064382 15.96805478 -23 14 C-22.72414063 13.18015625 -22.44828125 12.3603125 -22.1640625 11.515625 C-21 9 -21 9 -18.72265625 7.8125 C-17.40587891 7.4103125 -17.40587891 7.4103125 -16.0625 7 C-11.64009179 5.44549496 -10.09246524 4.30117856 -8 0 C-5.06038917 -1.32756618 -3.0202496 -0.97079451 0 0 Z " fill="#292741" transform="translate(321,377)"/>
<path d="M0 0 C6.79818758 6.79818758 5.30078238 20.50445423 5.3190918 29.38452148 C5.14448758 44.37232234 2.18007914 60.24496492 -4 74 C-5.485 74.99 -5.485 74.99 -7 76 C-6.54179603 69.22340448 -5.8163903 63.3896099 -3.203125 57.07421875 C-1.48662322 52.7748676 -0.90451585 49.67872338 -1 45 C-0.70031113 43.66062396 -0.37153962 42.32761685 -0.0234375 41 C1.21083034 35.62612078 1.33138495 30.4330207 1.3125 24.9375 C1.32861328 23.99583984 1.34472656 23.05417969 1.36132812 22.08398438 C1.36558973 15.96005975 0.28546303 11.65121323 -2 6 C-1.1875 2.5 -1.1875 2.5 0 0 Z " fill="#222B62" transform="translate(374,237)"/>
<path d="M0 0 C1.32 0.66 2.64 1.32 4 2 C3.34 2.33 2.68 2.66 2 3 C1.95875 3.969375 1.9175 4.93875 1.875 5.9375 C1.29865134 10.71158804 -1.53467914 13.3810721 -4.5546875 16.953125 C-12.92540214 27.38308893 -19.40443104 39.07240912 -25.10205078 51.12744141 C-26.39860926 53.83124878 -27.76299768 56.49997735 -29.12817383 59.16967773 C-30.33551163 61.70437712 -31.19432796 64.31442654 -32 67 C-33.18005182 63.31233808 -33.20993972 59.84889483 -33 56 C-31 53 -31 53 -29 51 C-28.3574765 48.93125966 -28.3574765 48.93125966 -28 47 C-27.34 47 -26.68 47 -26 47 C-25.896875 46.0925 -25.79375 45.185 -25.6875 44.25 C-24.97805978 40.89628259 -24.14606499 39.57527799 -22 37 C-21.649375 36.278125 -21.29875 35.55625 -20.9375 34.8125 C-20 33 -20 33 -18 32 C-16.47998351 28.10584371 -16.47998351 28.10584371 -16 24 C-15.34 23.67 -14.68 23.34 -14 23 C-14.20625 22.401875 -14.4125 21.80375 -14.625 21.1875 C-15 19 -15 19 -13 16 C-10.875 15.3125 -10.875 15.3125 -9 15 C-9 13.68 -9 12.36 -9 11 C-8.2575 10.979375 -7.515 10.95875 -6.75 10.9375 C-3.63748884 9.87641665 -3.28829933 9.3503752 -1.6875 6.625 C0.21101479 3.21313145 0.21101479 3.21313145 0 0 Z " fill="#AD7AEB" transform="translate(201,121)"/>
<path d="M0 0 C1.34400833 0.98560611 2.67607028 1.98758315 4 3 C6.64934822 3.71433121 6.64934822 3.71433121 9 4 C4.64437791 6.90374806 -0.11570533 8.22898354 -5.0625 9.875 C-6.66569092 10.41072632 -6.66569092 10.41072632 -8.30126953 10.95727539 C-16.35467419 13.59028096 -24.40692132 15.65347082 -32.7109375 17.30859375 C-35.86368632 17.82615611 -35.86368632 17.82615611 -38 19 C-39.52148326 19.08372659 -41.04655778 19.10730027 -42.5703125 19.09765625 C-43.46621094 19.09443359 -44.36210937 19.09121094 -45.28515625 19.08789062 C-46.22230469 19.07951172 -47.15945312 19.07113281 -48.125 19.0625 C-49.06988281 19.05798828 -50.01476562 19.05347656 -50.98828125 19.04882812 C-53.32558387 19.03702357 -55.66276061 19.02055759 -58 19 C-58 18.34 -58 17.68 -58 17 C-51.88626421 14.23895803 -45.5610918 12.84935844 -38.87109375 13.0703125 C-29.89017415 13.27213092 -22.12235839 11.8222863 -14 8 C-12.33333333 7.33333333 -10.66666667 6.66666667 -9 6 C-6.66224535 5.01000746 -4.33112076 4.00558151 -2 3 C-2.495 2.01 -2.495 2.01 -3 1 C-2.01 0.67 -1.02 0.34 0 0 Z " fill="#A67AE2" transform="translate(242,227)"/>
<path d="M0 0 C0.33 0.99 0.66 1.98 1 3 C0.67 3.66 0.34 4.32 0 5 C-0.66 5 -1.32 5 -2 5 C-2.226875 5.721875 -2.45375 6.44375 -2.6875 7.1875 C-4.26335128 10.56432417 -6.20876616 12.55767039 -9 15 C-9.66 15 -10.32 15 -11 15 C-10.47949719 19.522153 -10.47949719 19.522153 -9.296875 23.890625 C-8.85322762 27.04285641 -10.16114216 28.75033841 -11.6875 31.5 C-14.85273986 37.49108337 -17.04799135 43.52392423 -19 50 C-22 48 -22 48 -22.546875 46.16015625 C-22.61390625 45.46792969 -22.6809375 44.77570313 -22.75 44.0625 C-22.82734375 43.37285156 -22.9046875 42.68320313 -22.984375 41.97265625 C-23 40 -23 40 -22 37 C-22 36.01 -22 35.02 -22 34 C-21.071875 33.690625 -20.14375 33.38125 -19.1875 33.0625 C-14.76831801 30.2030293 -14.18366998 26.95272438 -13 22 C-14.1446875 22.4640625 -14.1446875 22.4640625 -15.3125 22.9375 C-17.18789677 23.67893593 -19.08684652 24.36228217 -21 25 C-20.53193423 20.33748443 -18.83820526 18.36428814 -15.52734375 15.13671875 C-14.62822266 14.25048828 -13.72910156 13.36425781 -12.80273438 12.45117188 C-11.85720703 11.53916016 -10.91167969 10.62714844 -9.9375 9.6875 C-8.97760179 8.74767724 -8.01860671 7.80693111 -7.06054688 6.86523438 C-4.71576088 4.56757976 -2.36215473 2.2797724 0 0 Z M-13 19 C-12 21 -12 21 -12 21 Z " fill="#301D61" transform="translate(247,80)"/>
<path d="M0 0 C0.99 0.33 1.98 0.66 3 1 C3.12375 1.7425 3.2475 2.485 3.375 3.25 C3.95486701 5.80141485 4.73708739 7.7267573 6 10 C6.99 10 7.98 10 9 10 C9 11.65 9 13.3 9 15 C9.66 15.33 10.32 15.66 11 16 C11 16.99 11 17.98 11 19 C11.5775 19.12375 12.155 19.2475 12.75 19.375 C15.02335767 20.00648824 16.9253529 20.88858191 19 22 C19 22.99 19 23.98 19 25 C20.32 25.33 21.64 25.66 23 26 C23 26.66 23 27.32 23 28 C23.886875 27.67 24.77375 27.34 25.6875 27 C28.77992528 26.06643765 30.82525958 25.48517723 34 26 C35.64453125 28.0234375 35.64453125 28.0234375 37 30 C26.04380471 30.94295123 18.90822416 30.07023213 10 23 C5.22620782 18.64996836 0.85039166 13.28883113 -1 7 C-1.01938837 4.44558194 -0.62640301 2.50561204 0 0 Z " fill="#2D2B44" transform="translate(124,255)"/>
<path d="M0 0 C0 0.66 0 1.32 0 2 C0.66 2.33 1.32 2.66 2 3 C2 4.98 2 6.96 2 9 C2.88171875 9.10634766 2.88171875 9.10634766 3.78125 9.21484375 C9.44220127 11.21810291 12.85920898 19.4959442 15.4375 24.625 C15.953125 25.73875 16.46875 26.8525 17 28 C13.70983281 28 12.6835585 27.82421673 10 26 C8.42465996 23.79165968 7.01147727 21.63209658 5.625 19.3125 C0.31370591 9.72532863 0.31370591 9.72532863 -8.375 4.0625 C-9.24125 4.041875 -10.1075 4.02125 -11 4 C-8.07317918 1.07317918 -4.14037627 0 0 0 Z " fill="#A066CE" transform="translate(258,263)"/>
<path d="M0 0 C0.8212254 2.29943113 1.13426962 3.58376417 0.375 5.9375 C-2.13771785 9.70657677 -4.66499828 12.55499943 -9 14 C-9 14.66 -9 15.32 -9 16 C-10.175625 16.12375 -10.175625 16.12375 -11.375 16.25 C-12.24125 16.4975 -13.1075 16.745 -14 17 C-14.70394612 18.31403276 -15.36345658 19.6520257 -16 21 C-17.4125756 22.18262143 -18.8291026 23.36133374 -20.27734375 24.5 C-22.97637226 26.85017448 -25.19541701 29.58549966 -27.484375 32.328125 C-29 34 -29 34 -31 35 C-30.65539698 32.18095587 -30.41861647 30.45599295 -28.46875 28.33203125 C-27.8190625 27.83058594 -27.169375 27.32914062 -26.5 26.8125 C-18.3684954 20.07496762 -12.24655856 12.27989589 -6.62890625 3.37109375 C-4.47237617 0.23197202 -3.81054584 0 0 0 Z " fill="#3D2859" transform="translate(259,405)"/>
<path d="M0 0 C0.66 0.66 1.32 1.32 2 2 C1.875 5 1.875 5 1 8 C-1.90909091 10 -1.90909091 10 -4 10 C-4.28875 10.763125 -4.5775 11.52625 -4.875 12.3125 C-6 15 -6 15 -8 18 C-7.34 19.32 -6.68 20.64 -6 22 C-8.64 21.67 -11.28 21.34 -14 21 C-14.3403125 21.928125 -14.3403125 21.928125 -14.6875 22.875 C-16.37929835 25.61410209 -17.99244161 26.05024472 -21 27 C-17.25153225 16.42596412 -7.5564199 8.08425806 0 0 Z " fill="#2F1B65" transform="translate(222,106)"/>
<path d="M0 0 C8.10010891 2.82362952 13.82252828 9.07969424 18.41796875 16.140625 C19 18 19 18 18.11328125 20.234375 C17.56220703 21.10835937 17.56220703 21.10835937 17 22 C16.01 22 15.02 22 14 22 C13 19 13 19 13 15 C10.69 15.33 8.38 15.66 6 16 C5.67 14.35 5.34 12.7 5 11 C5.66 11 6.32 11 7 11 C5.75453595 7.26360784 4.36595047 6.81243487 1 5 C1 5.66 1 6.32 1 7 C0.01 7 -0.98 7 -2 7 C-2 6.01 -2 5.02 -2 4 C-1.34 4 -0.68 4 0 4 C0 2.68 0 1.36 0 0 Z " fill="#323B7E" transform="translate(355,216)"/>
<path d="M0 0 C-0.98057373 0.029729 -0.98057373 0.029729 -1.98095703 0.06005859 C-26.12987259 0.19699879 -26.12987259 0.19699879 -49 7 C-50.96967756 7.22979572 -52.93946629 7.45874215 -54.91015625 7.6796875 C-57.21923068 7.97340831 -57.21923068 7.97340831 -60.1875 9.0625 C-62.98801447 9.99600482 -65.07447 10.17209 -68 10 C-68 9.34 -68 8.68 -68 8 C-12.10584017 -8.07056011 -12.10584017 -8.07056011 0 0 Z " fill="#505581" transform="translate(344,213)"/>
<path d="M0 0 C19.92983968 -0.89016654 19.92983968 -0.89016654 28.08984375 5.68359375 C32.30437785 9.69127955 34.92585225 12.77556758 35.125 18.75 C35.08375 19.8225 35.0425 20.895 35 22 C34.34 22 33.68 22 33 22 C32.690625 20.906875 32.38125 19.81375 32.0625 18.6875 C31.41662103 16.44592006 30.7376883 14.2130649 30 12 C27.03 11.505 27.03 11.505 24 11 C23.855625 10.38125 23.71125 9.7625 23.5625 9.125 C23.06847775 6.96741678 23.06847775 6.96741678 22 5 C18.73540832 3.55490203 18.73540832 3.55490203 15 3 C13.31243867 3.96432076 11.64333504 4.96210419 10 6 C7.1875 5.1875 7.1875 5.1875 5 4 C5 3.34 5 2.68 5 2 C3.35 1.67 1.7 1.34 0 1 C0 0.67 0 0.34 0 0 Z " fill="#A070E1" transform="translate(296,252)"/>
<path d="M0 0 C0.33 0.99 0.66 1.98 1 3 C1.99 3 2.98 3 4 3 C5.00043595 5.72934467 5.99571134 8.46026187 6.98046875 11.1953125 C7.6876711 13.14079637 8.42562702 15.07526827 9.1875 17 C10.43198193 21.59501022 10.67962838 26.26187243 11 31 C10.34 30.67 9.68 30.34 9 30 C9 29.34 9 28.68 9 28 C7.68 27.67 6.36 27.34 5 27 C4.89042969 26.11957031 4.78085938 25.23914063 4.66796875 24.33203125 C4.43013672 22.58986328 4.43013672 22.58986328 4.1875 20.8125 C4.03667969 19.66394531 3.88585937 18.51539063 3.73046875 17.33203125 C2.99001272 13.95444303 1.86380168 11.87233096 0 9 C-0.87453326 5.35611141 -1.1930449 3.5791347 0 0 Z " fill="#6834A6" transform="translate(219,181)"/>
<path d="M0 0 C1.0730756 3.2192268 0.79946725 3.90206442 0 7 C0.33 7.66 0.66 8.32 1 9 C-0.13039731 11.61366996 -1.31723931 14.10171077 -2.625 16.625 C-2.99383301 17.346875 -3.36266602 18.06875 -3.74267578 18.8125 C-6.2672957 23.704986 -8.81308147 28.5008209 -12 33 C-12.66 33 -13.32 33 -14 33 C-14.33 31.02 -14.66 29.04 -15 27 C-14.01 27 -13.02 27 -12 27 C-11.9175 26.319375 -11.835 25.63875 -11.75 24.9375 C-11.07064324 22.27668601 -10.35181442 20.7838929 -8.9375 18.5 C-7.14353512 15.54028176 -6.57295968 13.52308266 -7 10 C-6.34 9.67 -5.68 9.34 -5 9 C-5 8.34 -5 7.68 -5 7 C-4 6 -3 5 -2 4 C-0.82425289 1.90010348 -0.82425289 1.90010348 0 0 Z " fill="#2E334D" transform="translate(368,305)"/>
<path d="M0 0 C-3.14285714 7.42857143 -3.14285714 7.42857143 -5 11 C-6.32 10.67 -7.64 10.34 -9 10 C-8.67 9.34 -8.34 8.68 -8 8 C-11.78383679 8.92493788 -13.56693694 9.39371171 -15.875 12.625 C-16.431875 13.800625 -16.431875 13.800625 -17 15 C-18.32 14.67 -19.64 14.34 -21 14 C-20.41418999 8.72770987 -16.19467393 6.04898199 -12.4375 2.75 C-8.30755856 -0.21508617 -5.01425439 -0.11396033 0 0 Z M-8 6 C-7 8 -7 8 -7 8 Z " fill="#A778E4" transform="translate(218,95)"/>
<path d="M0 0 C0.66 0.66 1.32 1.32 2 2 C0.57852271 4.43681822 -0.82406991 6.77480949 -2.5625 9 C-4.09327193 10.93765297 -4.09327193 10.93765297 -4.8125 13.25 C-6.57317513 17.32735294 -9.27968993 20.51114704 -12 24 C-12.85036635 25.12263277 -13.69921772 26.24641406 -14.546875 27.37109375 C-15.44771623 28.56004773 -16.34875841 29.74884947 -17.25 30.9375 C-17.68634766 31.51757812 -18.12269531 32.09765625 -18.57226562 32.6953125 C-21.77283712 36.88641856 -21.77283712 36.88641856 -24 38 C-23.51300383 33.61703444 -22.16604109 31.96816352 -19 29 C-18.67 28.01 -18.34 27.02 -18 26 C-17.34 26 -16.68 26 -16 26 C-15.896875 24.906875 -15.79375 23.81375 -15.6875 22.6875 C-15 19 -15 19 -13.5625 17.0625 C-12 16 -12 16 -10 16 C-9.67 14.68 -9.34 13.36 -9 12 C-8.34 12 -7.68 12 -7 12 C-7 11.34 -7 10.68 -7 10 C-6.34 10 -5.68 10 -5 10 C-4.731875 9.0925 -4.46375 8.185 -4.1875 7.25 C-3.10423706 4.28528037 -2.01640543 2.3830246 0 0 Z " fill="#3C246C" transform="translate(323,329)"/>
<path d="M0 0 C0.33 0.66 0.66 1.32 1 2 C1.99 2.33 2.98 2.66 4 3 C6.08877471 6.10129939 6.33913491 8.94660474 6.5625 12.625 C6.63339844 13.76453125 6.70429688 14.9040625 6.77734375 16.078125 C6.85082031 17.37234375 6.92429687 18.6665625 7 20 C7.10427946 21.53653951 7.20980159 23.07299506 7.31640625 24.609375 C7.42000369 26.19786904 7.52287407 27.78641068 7.625 29.375 C7.6772876 30.12346191 7.7295752 30.87192383 7.78344727 31.64306641 C8.05890157 36.26760945 7.80693397 40.43540334 7 45 C5.27478752 41.98832 4.72796496 39.72686652 4.62109375 36.26953125 C4.58693359 35.38458984 4.55277344 34.49964844 4.51757812 33.58789062 C4.49115234 32.67201172 4.46472656 31.75613281 4.4375 30.8125 C4.37782854 28.9855375 4.31424295 27.15869716 4.24609375 25.33203125 C4.21020142 24.12123901 4.21020142 24.12123901 4.17358398 22.88598633 C4.2016026 20.98849483 4.2016026 20.98849483 3 20 C2.43321559 17.21012856 1.91646197 14.4300213 1.4375 11.625 C1.29892578 10.84382813 1.16035156 10.06265625 1.01757812 9.2578125 C0.46977011 6.10589248 0 3.20880083 0 0 Z " fill="#5A3C85" transform="translate(274,301)"/>
<path d="M0 0 C-1.34855816 6.69881607 -6.17652937 11.4177029 -11 16 C-14.50324309 19.45043038 -17.87721396 22.98919416 -21.1875 26.625 C-22.04730469 27.56601562 -22.90710938 28.50703125 -23.79296875 29.4765625 C-26.08568148 31.98743196 -26.08568148 31.98743196 -28 35 C-28.66 35 -29.32 35 -30 35 C-30 34.34 -30 33.68 -30 33 C-29.34 33 -28.68 33 -28 33 C-27.7525 32.05125 -27.505 31.1025 -27.25 30.125 C-26 27 -26 27 -23.875 25.625 C-22.946875 25.315625 -22.946875 25.315625 -22 25 C-22 24.34 -22 23.68 -22 23 C-21.34 23 -20.68 23 -20 23 C-19.773125 22.29875 -19.54625 21.5975 -19.3125 20.875 C-16.95290457 15.70636238 -12.97023422 11.97023422 -9 8 C-8.67 7.34 -8.34 6.68 -8 6 C-7.34 6 -6.68 6 -6 6 C-6 5.01 -6 4.02 -6 3 C-5.34 3 -4.68 3 -4 3 C-4 2.34 -4 1.68 -4 1 C-2 0 -2 0 0 0 Z " fill="#331D5E" transform="translate(300,367)"/>
<path d="M0 0 C0 0.99 0 1.98 0 3 C-1.86083984 4.51464844 -1.86083984 4.51464844 -4.4609375 6.109375 C-5.40839844 6.69976562 -6.35585938 7.29015625 -7.33203125 7.8984375 C-8.33621094 8.50945312 -9.34039062 9.12046875 -10.375 9.75 C-12.32174935 10.95079867 -14.26707023 12.15391637 -16.2109375 13.359375 C-17.65412354 14.25257446 -17.65412354 14.25257446 -19.12646484 15.16381836 C-22.80013664 17.51128527 -26.34086898 20.02107023 -29.8671875 22.58325195 C-32.44873511 24.29807805 -34.98835823 25.28671642 -38 26 C-38 24.68 -38 23.36 -38 22 C-37.01 22 -36.02 22 -35 22 C-32.86455625 20.00835976 -32.86455625 20.00835976 -30.8125 17.5 C-30.09707031 16.6646875 -29.38164062 15.829375 -28.64453125 14.96875 C-28.10183594 14.3190625 -27.55914062 13.669375 -27 13 C-26.01 14.485 -26.01 14.485 -25 16 C-24.67 15.34 -24.34 14.68 -24 14 C-22.44825199 13.07013573 -20.85674208 12.20623362 -19.25 11.375 C-12.64448202 7.86825984 -6.3355336 3.96852184 0 0 Z " fill="#2F2B3B" transform="translate(265,416)"/>
<path d="M0 0 C0.33 0 0.66 0 1 0 C1.185625 1.11375 1.185625 1.11375 1.375 2.25 C1.83937788 4.94416421 1.83937788 4.94416421 3.09375 6.84375 C4.28593415 9.68032607 3.82704523 11.28580904 3.125 14.25 C2.92132813 15.14203125 2.71765625 16.0340625 2.5078125 16.953125 C2.34023437 17.62859375 2.17265625 18.3040625 2 19 C2.66 19.33 3.32 19.66 4 20 C3.79375 20.721875 3.5875 21.44375 3.375 22.1875 C2.94047789 25.44641585 3.58319331 27.08304504 5 30 C4.34 30.33 3.68 30.66 3 31 C3.33 31.66 3.66 32.32 4 33 C3.39421747 35.01927511 2.73080266 37.02253397 2 39 C-4.1438833 28.7601945 -1.21444763 11.45050625 0 0 Z " fill="#2D2942" transform="translate(121,220)"/>
<path d="M0 0 C0.33 0.66 0.66 1.32 1 2 C0.03478053 3.69745493 -0.93792553 5.39142314 -1.9609375 7.0546875 C-3.22051682 9.22023397 -3.22051682 9.22023397 -3.9375 12.8125 C-5 16 -5 16 -7.625 17.4375 C-8.40875 17.623125 -9.1925 17.80875 -10 18 C-10.08004482 21.5219721 -10.04005702 24.61981469 -9 28 C-11.49064888 28.68707555 -13.37886292 29 -16 29 C-14.62355926 17.5952053 -7.29539329 8.50914013 0 0 Z " fill="#6E54A3" transform="translate(153,147)"/>
<path d="M0 0 C0.99 0.33 1.98 0.66 3 1 C2.34 2.98 1.68 4.96 1 7 C0.34 6.67 -0.32 6.34 -1 6 C-3.14853436 6.53195637 -3.14853436 6.53195637 -5 8 C-5.81171228 10.55519921 -5.81171228 10.55519921 -6 13 C-6.66 12.67 -7.32 12.34 -8 12 C-8.99 13.485 -8.99 13.485 -10 15 C-12 14.33333333 -14 13.66666667 -16 13 C-6.90909091 3.36363636 -6.90909091 3.36363636 -1 1 C-0.67 0.67 -0.34 0.34 0 0 Z M-16 15 C-15.01 15.33 -14.02 15.66 -13 16 C-13.33 16.78375 -13.66 17.5675 -14 18.375 C-15.11866511 20.84332497 -15.11866511 20.84332497 -15 23 C-17.64 23 -20.28 23 -23 23 C-22.38125 22.7525 -21.7625 22.505 -21.125 22.25 C-18.6170261 20.77472123 -18.07707051 19.65125048 -17 17 C-16.67 16.34 -16.34 15.68 -16 15 Z " fill="#9F6FE1" transform="translate(190,113)"/>
<path d="M0 0 C0.72265625 1.56640625 0.72265625 1.56640625 1 4 C-0.0937459 6.43943869 -1.22730956 8.63748322 -2.5625 10.9375 C-3.30886426 12.27704817 -4.05230786 13.61822742 -4.79296875 14.9609375 C-5.16599121 15.63479492 -5.53901367 16.30865234 -5.92333984 17.00292969 C-9.55449922 23.73827747 -12.68088469 30.70670745 -15 38 C-16.18005182 34.31233808 -16.20993972 30.84889483 -16 27 C-14 24 -14 24 -12 22 C-11.3574765 19.93125966 -11.3574765 19.93125966 -11 18 C-10.34 18 -9.68 18 -9 18 C-8.8453125 16.63875 -8.8453125 16.63875 -8.6875 15.25 C-7.97805978 11.89628259 -7.14606499 10.57527799 -5 8 C-4.649375 7.278125 -4.29875 6.55625 -3.9375 5.8125 C-3 4 -3 4 -1 3 C-0.67 2.01 -0.34 1.02 0 0 Z " fill="#9762DE" transform="translate(184,150)"/>
<path d="M0 0 C0.99 0 1.98 0 3 0 C2.87882813 0.70382813 2.75765625 1.40765625 2.6328125 2.1328125 C0.43417541 15.08785875 -1.30173675 27.88000102 -2 41 C-2.33 41 -2.66 41 -3 41 C-3.02505615 40.44127197 -3.0501123 39.88254395 -3.07592773 39.30688477 C-3.19343105 36.72527572 -3.3154438 34.14389764 -3.4375 31.5625 C-3.47681641 30.68400391 -3.51613281 29.80550781 -3.55664062 28.90039062 C-3.82862668 23.23052738 -4.31777645 17.63551047 -5 12 C-4.67 12 -4.34 12 -4 12 C-4.0825 11.13375 -4.165 10.2675 -4.25 9.375 C-3.9397248 5.18628475 -2.6653235 3.1983882 0 0 Z " fill="#3A3154" transform="translate(224,130)"/>
<path d="M0 0 C2 1 2 1 3 3 C4.5529555 39.4041661 4.5529555 39.4041661 -4 51 C-4.99 51.495 -4.99 51.495 -6 52 C-5.73445313 50.90042969 -5.46890625 49.80085938 -5.1953125 48.66796875 C-4.83838673 47.17451619 -4.48162481 45.68102446 -4.125 44.1875 C-3.95097656 43.46884766 -3.77695312 42.75019531 -3.59765625 42.00976562 C-3.04287254 39.67761929 -2.51519236 37.34121126 -2 35 C-1.81034668 34.14768799 -1.62069336 33.29537598 -1.42529297 32.41723633 C0.01991769 25.33031824 0.23990614 18.52948968 0.125 11.3125 C0.11597656 10.21744141 0.10695313 9.12238281 0.09765625 7.99414062 C0.07438154 5.32918646 0.04169135 2.66471866 0 0 Z " fill="#372774" transform="translate(333,269)"/>
<path d="M0 0 C0 0.66 0 1.32 0 2 C-2.31 2.33 -4.62 2.66 -7 3 C-5.68 3.66 -4.36 4.32 -3 5 C-3.33 6.32 -3.66 7.64 -4 9 C-4.5775 8.814375 -5.155 8.62875 -5.75 8.4375 C-7.96665824 7.84176441 -7.96665824 7.84176441 -10 8.5 C-12 9 -12 9 -13.75 8.5 C-16.63009416 7.85997908 -19.14003179 8.38224301 -22.02734375 8.80859375 C-24.50442693 9.0489444 -26.61424494 8.67099361 -29 8 C-29 7.67 -29 7.34 -29 7 C-28.03320312 6.74605469 -27.06640625 6.49210938 -26.0703125 6.23046875 C-24.75511162 5.88317854 -23.4400145 5.53549525 -22.125 5.1875 C-21.44332764 5.00735352 -20.76165527 4.82720703 -20.05932617 4.64160156 C-15.34889331 3.38667073 -10.68809593 2.02135066 -6.05078125 0.515625 C-4 0 -4 0 0 0 Z " fill="#424687" transform="translate(275,223)"/>
<path d="M0 0 C1.34474033 3.04704168 0.90767646 4.28484806 -0.14453125 7.53125 C-0.68910843 8.85890531 -1.24552608 10.18175363 -1.8125 11.5 C-2.08642578 12.16386719 -2.36035156 12.82773438 -2.64257812 13.51171875 C-3.98349535 16.73377884 -5.38242878 19.90688821 -7 23 C-9.40555091 19.49190493 -10.44934368 17.26876501 -10 13 C-9.67 12.01 -9.34 11.02 -9 10 C-9 9.01 -9 8.02 -9 7 C-8.071875 6.5875 -7.14375 6.175 -6.1875 5.75 C-3.11945319 4.06558214 -1.80959535 2.91545917 0 0 Z " fill="#342853" transform="translate(234,107)"/>
<path d="M0 0 C-2.47300479 5.33855002 -6.523579 7.81673526 -11.25 11 C-12.73445139 12.02072225 -14.2188272 13.04155442 -15.703125 14.0625 C-16.42306641 14.55105469 -17.14300781 15.03960937 -17.88476562 15.54296875 C-19.92695016 16.94968128 -21.92461265 18.40551164 -23.921875 19.875 C-27 22 -27 22 -29 22 C-28.33587285 18.67936425 -27.3927124 17.3927124 -25 15 C-23.00577205 14.63371323 -21.00546689 14.29868656 -19 14 C-18.67 12.35 -18.34 10.7 -18 9 C-16.9171875 8.8453125 -16.9171875 8.8453125 -15.8125 8.6875 C-12.64579174 7.91341576 -10.60064382 6.96805478 -8 5 C-6.79549696 2.44816596 -6.79549696 2.44816596 -6 0 C-3.50907189 -1.24546405 -2.58919267 -0.7767578 0 0 Z " fill="#1C1638" transform="translate(306,386)"/>
<path d="M0 0 C3.862177 1.28739233 4.31821699 2.73936378 6.375 6.1875 C8.99279807 10.4560115 11.6714286 14.2679654 15 18 C14.67 18.66 14.34 19.32 14 20 C13.01 19.34 12.02 18.68 11 18 C10.01 18 9.02 18 8 18 C7.67 17.01 7.34 16.02 7 15 C6.01 14.67 5.02 14.34 4 14 C4 13.01 4 12.02 4 11 C3.01 10.67 2.02 10.34 1 10 C1 9.01 1 8.02 1 7 C0.01 6.67 -0.98 6.34 -2 6 C-2 5.01 -2 4.02 -2 3 C-1.34 3 -0.68 3 0 3 C0 2.01 0 1.02 0 0 Z " fill="#734C9C" transform="translate(231,210)"/>
<path d="M0 0 C1.093125 0.226875 2.18625 0.45375 3.3125 0.6875 C2.6525 1.3475 1.9925 2.0075 1.3125 2.6875 C1.6425 3.3475 1.9725 4.0075 2.3125 4.6875 C-6.18579459 7.46650436 -13.71841948 9.34645285 -22.6875 8.6875 C-23.0175 8.0275 -23.3475 7.3675 -23.6875 6.6875 C-22.85605469 6.50574219 -22.02460938 6.32398438 -21.16796875 6.13671875 C-20.08128906 5.88535156 -18.99460938 5.63398438 -17.875 5.375 C-16.25658203 5.00955078 -16.25658203 5.00955078 -14.60546875 4.63671875 C-11.68490935 3.68665726 -10.6670173 2.91679867 -8.6875 0.6875 C-8.0275 0.6875 -7.3675 0.6875 -6.6875 0.6875 C-6.6875 1.3475 -6.6875 2.0075 -6.6875 2.6875 C-6.1615625 1.9140625 -6.1615625 1.9140625 -5.625 1.125 C-3.6875 -0.3125 -3.6875 -0.3125 0 0 Z " fill="#383552" transform="translate(217.6875,273.3125)"/>
<path d="M0 0 C0 0.66 0 1.32 0 2 C-4.23281704 4.11640852 -9.82035819 3.17476175 -14.375 2.5 C-20.17377036 1.70016961 -26.3947657 1.13158857 -32 3 C-34.01421039 3.42826147 -36.03620484 3.82064948 -38.0625 4.1875 C-39.12597656 4.38730469 -40.18945312 4.58710938 -41.28515625 4.79296875 C-42.18105469 4.86128906 -43.07695312 4.92960938 -44 5 C-44.66 4.34 -45.32 3.68 -46 3 C-36.64221639 0.49345082 -27.53045489 -0.22219575 -17.875 -0.625 C-16.81667969 -0.6765625 -15.75835937 -0.728125 -14.66796875 -0.78125 C-9.63261473 -0.99605808 -4.95103667 -1.14781819 0 0 Z " fill="#374293" transform="translate(350,213)"/>
<path d="M0 0 C0.75 1.75 0.75 1.75 1 4 C-0.8125 6 -0.8125 6 -3 8 C-4.23512079 10.13309192 -4.23512079 10.13309192 -5 12 C-5.66 12 -6.32 12 -7 12 C-9.05444722 14.82486493 -10.01849957 17.07969045 -10.8125 20.5 C-12.34794825 25.02553169 -14.17827734 26.2583294 -18 29 C-18.33 27.68 -18.66 26.36 -19 25 C-17.35 24.34 -15.7 23.68 -14 23 C-14.0825 22.113125 -14.165 21.22625 -14.25 20.3125 C-13.94081646 16.21581811 -12.66439477 15.0450226 -10 12 C-9.484375 10.96875 -8.96875 9.9375 -8.4375 8.875 C-7.15519762 6.31039523 -6.27356136 4.70517102 -4 3 C-3.01 3 -2.02 3 -1 3 C-0.67 2.01 -0.34 1.02 0 0 Z " fill="#754BBB" transform="translate(162,140)"/>
<path d="M0 0 C-0.56943014 3.30269479 -1.40929363 4.87191977 -4 7 C-5.66279327 8.0064275 -7.32983484 9.00585407 -9 10 C-10.68477344 11.31037934 -12.35648543 12.63823078 -14 14 C-14 12.35 -14 10.7 -14 9 C-15.65 9.33 -17.3 9.66 -19 10 C-16.4067146 7.08367559 -13.40967026 5.28604785 -10.0625 3.3125 C-9.02222656 2.68988281 -7.98195313 2.06726562 -6.91015625 1.42578125 C-4 0 -4 0 0 0 Z " fill="#453663" transform="translate(273,58)"/>
<path d="M0 0 C-0.66 0.66 -1.32 1.32 -2 2 C-1.67 2.66 -1.34 3.32 -1 4 C-3.93253346 5.03551045 -6.87166938 6.05081838 -9.8125 7.0625 C-10.64587891 7.35705078 -11.47925781 7.65160156 -12.33789062 7.95507812 C-13.54155273 8.3659668 -13.54155273 8.3659668 -14.76953125 8.78515625 C-15.50792236 9.04176025 -16.24631348 9.29836426 -17.00708008 9.56274414 C-19 10 -19 10 -22 9 C-21.34 9 -20.68 9 -20 9 C-19.95875 8.38125 -19.9175 7.7625 -19.875 7.125 C-19.58625 6.42375 -19.2975 5.7225 -19 5 C-16.1875 3.9375 -16.1875 3.9375 -13 3 C-12.319375 2.484375 -11.63875 1.96875 -10.9375 1.4375 C-7.39820988 -1.18842493 -4.10881666 -1.36960555 0 0 Z " fill="#363256" transform="translate(242,267)"/>
<path d="M0 0 C0.33 0 0.66 0 1 0 C1.33 2.31 1.66 4.62 2 7 C3.32 6.67 4.64 6.34 6 6 C6 6.99 6 7.98 6 9 C7.25365152 11.67445658 8.48377739 12.78399196 11.203125 13.921875 C13.45622257 14.67290752 15.7112548 15.36663655 18 16 C18 16.66 18 17.32 18 18 C13.60854617 19.02126833 10.9421985 19.32488629 7 17 C5.20079991 15.08639991 3.62806091 13.06807737 2 11 C1.34 10.67 0.68 10.34 0 10 C-0.89093449 6.35526801 -1.23666047 3.57257469 0 0 Z " fill="#7748B6" transform="translate(169,226)"/>
<path d="M0 0 C4.52642879 4.52642879 3.18389871 11.70576517 3.1875 17.6875 C3.19974609 18.73873047 3.21199219 19.78996094 3.22460938 20.87304688 C3.23611108 27.03412938 3.11894684 33.14212395 1 39 C0.34 39.66 -0.32 40.32 -1 41 C-0.9285376 40.31067383 -0.8570752 39.62134766 -0.78344727 38.91113281 C0.01068572 30.50788804 0.11760975 22.18603093 0.0625 13.75 C0.05746786 12.40755378 0.05290802 11.0651057 0.04882812 9.72265625 C0.03717009 6.4817219 0.02080774 3.24088631 0 0 Z " fill="#434B6F" transform="translate(376,246)"/>
<path d="M0 0 C-1.49097658 3.7952131 -3.75700849 5.61042731 -7 8 C-7 7.34 -7 6.68 -7 6 C-8.32 6 -9.64 6 -11 6 C-11 6.66 -11 7.32 -11 8 C-14.3 8.66 -17.6 9.32 -21 10 C-17.14289602 5.47209533 -6.0524794 -3.0262397 0 0 Z " fill="#8768BC" transform="translate(260,67)"/>
<path d="M0 0 C0.66 0 1.32 0 2 0 C2.58405712 5.72375975 1.46921677 10.44163947 -0.3125 15.875 C-0.52543701 16.54152588 -0.73837402 17.20805176 -0.95776367 17.89477539 C-2.19440419 21.49784384 -2.73792368 22.82528246 -6 25 C-5.22698073 13.56745182 -5.22698073 13.56745182 -3 8 C-2.45639356 6.54238862 -1.91481223 5.08402078 -1.375 3.625 C-0.694375 1.830625 -0.694375 1.830625 0 0 Z " fill="#303562" transform="translate(373,288)"/>
<path d="M0 0 C0.94875 0.04125 1.8975 0.0825 2.875 0.125 C1.885 0.62 1.885 0.62 0.875 1.125 C0.545 1.785 0.215 2.445 -0.125 3.125 C-0.785 3.125 -1.445 3.125 -2.125 3.125 C-3.115 4.61 -3.115 4.61 -4.125 6.125 C-6.25 6.8125 -6.25 6.8125 -8.125 7.125 C-8.455 6.465 -8.785 5.805 -9.125 5.125 C-10.445 5.125 -11.765 5.125 -13.125 5.125 C-13.125 5.785 -13.125 6.445 -13.125 7.125 C-19.56 7.62 -19.56 7.62 -26.125 8.125 C-26.125 7.465 -26.125 6.805 -26.125 6.125 C-26.785 5.795 -27.445 5.465 -28.125 5.125 C-27.01125 5.186875 -25.8975 5.24875 -24.75 5.3125 C-20.34146536 5.3359913 -16.65695416 4.22500339 -12.51953125 2.78125 C-10.125 2.125 -10.125 2.125 -7.44921875 2.15625 C-3.97644914 2.1095573 -3.73708124 0.14948325 0 0 Z " fill="#353D8B" transform="translate(301.125,216.875)"/>
<path d="M0 0 C1.32087692 2.17556199 2.07112439 3.43100487 1.75 6 C1 8 1 8 0 9.75 C-1.48717258 13.09613831 -1.6363108 16.36310804 -2 20 C-2.99 20.33 -3.98 20.66 -5 21 C-5.66 21.66 -6.32 22.32 -7 23 C-7.5326514 16.741346 -5.81849506 12.54891215 -3 7 C-2.34 7 -1.68 7 -1 7 C-0.67 4.69 -0.34 2.38 0 0 Z M-1 11 C1 12 1 12 1 12 Z " fill="#382559" transform="translate(278,355)"/>
<path d="M0 0 C1.8125 1.5625 1.8125 1.5625 3 3 C3 3.33 3 3.66 3 4 C-3.6 4 -10.2 4 -17 4 C-17 3.34 -17 2.68 -17 2 C-5.17293233 -3.01754386 -5.17293233 -3.01754386 0 0 Z " fill="#8860C4" transform="translate(201,242)"/>
<path d="M0 0 C0.99 0.33 1.98 0.66 3 1 C1.49650623 4.66786393 -0.63728792 6.68910393 -3.625 9.25 C-4.44226563 9.95640625 -5.25953125 10.6628125 -6.1015625 11.390625 C-7.04128906 12.18726563 -7.04128906 12.18726563 -8 13 C-8.99 12.01 -9.98 11.02 -11 10 C-10.375 8.125 -10.375 8.125 -9 6 C-7.00827818 5.30899447 -5.00838196 4.64097297 -3 4 C-2.67 3.01 -2.34 2.02 -2 1 C-1.34 0.67 -0.68 0.34 0 0 Z " fill="#252638" transform="translate(331,363)"/>
<path d="M0 0 C0 0.66 0 1.32 0 2 C0.66 2.33 1.32 2.66 2 3 C2 4.98 2 6.96 2 9 C2.66 9 3.32 9 4 9 C3.34 10.32 2.68 11.64 2 13 C1.56429688 12.43410156 1.12859375 11.86820312 0.6796875 11.28515625 C-3.07061318 6.51056427 -3.07061318 6.51056427 -8.4375 4 C-9.283125 4 -10.12875 4 -11 4 C-8.07317918 1.07317918 -4.14037627 0 0 0 Z " fill="#7C5C9F" transform="translate(258,263)"/>
<path d="M0 0 C0.66 0.33 1.32 0.66 2 1 C-5.15272525 6.73461972 -12.46866653 12.1399183 -20.125 17.1875 C-20.85904053 17.68096924 -21.59308105 18.17443848 -22.34936523 18.68286133 C-23.04102783 19.13169678 -23.73269043 19.58053223 -24.4453125 20.04296875 C-25.05906738 20.44539795 -25.67282227 20.84782715 -26.30517578 21.26245117 C-28 22 -28 22 -31 21 C-30.030625 20.38125 -29.06125 19.7625 -28.0625 19.125 C-24.97164638 17.34321154 -24.97164638 17.34321154 -24 15 C-22.576875 14.443125 -22.576875 14.443125 -21.125 13.875 C-16.42750431 11.98631617 -12.63235224 8.95617047 -8.6015625 5.94140625 C-5.7962274 3.84793546 -2.93538242 1.90403184 0 0 Z " fill="#383449" transform="translate(299,393)"/>
<path d="M0 0 C0.33 0.99 0.66 1.98 1 3 C-1.24732102 3.84124316 -3.49738785 4.67314832 -5.75 5.5 C-6.70132812 5.85771484 -6.70132812 5.85771484 -7.671875 6.22265625 C-11.03286607 7.44801758 -13.36871587 8 -17 8 C-16.49396008 5.83125748 -16.00016187 4.00032373 -15 2 C-13.824375 2.04125 -12.64875 2.0825 -11.4375 2.125 C-7.27590326 2.13983635 -3.93512333 1.31170778 0 0 Z " fill="#392C74" transform="translate(269,256)"/>
<path d="M0 0 C0.33 0 0.66 0 1 0 C1.33 3.3 1.66 6.6 2 10 C1.01 10.33 0.02 10.66 -1 11 C-0.67 12.32 -0.34 13.64 0 15 C-3.625 18 -3.625 18 -7 18 C-5.64474464 13.78224268 -4.09799886 9.70578678 -2.375 5.625 C-1.92898438 4.56539063 -1.48296875 3.50578125 -1.0234375 2.4140625 C-0.68570312 1.61742187 -0.34796875 0.82078125 0 0 Z " fill="#33224F" transform="translate(270,374)"/>
<path d="M0 0 C0.66 0.66 1.32 1.32 2 2 C0.57852271 4.43681822 -0.82406991 6.77480949 -2.5625 9 C-4.09327193 10.93765297 -4.09327193 10.93765297 -4.8125 13.25 C-7.03366706 18.3937553 -10.33643498 22.89095665 -15 26 C-13.36655113 21.35095321 -13.36655113 21.35095321 -11.53125 19.59375 C-9.76262575 17.75293701 -9.13905403 16.21344266 -8.3125 13.8125 C-8.06113281 13.09707031 -7.80976563 12.38164062 -7.55078125 11.64453125 C-7.27814453 10.83048828 -7.27814453 10.83048828 -7 10 C-6.34 10 -5.68 10 -5 10 C-4.731875 9.0925 -4.46375 8.185 -4.1875 7.25 C-3.10423706 4.28528037 -2.01640543 2.3830246 0 0 Z " fill="#37226A" transform="translate(323,329)"/>
<path d="M0 0 C0.66 0.33 1.32 0.66 2 1 C1.67675501 3.99001613 1.45193862 5.56420205 -0.75 7.6875 C-4.92656155 10.12382757 -9.41730685 11.50796037 -14 13 C-9.99191229 7.69898077 -5.33731159 3.93030788 0 0 Z " fill="#8160B1" transform="translate(197,104)"/>
<path d="M0 0 C0.33 0.99 0.66 1.98 1 3 C0.67 3.66 0.34 4.32 0 5 C-0.66 5 -1.32 5 -2 5 C-2.2784375 6.11375 -2.2784375 6.11375 -2.5625 7.25 C-4.2394835 10.45814234 -6.01532532 11.33784389 -9.1796875 12.953125 C-11.95561949 14.54958374 -13.84493339 16.64901824 -16 19 C-16.66 18.67 -17.32 18.34 -18 18 C-12.06 12.06 -6.12 6.12 0 0 Z " fill="#381E72" transform="translate(247,80)"/>
<path d="M0 0 C0.99 0.33 1.98 0.66 3 1 C3.08131463 2.43655854 3.13933559 3.8744483 3.1875 5.3125 C3.22230469 6.11300781 3.25710937 6.91351563 3.29296875 7.73828125 C3 10 3 10 1.61328125 11.79296875 C0 13 0 13 -2 13 C-2.33 14.98 -2.66 16.96 -3 19 C-3.33 19 -3.66 19 -4 19 C-4.53699151 11.88486245 -2.69707634 6.55004254 0 0 Z " fill="#433571" transform="translate(129,187)"/>
<path d="M0 0 C1.32 0 2.64 0 4 0 C4 0.99 4 1.98 4 3 C2.25 4.60546875 2.25 4.60546875 0 6.1875 C-0.7425 6.71730469 -1.485 7.24710937 -2.25 7.79296875 C-2.8275 8.19128906 -3.405 8.58960937 -4 9 C-4.66 8.01 -5.32 7.02 -6 6 C-6.99 6.33 -7.98 6.66 -9 7 C-9 6.34 -9 5.68 -9 5 C-10.32 5.33 -11.64 5.66 -13 6 C-12.67 5.34 -12.34 4.68 -12 4 C-9.67711188 3.60689586 -7.38154824 3.49250305 -5.03125 3.34375 C-4.02578125 3.17359375 -4.02578125 3.17359375 -3 3 C-2.67 2.34 -2.34 1.68 -2 1 C-1.34 1.33 -0.68 1.66 0 2 C0 1.34 0 0.68 0 0 Z " fill="#9770D8" transform="translate(249,73)"/>
<path d="M0 0 C0.33 0 0.66 0 1 0 C1.12375 0.7425 1.2475 1.485 1.375 2.25 C1.83937788 4.94416421 1.83937788 4.94416421 3.09375 6.84375 C4.28593415 9.68032607 3.82704523 11.28580904 3.125 14.25 C2.92132813 15.14203125 2.71765625 16.0340625 2.5078125 16.953125 C2.34023437 17.62859375 2.17265625 18.3040625 2 19 C2.66 19.33 3.32 19.66 4 20 C3.79375 20.721875 3.5875 21.44375 3.375 22.1875 C2.94047789 25.44641585 3.58319331 27.08304504 5 30 C3.68 30 2.36 30 1 30 C0.67 20.1 0.34 10.2 0 0 Z " fill="#30295B" transform="translate(121,220)"/>
<path d="M0 0 C0.99 1.32 1.98 2.64 3 4 C-0.66575222 7.99900242 -4.08927402 10.63557638 -9 13 C-9.99 12.67 -10.98 12.34 -12 12 C-11.67 11.01 -11.34 10.02 -11 9 C-10.01 9 -9.02 9 -8 9 C-5.86455625 7.00835976 -5.86455625 7.00835976 -3.8125 4.5 C-3.09707031 3.6646875 -2.38164062 2.829375 -1.64453125 1.96875 C-1.10183594 1.3190625 -0.55914062 0.669375 0 0 Z " fill="#3F364A" transform="translate(238,429)"/>
<path d="M0 0 C2.475 0.99 2.475 0.99 5 2 C5 2.99 5 3.98 5 5 C5.86625 5.185625 5.86625 5.185625 6.75 5.375 C9.02335767 6.00648824 10.9253529 6.88858191 13 8 C13 8.99 13 9.98 13 11 C11.68 10.67 10.36 10.34 9 10 C9 9.34 9 8.68 9 8 C7.35 8.33 5.7 8.66 4 9 C2.02 6.69 0.04 4.38 -2 2 C-1.34 1.34 -0.68 0.68 0 0 Z " fill="#2A264B" transform="translate(130,269)"/>
<path d="M0 0 C0.33 0.66 0.66 1.32 1 2 C0.04692201 3.74183219 -0.91411417 5.48056772 -1.94140625 7.1796875 C-3.21463353 9.36907464 -4.13552013 11.62268035 -5 14 C-5.99 14 -6.98 14 -8 14 C-9.4694809 15.76732099 -9.4694809 15.76732099 -10.6875 18 C-11.12449219 18.7425 -11.56148437 19.485 -12.01171875 20.25 C-12.33785156 20.8275 -12.66398438 21.405 -13 22 C-13.33 21.34 -13.66 20.68 -14 20 C-12.69831791 17.66057135 -11.35411063 15.47325946 -9.875 13.25 C-9.483125 12.6415625 -9.09125 12.033125 -8.6875 11.40625 C-6.04116899 7.35892022 -3.15679493 3.66233148 0 0 Z " fill="#402E62" transform="translate(153,147)"/>
<path d="M0 0 C0.66 0.33 1.32 0.66 2 1 C0.28566742 2.8494376 -1.44412009 4.67829108 -3.1875 6.5 C-3.91163086 7.28697266 -3.91163086 7.28697266 -4.65039062 8.08984375 C-7.03318416 10.5525968 -8.39747337 11.92766392 -11.86328125 12.34375 C-12.56839844 12.2303125 -13.27351562 12.116875 -14 12 C-14.33 13.32 -14.66 14.64 -15 16 C-15.99 15.34 -16.98 14.68 -18 14 C-16.40423801 12.49106184 -14.79810089 10.99308924 -13.1875 9.5 C-12.29417969 8.6646875 -11.40085938 7.829375 -10.48046875 6.96875 C-8 5 -8 5 -5 5 C-2.31232422 2.56249975 -2.31232422 2.56249975 0 0 Z " fill="#2B1B54" transform="translate(266,65)"/>
<path d="M0 0 C0.66 0.66 1.32 1.32 2 2 C1.52691406 2.37769531 1.05382812 2.75539063 0.56640625 3.14453125 C-4.72149749 7.5459638 -8.91408376 12.39924082 -13.1171875 17.83984375 C-14.04917969 18.90912109 -14.04917969 18.90912109 -15 20 C-15.66 20 -16.32 20 -17 20 C-17 19.34 -17 18.68 -17 18 C-16.34 18 -15.68 18 -15 18 C-14.62875 16.576875 -14.62875 16.576875 -14.25 15.125 C-13 12 -13 12 -10.875 10.625 C-10.25625 10.41875 -9.6375 10.2125 -9 10 C-9 9.34 -9 8.68 -9 8 C-8.34 8 -7.68 8 -7 8 C-7 7.34 -7 6.68 -7 6 C-5.46875 4.4921875 -5.46875 4.4921875 -3.5 2.875 C-2.8503125 2.33617187 -2.200625 1.79734375 -1.53125 1.2421875 C-0.77328125 0.62730469 -0.77328125 0.62730469 0 0 Z " fill="#291550" transform="translate(287,382)"/>
<path d="M0 0 C1.66666667 1 3.33333333 2 5 3 C5.886875 3.474375 6.77375 3.94875 7.6875 4.4375 C10.29118562 6.19674704 11.08815155 7.0157687 12 10 C12.0777346 12.33203812 12.08967728 14.66839059 12 17 C11.34 17 10.68 17 10 17 C9.690625 15.906875 9.38125 14.81375 9.0625 13.6875 C8.41662103 11.44592006 7.7376883 9.2130649 7 7 C4.03 6.505 4.03 6.505 1 6 C0.67 4.02 0.34 2.04 0 0 Z " fill="#9356D2" transform="translate(319,257)"/>
<path d="M0 0 C1.48307676 4.55011984 -0.0753872 7.81572035 -2 12 C-3.2611479 14.38733901 -4.60962996 16.6827166 -6 19 C-6.33 19.66 -6.66 20.32 -7 21 C-7.66 21 -8.32 21 -9 21 C-9.33 21.66 -9.66 22.32 -10 23 C-9.1841519 18.87387166 -7.21250245 15.78215702 -5.05859375 12.21875 C-3.71292538 9.80803312 -3.71292538 9.80803312 -4 6 C-3.34 5.34 -2.68 4.68 -2 4 C-2 3.34 -2 2.68 -2 2 C-1.34 2 -0.68 2 0 2 C0 1.34 0 0.68 0 0 Z " fill="#4D2E85" transform="translate(325,318)"/>
<path d="M0 0 C0 0.66 0 1.32 0 2 C-9.91860067 4.33378839 -18.78161497 5.42511001 -29 5 C-29 4.67 -29 4.34 -29 4 C-27.2984375 3.81824219 -27.2984375 3.81824219 -25.5625 3.6328125 C-24.04163488 3.46382749 -22.5208033 3.29454047 -21 3.125 C-19.88431641 3.00705078 -19.88431641 3.00705078 -18.74609375 2.88671875 C-14.97438066 2.46035118 -11.36136642 1.89586666 -7.6875 0.9296875 C-4 0 -4 0 0 0 Z " fill="#4B495D" transform="translate(202,281)"/>
<path d="M0 0 C0.79921875 0.01804688 1.5984375 0.03609375 2.421875 0.0546875 C3.02515625 0.07789063 3.6284375 0.10109375 4.25 0.125 C3.92 0.785 3.59 1.445 3.25 2.125 C2.26 1.795 1.27 1.465 0.25 1.125 C0.04375 1.723125 -0.1625 2.32125 -0.375 2.9375 C-2.29881498 5.99811475 -4.43750124 6.8000005 -7.75 8.125 C-9.07 8.125 -10.39 8.125 -11.75 8.125 C-8.42692308 4.18653846 -8.42692308 4.18653846 -5 3.875 C-4.2575 3.9575 -3.515 4.04 -2.75 4.125 C-2.75 3.465 -2.75 2.805 -2.75 2.125 C-4.73 2.125 -6.71 2.125 -8.75 2.125 C-5.68753253 0.34090198 -3.52920727 -0.10380021 0 0 Z " fill="#AF6FE9" transform="translate(296.75,252.875)"/>
<path d="M0 0 C0 3 0 3 -1.28515625 4.32421875 C-1.87167969 4.77410156 -2.45820313 5.22398437 -3.0625 5.6875 C-6.65722215 8.59542564 -9.56647453 11.81555865 -12.51953125 15.36328125 C-14 17 -14 17 -16 18 C-15.50545493 13.86701616 -14.60542047 12.16305085 -11.375 9.5625 C-10.66085938 8.9746875 -9.94671875 8.386875 -9.2109375 7.78125 C-8.48132813 7.1934375 -7.75171875 6.605625 -7 6 C-5.66307657 4.85835752 -4.32942796 3.71286216 -3 2.5625 C-2.01 1.716875 -1.02 0.87125 0 0 Z " fill="#5B5764" transform="translate(244,422)"/>
<path d="M0 0 C2.27700057 2.27700057 2.52101692 3.41313098 3.1875 6.5 C3.36667969 7.2940625 3.54585938 8.088125 3.73046875 8.90625 C4 11 4 11 3 13 C2.95977609 15.3329866 2.95679753 17.66706666 3 20 C2.67 20 2.34 20 2 20 C1.87882812 19.43152344 1.75765625 18.86304688 1.6328125 18.27734375 C1.38144531 17.11912109 1.38144531 17.11912109 1.125 15.9375 C0.85816406 14.70773438 0.85816406 14.70773438 0.5859375 13.453125 C0.07429618 11.31105332 -0.55166241 9.27344346 -1.25 7.1875 C-2 4 -2 4 -1.125 1.5625 C-0.75375 1.046875 -0.3825 0.53125 0 0 Z " fill="#2E346D" transform="translate(374,237)"/>
<path d="M0 0 C-0.33 1.32 -0.66 2.64 -1 4 C-6.64216972 5.64563284 -12.28684797 6.60682401 -18 5 C-18 4.67 -18 4.34 -18 4 C-15.5636811 3.32873871 -13.12611117 2.66283646 -10.6875 2 C-9.65206055 1.71382812 -9.65206055 1.71382812 -8.59570312 1.421875 C-5.64212051 0.62283816 -3.07440781 0 0 0 Z " fill="#42416C" transform="translate(264,226)"/>
<path d="M0 0 C2.625 -0.1875 2.625 -0.1875 5 0 C4.36610765 3.49844386 2.94822306 5.84086876 0.9375 8.75 C0.38964844 9.54921875 -0.15820312 10.3484375 -0.72265625 11.171875 C-1.14417969 11.77515625 -1.56570312 12.3784375 -2 13 C-3 10 -3 10 -3 8 C-2.34 7.67 -1.68 7.34 -1 7 C-1.20625 6.401875 -1.4125 5.80375 -1.625 5.1875 C-2 3 -2 3 0 0 Z " fill="#9558DC" transform="translate(188,137)"/>
<path d="M0 0 C0.88492145 2.47778006 1.11637742 3.66056586 0.25 6.1875 C-1 8 -1 8 -4 9 C-4 8.34 -4 7.68 -4 7 C-4.99 7.33 -5.98 7.66 -7 8 C-6.6875 5.125 -6.6875 5.125 -6 2 C-3 0 -3 0 0 0 Z " fill="#3C1F66" transform="translate(259,405)"/>
<path d="M0 0 C4.62 0 9.24 0 14 0 C11 4 11 4 8.08203125 4.609375 C6.46361328 4.67898437 6.46361328 4.67898437 4.8125 4.75 C3.72582031 4.80671875 2.63914063 4.8634375 1.51953125 4.921875 C0.68808594 4.94765625 -0.14335937 4.9734375 -1 5 C-0.67 3.35 -0.34 1.7 0 0 Z " fill="#9E68DB" transform="translate(201,240)"/>
<path d="M0 0 C0.66 0.33 1.32 0.66 2 1 C1 3 1 3 -1.5 3.875 C-2.325 4.24625 -3.15 4.6175 -4 5 C-4.33 6.32 -4.66 7.64 -5 9 C-8.96 9.99 -12.92 10.98 -17 12 C-13.60452641 8.60452641 -10.41207363 6.15209741 -6.375 3.6875 C-5.49714844 3.1296582 -5.49714844 3.1296582 -4.6015625 2.56054688 C-3.10691202 1.64010271 -1.55636473 0.81174279 0 0 Z " fill="#574179" transform="translate(234,79)"/>
<path d="M0 0 C3.74525799 3.74525799 3.68909949 7.98270909 4 13 C3.34 12.67 2.68 12.34 2 12 C2 11.34 2 10.68 2 10 C0.68 9.67 -0.64 9.34 -2 9 C-2.125 5.625 -2.125 5.625 -2 2 C-1.34 1.34 -0.68 0.68 0 0 Z " fill="#7F46BA" transform="translate(226,199)"/>
<path d="M0 0 C0.66 0.33 1.32 0.66 2 1 C-1.42938312 10.23295455 -1.42938312 10.23295455 -5.6875 12.3125 C-6.450625 12.539375 -7.21375 12.76625 -8 13 C-6.40956621 7.91061189 -3.2553049 4.12543357 0 0 Z " fill="#372270" transform="translate(209,120)"/>
<path d="M0 0 C0.99 0.33 1.98 0.66 3 1 C2.690625 1.5775 2.38125 2.155 2.0625 2.75 C1.07416636 4.84294184 0.4831387 6.74535275 0 9 C-1.98 9.33 -3.96 9.66 -6 10 C-5.49477778 5.62140745 -2.82172778 3.18348776 0 0 Z " fill="#382070" transform="translate(199,134)"/>
<path d="M0 0 C3.88862987 1.26117725 5.89375599 2.45264167 8 6 C8 6.66 8 7.32 8 8 C3.25 6.125 3.25 6.125 1 5 C1 5.66 1 6.32 1 7 C0.01 7 -0.98 7 -2 7 C-2 6.01 -2 5.02 -2 4 C-1.34 4 -0.68 4 0 4 C0 2.68 0 1.36 0 0 Z " fill="#3E497F" transform="translate(355,216)"/>
<path d="M0 0 C1.0730756 3.2192268 0.79946725 3.90206442 0 7 C0.33 7.66 0.66 8.32 1 9 C0.34 9.66 -0.32 10.32 -1 11 C-1.33 10.67 -1.66 10.34 -2 10 C-2.66 11.65 -3.32 13.3 -4 15 C-4.99 15 -5.98 15 -7 15 C-7 13.35 -7 11.7 -7 10 C-6.34 9.67 -5.68 9.34 -5 9 C-5 8.34 -5 7.68 -5 7 C-4 6 -3 5 -2 4 C-0.82425289 1.90010348 -0.82425289 1.90010348 0 0 Z " fill="#202556" transform="translate(368,305)"/>
<path d="M0 0 C0.99 0 1.98 0 3 0 C2.67 0.99 2.34 1.98 2 3 C1.67 2.67 1.34 2.34 1 2 C-0.32 8.27 -1.64 14.54 -3 21 C-3.33 21 -3.66 21 -4 21 C-4.33 18.03 -4.66 15.06 -5 12 C-4.67 12 -4.34 12 -4 12 C-4.0825 11.13375 -4.165 10.2675 -4.25 9.375 C-3.9397248 5.18628475 -2.6653235 3.1983882 0 0 Z " fill="#2D2059" transform="translate(224,130)"/>
<path d="M0 0 C1.4540625 0.0309375 1.4540625 0.0309375 2.9375 0.0625 C-0.20535714 7.49107143 -0.20535714 7.49107143 -2.0625 11.0625 C-3.3825 10.7325 -4.7025 10.4025 -6.0625 10.0625 C-5.546875 9.134375 -5.03125 8.20625 -4.5 7.25 C-2.66153754 4.13492053 -2.66153754 4.13492053 -4.0625 1.0625 C-3.0625 0.0625 -3.0625 0.0625 0 0 Z " fill="#AC7CF0" transform="translate(215.0625,94.9375)"/>
<path d="M0 0 C0.75 1.75 0.75 1.75 1 4 C-0.8125 6 -0.8125 6 -3 8 C-4.23512079 10.13309192 -4.23512079 10.13309192 -5 12 C-6.32 11.01 -7.64 10.02 -9 9 C-5.38671875 4.3125 -5.38671875 4.3125 -4 3 C-3.01 3 -2.02 3 -1 3 C-0.67 2.01 -0.34 1.02 0 0 Z " fill="#875CC6" transform="translate(162,140)"/>
<path d="M0 0 C0.66 0.33 1.32 0.66 2 1 C1.01 2.485 1.01 2.485 0 4 C-0.66 4 -1.32 4 -2 4 C-2 4.66 -2 5.32 -2 6 C-2.99 6 -3.98 6 -5 6 C-5 6.66 -5 7.32 -5 8 C-6.6396721 9.36639342 -8.31110128 10.6949419 -10 12 C-11.35147138 13.31494512 -12.69112542 14.64264858 -14 16 C-12.68326091 10.33802191 -10.59410737 8.25415939 -6 5 C-5.34 5 -4.68 5 -4 5 C-4 4.34 -4 3.68 -4 3 C-2 1.375 -2 1.375 0 0 Z " fill="#341B5C" transform="translate(272,396)"/>
<path d="M0 0 C0.99 0.33 1.98 0.66 3 1 C2.0479279 2.00596297 1.08812654 3.00461563 0.125 4 C-0.40867187 4.556875 -0.94234375 5.11375 -1.4921875 5.6875 C-3 7 -3 7 -5 7 C-5.268125 7.5775 -5.53625 8.155 -5.8125 8.75 C-7.01719859 11.0325868 -8.40798115 12.9737942 -10 15 C-10.99 14.67 -11.98 14.34 -13 14 C-12.29875 13.319375 -11.5975 12.63875 -10.875 11.9375 C-8.15381461 9.23957261 -5.73904225 6.33406548 -3.33203125 3.35546875 C-2.89246094 2.90816406 -2.45289063 2.46085937 -2 2 C-1.34 2 -0.68 2 0 2 C0 1.34 0 0.68 0 0 Z " fill="#25134B" transform="translate(267,402)"/>
<path d="M0 0 C-1 3 -2 6 -3 9 C-3.99 9 -4.98 9 -6 9 C-6.99 9.66 -7.98 10.32 -9 11 C-8.8615024 8.02230154 -8.68881566 5.78173508 -6.66796875 3.48828125 C-2.55999284 0 -2.55999284 0 0 0 Z " fill="#1F1F44" transform="translate(345,348)"/>
<path d="M0 0 C0 0.66 0 1.32 0 2 C-2.35270593 3.17635297 -3.820752 3.13359359 -6.4375 3.125 C-7.61119141 3.12886719 -7.61119141 3.12886719 -8.80859375 3.1328125 C-11 3 -11 3 -14 2 C-14 1.34 -14 0.68 -14 0 C-8.97874074 -0.77916092 -5.02296004 -1.13016601 0 0 Z " fill="#414C8F" transform="translate(350,213)"/>
<path d="M0 0 C0.625 1.8125 0.625 1.8125 1 4 C0.01 5.485 0.01 5.485 -1 7 C-1.66 7 -2.32 7 -3 7 C-3 7.99 -3 8.98 -3 10 C-3.99 10.33 -4.98 10.66 -6 11 C-5.67 8.03 -5.34 5.06 -5 2 C-3.35 1.34 -1.7 0.68 0 0 Z " fill="#301F65" transform="translate(230,112)"/>
<path d="M0 0 C1.68551848 4.12254203 0.28358669 7.89803489 -0.8125 12 C-0.99103516 12.7115625 -1.16957031 13.423125 -1.35351562 14.15625 C-2.25341223 17.63888236 -3.20002446 20.87244069 -5 24 C-6.25502619 20.23492144 -5.51200346 19.58236114 -4 16 C-3.2126574 13.24854153 -2.54620755 10.46928242 -1.875 7.6875 C-1.69324219 6.94693359 -1.51148438 6.20636719 -1.32421875 5.44335938 C-0.8795787 3.629696 -0.43934255 1.81495392 0 0 Z " fill="#643BA0" transform="translate(332,294)"/>
<path d="M0 0 C0.66 0.33 1.32 0.66 2 1 C2 6.28 2 11.56 2 17 C1.34 17.33 0.68 17.66 0 18 C-0.83288874 11.74692761 -1.03863773 6.23182639 0 0 Z " fill="#6C41AE" transform="translate(332,276)"/>
<path d="M0 0 C1.23602988 2.03581391 2.04141677 3.39945683 1.875 5.8125 C0.2246432 9.938392 -1.84031096 13.84031096 -5 17 C-4.34 13.7 -3.68 10.4 -3 7 C-2.34 7 -1.68 7 -1 7 C-0.67 4.69 -0.34 2.38 0 0 Z " fill="#46326D" transform="translate(278,355)"/>
<path d="M0 0 C1.47960779 2.95921558 0.71404361 4.78680376 0 8 C-0.91980299 10.70587546 -1.94577727 13.34152528 -3 16 C-4.03139845 12.24570964 -4.21296253 8.904313 -4 5 C-2 2 -2 2 0 0 Z " fill="#7541BA" transform="translate(172,172)"/>
<path d="M0 0 C-0.33 2.31 -0.66 4.62 -1 7 C-2.65 6.67 -4.3 6.34 -6 6 C-3.84615385 0 -3.84615385 0 0 0 Z M-8 6 C-7.34 6 -6.68 6 -6 6 C-6.33 6.99 -6.66 7.98 -7 9 C-7.33 8.01 -7.66 7.02 -8 6 Z " fill="#392274" transform="translate(191,152)"/>
<path d="M0 0 C-3.465 2.97 -3.465 2.97 -7 6 C-8.32 5.34 -9.64 4.68 -11 4 C-11 3.34 -11 2.68 -11 2 C-9.73392393 1.46770674 -8.46189588 0.94955456 -7.1875 0.4375 C-6.47980469 0.14746094 -5.77210938 -0.14257812 -5.04296875 -0.44140625 C-3 -1 -3 -1 0 0 Z " fill="#A982E9" transform="translate(228,89)"/>
<path d="M0 0 C0.33 0 0.66 0 1 0 C1.02698422 2.43757413 1.04683099 4.87484915 1.0625 7.3125 C1.07087891 8.00279297 1.07925781 8.69308594 1.08789062 9.40429688 C1.10307906 12.5483025 1.00193327 14.99420019 0 18 C-0.66 18 -1.32 18 -2 18 C-2.33 18.66 -2.66 19.32 -3 20 C-2.86722656 19.2265625 -2.73445313 18.453125 -2.59765625 17.65625 C-1.60135293 11.78024213 -0.68315535 5.92067973 0 0 Z " fill="#2E2243" transform="translate(277,344)"/>
<path d="M0 0 C-0.33 0.66 -0.66 1.32 -1 2 C-7.00400944 3.09163808 -12.91221201 3.11227478 -19 3 C-19 2.67 -19 2.34 -19 2 C-18.39671875 1.95101563 -17.7934375 1.90203125 -17.171875 1.8515625 C-16.37265625 1.77679688 -15.5734375 1.70203125 -14.75 1.625 C-13.56664062 1.52058594 -13.56664062 1.52058594 -12.359375 1.4140625 C-9.97059254 1.11302594 -9.97059254 1.11302594 -7.90625 -0.0625 C-5.09703139 -1.44408292 -2.96824342 -0.67460078 0 0 Z " fill="#292547" transform="translate(191,282)"/>
<path d="M0 0 C0.66 0.33 1.32 0.66 2 1 C1 3.9375 1 3.9375 -1 7 C-3.75878925 7.86518243 -6.06992426 7.90393194 -9 8 C-6.14723863 5.06799526 -3.34920216 2.35684596 0 0 Z " fill="#684F8F" transform="translate(208,96)"/>
<path d="M0 0 C0.33 0.99 0.66 1.98 1 3 C-0.1875 5.3125 -0.1875 5.3125 -2 8 C-2.721875 9.093125 -3.44375 10.18625 -4.1875 11.3125 C-4.785625 12.199375 -5.38375 13.08625 -6 14 C-6.6875 12.3125 -6.6875 12.3125 -7 10 C-5.75 7.3125 -5.75 7.3125 -4 5 C-3.01 4.67 -2.02 4.34 -1 4 C-0.26676204 1.98491642 -0.26676204 1.98491642 0 0 Z " fill="#4D2A80" transform="translate(314,341)"/>
<path d="M0 0 C0.33 0.66 0.66 1.32 1 2 C1.99 2.33 2.98 2.66 4 3 C4 8.61 4 14.22 4 20 C3.67 20 3.34 20 3 20 C2.49685437 17.22970414 1.99736162 14.4588348 1.5 11.6875 C1.35691406 10.90181641 1.21382813 10.11613281 1.06640625 9.30664062 C0.93105469 8.54931641 0.79570312 7.79199219 0.65625 7.01171875 C0.53056641 6.31522217 0.40488281 5.61872559 0.27539062 4.90112305 C0 3 0 3 0 0 Z " fill="#412A5E" transform="translate(274,301)"/>
<path d="M0 0 C3.4375 -0.4375 3.4375 -0.4375 7 0 C8.9375 2 8.9375 2 10 4 C5.83861737 4.08159574 2.0527516 3.98248524 -2 3 C-1.34 2.01 -0.68 1.02 0 0 Z " fill="#2A2648" transform="translate(151,281)"/>
<path d="M0 0 C1.73169596 3.1622274 2.7128976 6.26742722 3.625 9.75 C3.88539063 10.73484375 4.14578125 11.7196875 4.4140625 12.734375 C4.60742188 13.48203125 4.80078125 14.2296875 5 15 C4.34 14.67 3.68 14.34 3 14 C3 13.01 3 12.02 3 11 C2.34 11 1.68 11 1 11 C-0.59555725 7.50971852 -1.32049797 4.84597567 -1 1 C-0.67 0.67 -0.34 0.34 0 0 Z " fill="#553D76" transform="translate(224,188)"/>
<path d="M0 0 C1.32 1.32 2.64 2.64 4 4 C0.55549263 6.29633824 -1.93812283 6.54016485 -6 7 C-4.68 5.68 -3.36 4.36 -2 3 C-2.33 2.34 -2.66 1.68 -3 1 C-2.01 0.67 -1.02 0.34 0 0 Z " fill="#A06CDB" transform="translate(242,227)"/>
<path d="M0 0 C0.12375 0.61875 0.2475 1.2375 0.375 1.875 C0.87197356 4.19120832 0.87197356 4.19120832 3 6 C0.63707344 8.52588702 -0.66462511 9.88820837 -4 11 C-3.39301257 6.87248551 -1.96189209 3.6678852 0 0 Z " fill="#3C2D66" transform="translate(134,176)"/>
<path d="M0 0 C-1.485 2.475 -1.485 2.475 -3 5 C-4.32 4.67 -5.64 4.34 -7 4 C-6.625 2.0625 -6.625 2.0625 -6 0 C-3.50907189 -1.24546405 -2.58919267 -0.7767578 0 0 Z " fill="#1F1B41" transform="translate(306,386)"/>
<path d="M0 0 C1 3 1 3 0.07421875 5.4453125 C-0.38339844 6.32960938 -0.84101563 7.21390625 -1.3125 8.125 C-1.98732422 9.45917969 -1.98732422 9.45917969 -2.67578125 10.8203125 C-4 13 -4 13 -6 14 C-5.71517632 12.58194169 -5.42181856 11.16559621 -5.125 9.75 C-4.96257812 8.96109375 -4.80015625 8.1721875 -4.6328125 7.359375 C-4.00106448 5.00396882 -3.24959008 3.09190636 -2 1 C-1.34 0.67 -0.68 0.34 0 0 Z " fill="#2F2366" transform="translate(333,307)"/>
<path d="M0 0 C2.5 0.9375 2.5 0.9375 5 3 C5.45787911 6.03816258 5.28780586 8.94925785 5 12 C3.20931427 9.3139714 2.33944209 7.3373411 1.375 4.3125 C1.11460937 3.50425781 0.85421875 2.69601562 0.5859375 1.86328125 C0.39257812 1.24839844 0.19921875 0.63351562 0 0 Z " fill="#5E397A" transform="translate(269,289)"/>
<path d="M0 0 C2.4375 1.25 2.4375 1.25 5 3 C5.625 5.125 5.625 5.125 6 7 C6.99 7.33 7.98 7.66 9 8 C8.67 9.65 8.34 11.3 8 13 C0 3.28571429 0 3.28571429 0 0 Z " fill="#523768" transform="translate(261,276)"/>
<path d="M0 0 C1.53656962 2.4404341 2.02089707 3.70744102 1.8125 6.625 C1 9 1 9 -2 11 C-2.33 8.36 -2.66 5.72 -3 3 C-2.01 2.67 -1.02 2.34 0 2 C0 1.34 0 0.68 0 0 Z " fill="#594092" transform="translate(133,184)"/>
<path d="M0 0 C1.35055201 2.70110402 1 5.00789006 1 8 C-1.5 10.6875 -1.5 10.6875 -4 13 C-3.71682074 11.39431334 -3.42312209 9.79047953 -3.125 8.1875 C-2.96257812 7.29417969 -2.80015625 6.40085938 -2.6328125 5.48046875 C-2 3 -2 3 0 0 Z " fill="#473579" transform="translate(138,169)"/>
<path d="M0 0 C2.31 0.33 4.62 0.66 7 1 C6.34 1.66 5.68 2.32 5 3 C5.33 3.66 5.66 4.32 6 5 C4.02 5.33 2.04 5.66 0 6 C-0.66 5.01 -1.32 4.02 -2 3 C-1.34 2.01 -0.68 1.02 0 0 Z " fill="#2E2A4D" transform="translate(214,273)"/>
<path d="M0 0 C2.94721162 2.74395564 5.19168608 5.38337216 7 9 C6.67 9.66 6.34 10.32 6 11 C5.01 11 4.02 11 3 11 C0 4.5 0 4.5 0 0 Z " fill="#343963" transform="translate(367,225)"/>
<path d="M0 0 C0.66 0 1.32 0 2 0 C1.67 2.64 1.34 5.28 1 8 C-1.64 8 -4.28 8 -7 8 C-6.38125 7.7525 -5.7625 7.505 -5.125 7.25 C-2.6170261 5.77472123 -2.07707051 4.65125048 -1 2 C-0.67 1.34 -0.34 0.68 0 0 Z " fill="#975EE1" transform="translate(174,128)"/>
<path d="M0 0 C0 3.53922552 -0.70481438 4.31891897 -2.8125 7.0625 C-3.33457031 7.75472656 -3.85664063 8.44695312 -4.39453125 9.16015625 C-6 11 -6 11 -9 13 C-7.79135813 9.56001929 -6.61442808 7.50075729 -4 5 C-3.67 4.01 -3.34 3.02 -3 2 C-2.01 1.34 -1.02 0.68 0 0 Z " fill="#311E5F" transform="translate(317,342)"/>
<path d="M0 0 C2.39763185 2.39763185 2.34280586 3.33273498 2.625 6.625 C2.69976562 7.44226563 2.77453125 8.25953125 2.8515625 9.1015625 C2.90054687 9.72804688 2.94953125 10.35453125 3 11 C2.01 11.33 1.02 11.66 0 12 C-0.19477739 10.37585622 -0.38059458 8.75063577 -0.5625 7.125 C-0.66691406 6.22007812 -0.77132813 5.31515625 -0.87890625 4.3828125 C-1 2 -1 2 0 0 Z " fill="#6E469B" transform="translate(278,306)"/>
<path d="M0 0 C-3.76706948 3.76706948 -5.54662512 5.28869023 -11 6 C-10.34 5.67 -9.68 5.34 -9 5 C-8.835 4.34 -8.67 3.68 -8.5 3 C-8.335 2.34 -8.17 1.68 -8 1 C-5.29120665 -0.35439668 -2.99066732 -0.06501451 0 0 Z " fill="#343255" transform="translate(252,264)"/>
<path d="M0 0 C2.97 0.33 5.94 0.66 9 1 C9 2.32 9 3.64 9 5 C5.7 4.01 2.4 3.02 -1 2 C-0.67 1.34 -0.34 0.68 0 0 Z " fill="#43388E" transform="translate(313,251)"/>
<path d="M0 0 C0.33 0.99 0.66 1.98 1 3 C1.99 3 2.98 3 4 3 C4.625 5.3125 4.625 5.3125 5 8 C4.01 9.485 4.01 9.485 3 11 C2.566875 9.2984375 2.566875 9.2984375 2.125 7.5625 C1.75375 6.386875 1.3825 5.21125 1 4 C0.34 3.67 -0.32 3.34 -1 3 C-0.67 2.01 -0.34 1.02 0 0 Z " fill="#613B92" transform="translate(219,181)"/>
<path d="M0 0 C0.85276722 2.41707906 1.12087895 3.64003451 0.29296875 6.10546875 C-0.25423828 7.13607422 -0.25423828 7.13607422 -0.8125 8.1875 C-1.34810547 9.22970703 -1.34810547 9.22970703 -1.89453125 10.29296875 C-3 12 -3 12 -5 13 C-3.25740319 3.40546697 -3.25740319 3.40546697 0 0 Z " fill="#443C5E" transform="translate(234,107)"/>
<path d="M0 0 C0.33 0.66 0.66 1.32 1 2 C0.00390625 4.3828125 0.00390625 4.3828125 -1.4375 7.125 C-1.91058594 8.03507812 -2.38367188 8.94515625 -2.87109375 9.8828125 C-3.24363281 10.58148438 -3.61617188 11.28015625 -4 12 C-4.99 11.67 -5.98 11.34 -7 11 C-7 10.34 -7 9.68 -7 9 C-6.01 9 -5.02 9 -4 9 C-3.896875 8.2575 -3.79375 7.515 -3.6875 6.75 C-2.95746496 3.82985982 -1.93210602 2.26812446 0 0 Z " fill="#1D2252" transform="translate(360,323)"/>
<path d="M0 0 C0.99 0.33 1.98 0.66 3 1 C4.125 3.9375 4.125 3.9375 5 7 C5.33 7.66 5.66 8.32 6 9 C1.79373966 7.49776416 0.26099979 4.71449966 -2 1 C-1.34 0.67 -0.68 0.34 0 0 Z " fill="#222234" transform="translate(130,269)"/>
<path d="M0 0 C0.99 0 1.98 0 3 0 C3 3.3 3 6.6 3 10 C2.34 10 1.68 10 1 10 C0.63883954 8.5225254 0.28624952 7.04295325 -0.0625 5.5625 C-0.25972656 4.73878906 -0.45695312 3.91507812 -0.66015625 3.06640625 C-0.82837891 2.04353516 -0.82837891 2.04353516 -1 1 C-0.67 0.67 -0.34 0.34 0 0 Z " fill="#A96FE2" transform="translate(259,262)"/>
<path d="M0 0 C0.99 0.33 1.98 0.66 3 1 C3 3.97 3 6.94 3 10 C2.01 9.67 1.02 9.34 0 9 C-0.84454356 5.62182575 -1.10844919 3.32534757 0 0 Z " fill="#2D2E4C" transform="translate(124,255)"/>
<path d="M0 0 C0.99 0.33 1.98 0.66 3 1 C1.40377344 2.03320481 -0.20229106 3.05122429 -1.8125 4.0625 C-3.15248047 4.91521484 -3.15248047 4.91521484 -4.51953125 5.78515625 C-7 7 -7 7 -10 6 C-9.67 5.01 -9.34 4.02 -9 3 C-8.34 3.33 -7.68 3.66 -7 4 C-3.23346633 2.41900366 -3.23346633 2.41900366 0 0 Z " fill="#0D0D12" transform="translate(236,435)"/>
<path d="M0 0 C0 0.99 0 1.98 0 3 C-1.64453125 4.421875 -1.64453125 4.421875 -3.8125 5.75 C-4.52019531 6.19859375 -5.22789062 6.6471875 -5.95703125 7.109375 C-8 8 -8 8 -11 7 C-7.37 4.69 -3.74 2.38 0 0 Z " fill="#3C3547" transform="translate(265,416)"/>
<path d="M0 0 C1.21236328 0.04060547 1.21236328 0.04060547 2.44921875 0.08203125 C3.06410156 0.11683594 3.67898438 0.15164062 4.3125 0.1875 C-0.10630243 3.13336829 -2.36517339 3.2860616 -7.6875 3.1875 C-5.26849268 0.20484049 -3.789448 -0.16475861 0 0 Z " fill="#B37CEB" transform="translate(286.6875,254.8125)"/>
<path d="M0 0 C2.0625 0.4375 2.0625 0.4375 4 1 C3.8125 2.875 3.8125 2.875 3 5 C0.4375 6.25 0.4375 6.25 -2 7 C-1.125 1.125 -1.125 1.125 0 0 Z " fill="#432382" transform="translate(180,162)"/>
<path d="M0 0 C-1.45449401 1.0055761 -2.91372443 2.00430435 -4.375 3 C-5.59316406 3.8353125 -5.59316406 3.8353125 -6.8359375 4.6875 C-9 6 -9 6 -11 6 C-10.74609375 4.11328125 -10.74609375 4.11328125 -10 2 C-8.22265625 0.91796875 -8.22265625 0.91796875 -6.0625 0.1875 C-5.35222656 -0.06644531 -4.64195312 -0.32039063 -3.91015625 -0.58203125 C-2 -1 -2 -1 0 0 Z " fill="#8275A3" transform="translate(272,60)"/>
<path d="M0 0 C0 3 0 3 -1.75 4.82421875 C-2.4925 5.43910156 -3.235 6.05398438 -4 6.6875 C-4.7425 7.31011719 -5.485 7.93273437 -6.25 8.57421875 C-6.8275 9.04472656 -7.405 9.51523437 -8 10 C-8.66 9.67 -9.32 9.34 -10 9 C-6.7 6.03 -3.4 3.06 0 0 Z " fill="#504461" transform="translate(244,422)"/>
<path d="M0 0 C1.32 0 2.64 0 4 0 C3.375 1.9375 3.375 1.9375 2 4 C-1.125 4.75 -1.125 4.75 -4 5 C-4.33 4.34 -4.66 3.68 -5 3 C-4.360625 2.87625 -3.72125 2.7525 -3.0625 2.625 C-2.0415625 2.315625 -2.0415625 2.315625 -1 2 C-0.67 1.34 -0.34 0.68 0 0 Z " fill="#392C77" transform="translate(224,240)"/>
<path d="M0 0 C0.66 1.32 1.32 2.64 2 4 C-2.455 4.495 -2.455 4.495 -7 5 C-2.25 0 -2.25 0 0 0 Z " fill="#674B8A" transform="translate(217,91)"/>
<path d="M0 0 C1.32 0.66 2.64 1.32 4 2 C-2.625 6 -2.625 6 -6 6 C-6 5.34 -6 4.68 -6 4 C-5.01 3.67 -4.02 3.34 -3 3 C-1.33289654 1.50014391 -1.33289654 1.50014391 0 0 Z " fill="#180F32" transform="translate(255,419)"/>
<path d="M0 0 C0.66 0.99 1.32 1.98 2 3 C0.04783565 4.95216435 -1.53199953 5.84826645 -4 7 C-4 5.35 -4 3.7 -4 2 C-2.68 1.34 -1.36 0.68 0 0 Z " fill="#42296A" transform="translate(267,390)"/>
<path d="M0 0 C1.5 1.125 1.5 1.125 3 3 C3.1875 6.1875 3.1875 6.1875 3 9 C2.34 9 1.68 9 1 9 C-0.4783226 6.04335481 -0.06032783 3.25770263 0 0 Z " fill="#7B4AAC" transform="translate(274,294)"/>
<path d="M0 0 C2 2 2 2 2.3125 4.875 C2 8 2 8 -1 12 C-0.67 8.04 -0.34 4.08 0 0 Z " fill="#3F446E" transform="translate(376,275)"/>
<path d="M0 0 C0.515625 0.37125 1.03125 0.7425 1.5625 1.125 C-0.17706658 2.86456658 -2.6311622 2.49690386 -5 2.6875 C-6.51787109 2.81318359 -6.51787109 2.81318359 -8.06640625 2.94140625 C-8.84886719 3.00199219 -9.63132813 3.06257812 -10.4375 3.125 C-9.4375 1.125 -9.4375 1.125 -6.125 -0.125 C-2.4375 -0.875 -2.4375 -0.875 0 0 Z " fill="#9557D5" transform="translate(198.4375,240.875)"/>
<path d="M0 0 C0.66 0.99 1.32 1.98 2 3 C-0.97 5.475 -0.97 5.475 -4 8 C-3.6875 5.125 -3.6875 5.125 -3 2 C-2.01 1.34 -1.02 0.68 0 0 Z " fill="#4B3569" transform="translate(256,405)"/>
<path d="M0 0 C3.317124 4.422832 3.30466674 5.71910976 3 11 C2.34 11 1.68 11 1 11 C0.67 7.37 0.34 3.74 0 0 Z " fill="#7E4FC2" transform="translate(328,263)"/>
<path d="M0 0 C0.33 0 0.66 0 1 0 C1.66 3.63 2.32 7.26 3 11 C2.01 10.67 1.02 10.34 0 10 C-0.74926071 6.33694766 -1.2380014 3.57644848 0 0 Z " fill="#653BA2" transform="translate(169,226)"/>
<path d="M0 0 C0.33 0 0.66 0 1 0 C2.45184478 4.53701494 3.23509196 8.18061476 3 13 C0.95204577 11.0373772 0.05023362 9.5722693 -0.19921875 6.73046875 C-0.18858877 4.48045617 -0.12958525 2.24614438 0 0 Z " fill="#5D3697" transform="translate(165,216)"/>
<path d="M0 0 C0.33 0 0.66 0 1 0 C1.66 2.64 2.32 5.28 3 8 C1.68 8 0.36 8 -1 8 C-1.33 6.35 -1.66 4.7 -2 3 C-1.34 3 -0.68 3 0 3 C0 2.01 0 1.02 0 0 Z " fill="#2F3B9B" transform="translate(362,224)"/>
<path d="M0 0 C0.66 0.33 1.32 0.66 2 1 C2 1.99 2 2.98 2 4 C-2.455 5.485 -2.455 5.485 -7 7 C-4.66666667 4.66666667 -2.33333333 2.33333333 0 0 Z " fill="#503A72" transform="translate(197,104)"/>
<path d="M0 0 C0.66 0.33 1.32 0.66 2 1 C2 1.66 2 2.32 2 3 C2.31478446 4.33783393 2.64587656 5.67203709 3 7 C1.68 6.67 0.36 6.34 -1 6 C-1.33 4.35 -1.66 2.7 -2 1 C-1.34 0.67 -0.68 0.34 0 0 Z " fill="#7140B3" transform="translate(173,232)"/>
<path d="M0 0 C0.99 0.33 1.98 0.66 3 1 C3 1.66 3 2.32 3 3 C1.7934375 3.4021875 1.7934375 3.4021875 0.5625 3.8125 C-0.283125 4.204375 -1.12875 4.59625 -2 5 C-2.33 5.99 -2.66 6.98 -3 8 C-3.33 7.34 -3.66 6.68 -4 6 C-2.68 4.02 -1.36 2.04 0 0 Z " fill="#7457A6" transform="translate(145,160)"/>
<path d="M0 0 C1.32 0.66 2.64 1.32 4 2 C2.35 3.32 0.7 4.64 -1 6 C-1.625 4.125 -1.625 4.125 -2 2 C-1.34 1.34 -0.68 0.68 0 0 Z " fill="#331D6A" transform="translate(228,99)"/>
<path d="M0 0 C1.32 0 2.64 0 4 0 C4 0.99 4 1.98 4 3 C1.69 3.66 -0.62 4.32 -3 5 C-2.67 3.68 -2.34 2.36 -2 1 C-1.34 1.33 -0.68 1.66 0 2 C0 1.34 0 0.68 0 0 Z " fill="#A374E9" transform="translate(249,73)"/>
<path d="M0 0 C0.66 0.33 1.32 0.66 2 1 C0.63016497 4.16115776 0.0109362 4.9927092 -3 7 C-3 4 -3 4 -2 1 C-1.34 0.67 -0.68 0.34 0 0 Z " fill="#1D1D3D" transform="translate(324,368)"/>
<path d="M0 0 C0.33 0.99 0.66 1.98 1 3 C-0.28965176 4.37562854 -1.62689293 5.70766393 -3 7 C-3.66 7 -4.32 7 -5 7 C-5 6.01 -5 5.02 -5 4 C-2.5 1.8125 -2.5 1.8125 0 0 Z " fill="#313449" transform="translate(340,355)"/>
<path d="M0 0 C0.33 0 0.66 0 1 0 C0.51171875 6.0546875 0.51171875 6.0546875 0 8 C-0.99 8.66 -1.98 9.32 -3 10 C-2.39009109 6.44219804 -1.4216319 3.3171411 0 0 Z " fill="#3A3E60" transform="translate(370,303)"/>
<path d="M0 0 C1.875 0.25 1.875 0.25 4 1 C5.25 3.0625 5.25 3.0625 6 5 C3 5 3 5 0 3 C0 2.01 0 1.02 0 0 Z " fill="#8F52BA" transform="translate(269,286)"/>
<path d="M0 0 C0.99 0 1.98 0 3 0 C4.75 2.375 4.75 2.375 6 5 C5.67 5.66 5.34 6.32 5 7 C4.67 6.01 4.34 5.02 4 4 C1.98491642 3.26676204 1.98491642 3.26676204 0 3 C0 2.01 0 1.02 0 0 Z " fill="#9859C7" transform="translate(266,280)"/>
<path d="M0 0 C0 0.66 0 1.32 0 2 C-3.47325181 3.1577506 -6.36067448 3.06866652 -10 3 C-6.26223701 0.50815801 -4.5227786 0 0 0 Z " fill="#9F75D9" transform="translate(272,259)"/>
<path d="M0 0 C0.66 0.33 1.32 0.66 2 1 C1.67 1.66 1.34 2.32 1 3 C1.66 3 2.32 3 3 3 C3 3.66 3 4.32 3 5 C2.34 5 1.68 5 1 5 C1 5.66 1 6.32 1 7 C0.01 7 -0.98 7 -2 7 C-2 6.01 -2 5.02 -2 4 C-1.34 4 -0.68 4 0 4 C0 2.68 0 1.36 0 0 Z " fill="#32408C" transform="translate(355,216)"/>
<path d="M0 0 C0.99 0.33 1.98 0.66 3 1 C2.67 2.32 2.34 3.64 2 5 C0.68 4.67 -0.64 4.34 -2 4 C-1.34 2.68 -0.68 1.36 0 0 Z " fill="#6841B0" transform="translate(141,171)"/>
<path d="M0 0 C0.66 0 1.32 0 2 0 C3 3 3 3 1.5625 6.1875 C0.7890625 7.5796875 0.7890625 7.5796875 0 9 C-1.15941038 5.52176885 -0.70820884 3.54104422 0 0 Z " fill="#8655CC" transform="translate(173,168)"/>
<path d="M0 0 C1.32 0.66 2.64 1.32 4 2 C3.01 2.495 3.01 2.495 2 3 C1.34786708 5.02463255 1.34786708 5.02463255 1 7 C0.34 7 -0.32 7 -1 7 C-0.7525 6.1028125 -0.7525 6.1028125 -0.5 5.1875 C0.1114124 2.88655664 0.1114124 2.88655664 0 0 Z " fill="#A573EC" transform="translate(201,121)"/>
<path d="M0 0 C0.33 0.99 0.66 1.98 1 3 C-0.8125 4.5625 -0.8125 4.5625 -3 6 C-3.99 5.67 -4.98 5.34 -6 5 C-4.02 3.35 -2.04 1.7 0 0 Z " fill="#A781D9" transform="translate(185,116)"/>
<path d="M0 0 C1.125 3.75 1.125 3.75 0 6 C-0.66 6 -1.32 6 -2 6 C-2 5.34 -2 4.68 -2 4 C-2.66 3.67 -3.32 3.34 -4 3 C-3 1 -3 1 0 0 Z " fill="#2B1D57" transform="translate(230,112)"/>
<path d="M0 0 C1.32 0 2.64 0 4 0 C3.25 2.4375 3.25 2.4375 2 5 C-0.125 5.8125 -0.125 5.8125 -2 6 C-1.34 4.02 -0.68 2.04 0 0 Z " fill="#2D234F" transform="translate(234,104)"/>
<path d="M0 0 C-0.33 1.32 -0.66 2.64 -1 4 C-3.31 4.33 -5.62 4.66 -8 5 C-3.16129032 0 -3.16129032 0 0 0 Z " fill="#543A74" transform="translate(247,72)"/>
<path d="M0 0 C0.6875 1.625 0.6875 1.625 1 4 C-0.4375 7.25 -0.4375 7.25 -2 10 C-2.66 8.68 -3.32 7.36 -4 6 C-3.34 5.34 -2.68 4.68 -2 4 C-2 3.34 -2 2.68 -2 2 C-1.34 2 -0.68 2 0 2 C0 1.34 0 0.68 0 0 Z " fill="#5A3694" transform="translate(325,318)"/>
<path d="M0 0 C1.41377341 2.63904371 2.37240135 5.07120629 3 8 C0.525 7.01 0.525 7.01 -2 6 C-2 5.01 -2 4.02 -2 3 C-1.34 3 -0.68 3 0 3 C0 2.01 0 1.02 0 0 Z " fill="#8A4CC4" transform="translate(231,210)"/>
<path d="M0 0 C2.17766075 4.35532149 2.03039555 5.46625958 1 10 C0.34 9.67 -0.32 9.34 -1 9 C-0.67 6.03 -0.34 3.06 0 0 Z " fill="#3A2F5B" transform="translate(124,202)"/>
</svg>
