<?xml version="1.0" encoding="UTF-8"?>
<svg version="1.1" xmlns="http://www.w3.org/2000/svg" width="499" height="499">
<path d="M0 0 C0.99 0.33 1.98 0.66 3 1 C-0.05467759 4.74198004 -2.99725589 8.08161606 -6.75 11.125 C-11.49209776 15.13754426 -15.01895615 19.95552381 -18.703125 24.9140625 C-20.13291183 26.8350346 -21.59881231 28.73028587 -23.1171875 30.58203125 C-28.97471339 38.10445558 -32.85110596 47.45609109 -37 56 C-37.39445312 56.80566406 -37.78890625 57.61132812 -38.1953125 58.44140625 C-40.25304714 62.8236189 -41.62846609 66.9970969 -42.5078125 71.76171875 C-43 74 -43 74 -43.953125 76.6796875 C-49.03636244 92.80189578 -49.33804071 110.56478567 -46 127 C-45.7834375 128.29357422 -45.7834375 128.29357422 -45.5625 129.61328125 C-43.79990135 139.732486 -39.57343828 149.12935139 -34.25 157.875 C-33 160 -33 160 -33 162 C-32.01 162.33 -31.02 162.66 -30 163 C-28.96210419 164.64333504 -27.96432076 166.31243867 -27 168 C-26.443125 168.556875 -25.88625 169.11375 -25.3125 169.6875 C-24.879375 170.120625 -24.44625 170.55375 -24 171 C-24 171.66 -24 172.32 -24 173 C-16.77379121 171.55475824 -9.96102073 169.4006716 -3 167 C-1.35475528 166.45654812 0.2910191 165.91469507 1.9375 165.375 C4.20603575 164.6215366 6.4075784 163.83502779 8.625 162.9375 C14.34316581 160.68032928 20.39854788 159.38584397 26.375 158 C27.07882812 157.835 27.78265625 157.67 28.5078125 157.5 C29.94954541 157.16324487 31.3926267 156.83221705 32.83691406 156.5065918 C34.23132772 156.18002201 35.61984831 155.82656662 36.99902344 155.44067383 C43.73934724 153.66343381 50.50162655 153.66213822 57.42919922 153.68432617 C59.49630141 153.68749433 61.56197911 153.66392614 63.62890625 153.63867188 C75.86410387 153.57992748 83.91296445 156.27530963 94 163 C94 163.66 94 164.32 94 165 C94.99 165.33 95.98 165.66 97 166 C109.71821397 182.44696307 109.75350113 202.2117072 107.66748047 222.18359375 C106.24305581 232.12650704 103.93469326 241.74097975 100 251 C99.71640625 251.77472656 99.4328125 252.54945313 99.140625 253.34765625 C95.18717909 264.0115564 89.48113254 274.65954428 83 284 C82.34 284 81.68 284 81 284 C80.7628125 284.70511719 80.525625 285.41023438 80.28125 286.13671875 C78.77497827 289.50286868 76.84415483 291.96983173 74.5 294.8125 C73.30890625 296.27623047 73.30890625 296.27623047 72.09375 297.76953125 C71.4028125 298.50558594 70.711875 299.24164063 70 300 C69.34 300 68.68 300 68 300 C67.95875 300.556875 67.9175 301.11375 67.875 301.6875 C66.55598589 305.17346586 63.86969787 306.71595476 61 309 C60.34 309.99 59.68 310.98 59 312 C58.34 312 57.68 312 57 312 C56.73960937 312.59554688 56.47921875 313.19109375 56.2109375 313.8046875 C54.91233375 316.15893043 53.67520844 317.40351697 51.625 319.125 C50.92375 319.71667969 50.2225 320.30835938 49.5 320.91796875 C48.675 321.60503906 47.85 322.29210937 47 323 C45.95753733 323.8909966 44.91591739 324.78297984 43.875 325.67578125 C42.79210787 326.59687312 41.70877597 327.51744824 40.625 328.4375 C40.10115723 328.88689941 39.57731445 329.33629883 39.03759766 329.79931641 C35.22879659 333 35.22879659 333 33 333 C33 333.66 33 334.32 33 335 C32.01 335.33 31.02 335.66 30 336 C28.97670005 336.97614405 27.97818374 337.97864964 27 339 C25.84624859 339.89286971 24.67141452 340.75894349 23.48046875 341.6015625 C22.79525146 342.08705566 22.11003418 342.57254883 21.40405273 343.07275391 C20.67259033 343.58499512 19.94112793 344.09723633 19.1875 344.625 C18.42703369 345.15915527 17.66656738 345.69331055 16.88305664 346.24365234 C10.03962537 351.02239702 3.06975522 355.56551049 -4 360 C-5.29952947 360.82023281 -6.599007 361.64054791 -7.8984375 362.4609375 C-11.92011883 364.99375767 -15.95764254 367.50034998 -20 370 C-20.69963867 370.43473633 -21.39927734 370.86947266 -22.12011719 371.31738281 C-24.17973485 372.59409933 -26.24507675 373.86097172 -28.3125 375.125 C-28.9408374 375.51558594 -29.5691748 375.90617187 -30.21655273 376.30859375 C-34.655538 379 -34.655538 379 -38 379 C-38 379.66 -38 380.32 -38 381 C-39.65 381.33 -41.3 381.66 -43 382 C-41.56489177 378.49955083 -39.89080447 376.95830604 -36.8125 374.8125 C-32.49215086 371.60707967 -29.50208593 368.10106258 -26.41015625 363.72265625 C-25.94480469 363.15417969 -25.47945313 362.58570313 -25 362 C-24.34 362 -23.68 362 -23 362 C-22.67 360.68 -22.34 359.36 -22 358 C-21.34 358 -20.68 358 -20 358 C-19.7525 357.319375 -19.505 356.63875 -19.25 355.9375 C-17.75802092 352.43134917 -15.93164489 349.28379632 -14 346 C-13.34 346 -12.68 346 -12 346 C-11.74089844 345.154375 -11.48179687 344.30875 -11.21484375 343.4375 C-9.92253535 339.78080742 -8.32368853 336.45420203 -6.5625 333 C-5.96566406 331.824375 -5.36882812 330.64875 -4.75390625 329.4375 C-3.62986939 327.23448788 -2.50136522 325.03374599 -1.3671875 322.8359375 C1.81271901 316.23990286 3.31351222 308.94530163 5.125 301.875 C5.38108032 300.89007568 5.38108032 300.89007568 5.64233398 299.88525391 C9.59847196 284.1119014 9.61563545 265.8443133 6 250 C5.74283203 248.7934375 5.74283203 248.7934375 5.48046875 247.5625 C2.48630328 235.81764449 -3.93868533 224.72407698 -11.3359375 215.234375 C-12.84134472 213.2130301 -13.96089398 211.28813245 -15 209 C-20.76235335 209.54082423 -25.66113246 210.71464688 -31.0625 212.75 C-32.55819895 213.29535485 -34.05430108 213.83960503 -35.55078125 214.3828125 C-36.29537598 214.65512695 -37.0399707 214.92744141 -37.80712891 215.20800781 C-43.49597146 217.26262875 -49.25165167 219.11999694 -55 221 C-56.01835937 221.34933594 -57.03671875 221.69867188 -58.0859375 222.05859375 C-78.14333836 228.68423902 -106.61579924 235.27944409 -126.484375 225.53515625 C-127.31453125 225.02855469 -128.1446875 224.52195312 -129 224 C-129.83015625 223.50371094 -130.6603125 223.00742187 -131.515625 222.49609375 C-141.65706347 215.52805242 -146.35990561 204.67282557 -149 193 C-149.55220309 188.00545678 -149.61925857 183.08405651 -149.5625 178.0625 C-149.55760559 177.05743912 -149.55760559 177.05743912 -149.5526123 176.03207397 C-149.46450452 163.54538678 -147.57615304 151.96292226 -144 140 C-143.68933594 138.86175781 -143.37867188 137.72351563 -143.05859375 136.55078125 C-139.17093098 123.49311571 -132.02498065 110.00138192 -124 99 C-123.34 99 -122.68 99 -122 99 C-121.773125 98.319375 -121.54625 97.63875 -121.3125 96.9375 C-119.68773854 93.3011291 -117.67196743 89.97170737 -115 87 C-114.34 87 -113.68 87 -113 87 C-112.731875 86.4225 -112.46375 85.845 -112.1875 85.25 C-110.97070811 82.94449957 -109.69666121 80.97943808 -108 79 C-107.34 79 -106.68 79 -106 79 C-105.9071875 78.13375 -105.9071875 78.13375 -105.8125 77.25 C-104.66615826 74.07551517 -102.74043158 72.87151425 -100 71 C-99.34 71 -98.68 71 -98 71 C-97.67902344 70.17628906 -97.67902344 70.17628906 -97.3515625 69.3359375 C-95.53789178 66.20132742 -93.04912008 64.00917012 -90.375 61.625 C-89.83955566 61.14184326 -89.30411133 60.65868652 -88.75244141 60.16088867 C-77.3783887 50 -77.3783887 50 -74 50 C-74 49.34 -74 48.68 -74 48 C-73.0409375 47.8453125 -73.0409375 47.8453125 -72.0625 47.6875 C-71.381875 47.460625 -70.70125 47.23375 -70 47 C-69.67 46.01 -69.34 45.02 -69 44 C-68.01 44 -67.02 44 -66 44 C-66 43.34 -66 42.68 -66 42 C-64.2163382 40.68009027 -62.37010988 39.44427809 -60.5 38.25 C-56.03034932 35.35818351 -51.75961244 32.37766511 -47.62109375 29.03125 C-46 28 -46 28 -43 28 C-43 27.34 -43 26.68 -43 26 C-40.55075649 24.30205818 -38.10829912 22.72834132 -35.5625 21.1875 C-34.829104 20.73681152 -34.09570801 20.28612305 -33.34008789 19.82177734 C-28.91686645 17.11823551 -24.46387805 14.48498512 -19.8984375 12.02734375 C-17.9244209 10.9591002 -15.99568099 9.82768226 -14.0625 8.6875 C-11 7 -11 7 -9 7 C-9 6.34 -9 5.68 -9 5 C-8.43410156 4.72285156 -7.86820313 4.44570313 -7.28515625 4.16015625 C-6.55167969 3.79792969 -5.81820312 3.43570313 -5.0625 3.0625 C-3.96615234 2.52302734 -3.96615234 2.52302734 -2.84765625 1.97265625 C-1.03750973 1.13628173 -1.03750973 1.13628173 0 0 Z " fill="#039BE2" transform="translate(270,58)"/>
<path d="M0 0 C0.73105957 -0.01039307 1.46211914 -0.02078613 2.21533203 -0.03149414 C9.61706781 0.09275357 15.27555693 2.71788616 20.7421875 7.71875 C27.83968285 15.48715287 28.59117758 26.07244364 28.1875 36.125 C26.80890017 55.23524587 20.02320631 74.02330859 9.1328125 89.71484375 C7.19218118 92.35780024 7.19218118 92.35780024 6.3125 95.4375 C5.6525 95.4375 4.9925 95.4375 4.3125 95.4375 C4.065 96.0975 3.8175 96.7575 3.5625 97.4375 C1.14281692 103.24473939 -1.33677182 108.79672328 -5.6875 113.4375 C-6.3475 113.4375 -7.0075 113.4375 -7.6875 113.4375 C-7.9453125 114.0046875 -8.203125 114.571875 -8.46875 115.15625 C-10.88818711 119.68493997 -14.44044901 123.48317057 -17.6875 127.4375 C-18.58104578 128.54401524 -19.47426525 129.65079404 -20.3671875 130.7578125 C-21.26507465 131.85982364 -22.16350366 132.96139353 -23.0625 134.0625 C-23.89523437 135.08601562 -24.72796875 136.10953125 -25.5859375 137.1640625 C-26.27945312 137.91429687 -26.97296875 138.66453125 -27.6875 139.4375 C-28.3475 139.4375 -29.0075 139.4375 -29.6875 139.4375 C-29.6875 140.0975 -29.6875 140.7575 -29.6875 141.4375 C-32.5 144.125 -32.5 144.125 -35.6875 146.4375 C-36.6775 146.1075 -37.6675 145.7775 -38.6875 145.4375 C-38.0275 142.7975 -37.3675 140.1575 -36.6875 137.4375 C-36.1925 138.4275 -36.1925 138.4275 -35.6875 139.4375 C-35.27371094 138.35855469 -35.27371094 138.35855469 -34.8515625 137.2578125 C-33.35484987 133.63154901 -31.53557225 130.21215764 -29.7109375 126.7421875 C-28.4845745 124.40081496 -28.4845745 124.40081496 -28.6875 121.4375 C-28.1925 119.9525 -28.1925 119.9525 -27.6875 118.4375 C-28.08147335 115.79945411 -28.08147335 115.79945411 -28.6875 113.4375 C-28.0275 113.4375 -27.3675 113.4375 -26.6875 113.4375 C-26.88214844 112.91671875 -27.07679688 112.3959375 -27.27734375 111.859375 C-27.84250823 108.5222133 -27.067534 105.95763601 -26.25 102.6875 C-25.81880859 100.93179688 -25.81880859 100.93179688 -25.37890625 99.140625 C-25.15074219 98.24859375 -24.92257812 97.3565625 -24.6875 96.4375 C-25.6775 97.7575 -26.6675 99.0775 -27.6875 100.4375 C-27.67702637 99.56649658 -27.66655273 98.69549316 -27.65576172 97.7980957 C-27.62124662 94.50102989 -27.59639414 91.20416184 -27.57763672 87.90698242 C-27.56770869 86.49223765 -27.55416175 85.07751266 -27.53662109 83.6628418 C-27.25501976 60.33134277 -32.57668957 40.20515322 -47.0234375 21.671875 C-48.52884472 19.6505301 -49.64839398 17.72563245 -50.6875 15.4375 C-52.9975 15.4375 -55.3075 15.4375 -57.6875 15.4375 C-55.23464049 12.98464049 -53.29585712 12.48683764 -50 11.4140625 C-48.8351709 11.03435303 -47.6703418 10.65464355 -46.47021484 10.26342773 C-44.597771 9.66896851 -44.597771 9.66896851 -42.6875 9.0625 C-42.05257629 8.86085236 -41.41765259 8.65920471 -40.76348877 8.45144653 C-27.24152338 4.17462168 -14.26939952 0.17657981 0 0 Z " fill="#08A7F6" transform="translate(305.6875,251.5625)"/>
<path d="M0 0 C0.99 0.33 1.98 0.66 3 1 C3 1.66 3 2.32 3 3 C2.34 3 1.68 3 1 3 C0.7628125 3.70511719 0.525625 4.41023438 0.28125 5.13671875 C-1.22502173 8.50286868 -3.15584517 10.96983173 -5.5 13.8125 C-6.2940625 14.78832031 -7.088125 15.76414062 -7.90625 16.76953125 C-8.5971875 17.50558594 -9.288125 18.24164063 -10 19 C-10.66 19 -11.32 19 -12 19 C-12.04125 19.556875 -12.0825 20.11375 -12.125 20.6875 C-13.44401411 24.17346586 -16.13030213 25.71595476 -19 28 C-19.99 29.485 -19.99 29.485 -21 31 C-21.66 31 -22.32 31 -23 31 C-23.26039063 31.59554688 -23.52078125 32.19109375 -23.7890625 32.8046875 C-25.08766625 35.15893043 -26.32479156 36.40351697 -28.375 38.125 C-29.07625 38.71667969 -29.7775 39.30835938 -30.5 39.91796875 C-31.325 40.60503906 -32.15 41.29210937 -33 42 C-34.04246267 42.8909966 -35.08408261 43.78297984 -36.125 44.67578125 C-37.20789213 45.59687312 -38.29122403 46.51744824 -39.375 47.4375 C-39.89884277 47.88689941 -40.42268555 48.33629883 -40.96240234 48.79931641 C-44.77120341 52 -44.77120341 52 -47 52 C-47 52.66 -47 53.32 -47 54 C-48.485 54.495 -48.485 54.495 -50 55 C-51.02329995 55.97614405 -52.02181626 56.97864964 -53 58 C-54.15375141 58.89286971 -55.32858548 59.75894349 -56.51953125 60.6015625 C-57.20474854 61.08705566 -57.88996582 61.57254883 -58.59594727 62.07275391 C-59.32740967 62.58499512 -60.05887207 63.09723633 -60.8125 63.625 C-61.57296631 64.15915527 -62.33343262 64.69331055 -63.11694336 65.24365234 C-69.96037463 70.02239702 -76.93024478 74.56551049 -84 79 C-85.29952947 79.82023281 -86.599007 80.64054791 -87.8984375 81.4609375 C-91.92011883 83.99375767 -95.95764254 86.50034998 -100 89 C-101.04945801 89.65210449 -101.04945801 89.65210449 -102.12011719 90.31738281 C-104.17973485 91.59409933 -106.24507675 92.86097172 -108.3125 94.125 C-108.9408374 94.51558594 -109.5691748 94.90617187 -110.21655273 95.30859375 C-114.655538 98 -114.655538 98 -118 98 C-118 98.66 -118 99.32 -118 100 C-120.475 100.495 -120.475 100.495 -123 101 C-121.56489177 97.49955083 -119.89080447 95.95830604 -116.8125 93.8125 C-112.49215086 90.60707967 -109.50208593 87.10106258 -106.41015625 82.72265625 C-105.94480469 82.15417969 -105.47945312 81.58570313 -105 81 C-104.34 81 -103.68 81 -103 81 C-102.67 79.68 -102.34 78.36 -102 77 C-101.34 77 -100.68 77 -100 77 C-99.7525 76.319375 -99.505 75.63875 -99.25 74.9375 C-97.75802092 71.43134917 -95.93164489 68.28379632 -94 65 C-93.34 65 -92.68 65 -92 65 C-91.61134766 63.7315625 -91.61134766 63.7315625 -91.21484375 62.4375 C-89.92253535 58.78080742 -88.32368853 55.45420203 -86.5625 52 C-85.96566406 50.824375 -85.36882812 49.64875 -84.75390625 48.4375 C-83.62986939 46.23448788 -82.50136522 44.03374599 -81.3671875 41.8359375 C-77.06078731 32.90323312 -75.34601767 22.59842764 -73 13 C-72.34 13 -71.68 13 -71 13 C-70.67 10.36 -70.34 7.72 -70 5 C-67.97983894 7.8340389 -68.00897762 9.07014715 -68.4609375 12.6015625 C-68.75199774 13.9457316 -69.05714067 15.28691478 -69.375 16.625 C-70.53508432 21.26857402 -70.53508432 21.26857402 -71 26 C-71.66 26 -72.32 26 -73 26 C-72.65555119 28.47266765 -72.65555119 28.47266765 -72 31 C-71.34 31.33 -70.68 31.66 -70 32 C-70.66 32 -71.32 32 -72 32 C-72 33.32 -72 34.64 -72 36 C-72.74383425 37.84174458 -73.5640847 39.65355543 -74.4375 41.4375 C-76.16639976 44.97903541 -77.38404098 48.09892619 -78 52 C-78.66 52 -79.32 52 -80 52 C-80.99 53.98 -81.98 55.96 -83 58 C-79.67187429 57.42618522 -78.30157545 56.40619252 -76 54 C-75.34 54 -74.68 54 -74 54 C-74 53.34 -74 52.68 -74 52 C-72.90836863 50.87315471 -71.80802507 49.75415134 -70.6796875 48.6640625 C-64.26965479 42.313658 -58.72722016 35.49101607 -53.62890625 28.0546875 C-52.82259766 27.03761719 -52.82259766 27.03761719 -52 26 C-51.34 26 -50.68 26 -50 26 C-49.71125 25.360625 -49.4225 24.72125 -49.125 24.0625 C-48 22 -48 22 -46 21 C-48.33904279 27.62728792 -52.3981939 32.57108977 -57.01953125 37.734375 C-59.21436256 40.24522738 -61.29131797 42.83380658 -63.375 45.4375 C-67.00460771 49.9185739 -70.86036906 53.97590345 -75.0546875 57.9296875 C-78.51769117 61.6152135 -80.2842071 64.98944969 -81 70 C-73.85644636 68.65273868 -73.85644636 68.65273868 -68.875 63.8125 C-68.58625 62.884375 -68.2975 61.95625 -68 61 C-66.02 61 -64.04 61 -62 61 C-62 58.69 -62 56.38 -62 54 C-59.23735711 53.40267181 -56.83967231 53 -54 53 C-52.89363605 50.60931266 -52.89363605 50.60931266 -52 48 C-52.33 47.34 -52.66 46.68 -53 46 C-51.33388095 45.957279 -49.66617115 45.95936168 -48 46 C-47.67 46.33 -47.34 46.66 -47 47 C-46.505 46.01 -46.505 46.01 -46 45 C-45.195625 44.855625 -44.39125 44.71125 -43.5625 44.5625 C-40.65559342 44.23497283 -40.65559342 44.23497283 -39 41 C-38.01 41 -37.02 41 -36 41 C-36.33 40.01 -36.66 39.02 -37 38 C-36.113125 37.62875 -35.22625 37.2575 -34.3125 36.875 C-31.38277137 35.21666304 -30.23982998 34.32503159 -28.25 31.8125 C-27.5075 30.884375 -26.765 29.95625 -26 29 C-25.34 29 -24.68 29 -24 29 C-24 28.34 -24 27.68 -24 27 C-23.34 27 -22.68 27 -22 27 C-21.79375 26.443125 -21.5875 25.88625 -21.375 25.3125 C-19.49672031 22.15357507 -16.81151195 20.33295673 -14 18 C-13.505 16.515 -13.505 16.515 -13 15 C-8.66666667 12 -8.66666667 12 -6 12 C-5.731875 10.865625 -5.46375 9.73125 -5.1875 8.5625 C-4.795625 7.386875 -4.40375 6.21125 -4 5 C-3.01 4.67 -2.02 4.34 -1 4 C-0.26676204 1.98491642 -0.26676204 1.98491642 0 0 Z M-50 48 C-50.33 48.66 -50.66 49.32 -51 50 C-50.01 50 -49.02 50 -48 50 C-48 49.34 -48 48.68 -48 48 C-48.66 48 -49.32 48 -50 48 Z " fill="#314FB4" transform="translate(350,339)"/>
<path d="M0 0 C0.99 0.33 1.98 0.66 3 1 C-1.21302938 6.35502269 -5.6395097 11.03865496 -11.9453125 13.875 C-14.52747689 15.28880864 -16.21622825 17.06228168 -18.25 19.1875 C-21.03860468 22.0442302 -23.83306873 24.78998433 -26.875 27.375 C-34.13487774 33.62052357 -40.87716416 40.51117642 -47.078125 47.8046875 C-49.04570091 50.05220307 -51.09341512 52.21217577 -53.15185547 54.3762207 C-60.45529635 62.09882568 -66.79351249 70.38235907 -73 79 C-74.03833984 80.42892578 -74.03833984 80.42892578 -75.09765625 81.88671875 C-82.05691066 91.4040259 -82.05691066 91.4040259 -87 102 C-87.66 102 -88.32 102 -89 102 C-89.268125 102.86625 -89.53625 103.7325 -89.8125 104.625 C-91.3431113 108.97515844 -93.43579855 112.91673321 -95.5625 117 C-96.97692825 119.95185026 -98.03312658 122.87625511 -99 126 C-99.66 125.67 -100.32 125.34 -101 125 C-100.53680089 120.27536912 -99.90108294 116.82942948 -97 113 C-96.34 113 -95.68 113 -95 113 C-94.83564453 112.12988281 -94.83564453 112.12988281 -94.66796875 111.2421875 C-93.6856635 106.40253723 -92.45178089 102.34633884 -90 98 C-89.34 98 -88.68 98 -88 98 C-87.7525 97.484375 -87.505 96.96875 -87.25 96.4375 C-84.9870178 92.02468471 -82.56372867 87.76840435 -79.75 83.6875 C-77.81810894 81.25517529 -77.81810894 81.25517529 -78 79 C-77.34 79 -76.68 79 -76 79 C-76 77.35 -76 75.7 -76 74 C-74.68 74 -73.36 74 -72 74 C-68.73795206 70.1554435 -68.71144715 66.9053984 -69 62 C-68.01 62.66 -67.02 63.32 -66 64 C-62.08396696 61.20579508 -62.08396696 61.20579508 -60 57 C-59.195625 56.21625 -58.39125 55.4325 -57.5625 54.625 C-54.8829317 52.26795239 -54.8829317 52.26795239 -54.1875 49.5 C-52.56438106 46.0829075 -50.24720236 45.1732739 -47.0390625 43.32421875 C-43.09156877 40.7606165 -40.49670805 37.49012414 -39 33 C-38.34 33 -37.68 33 -37 33 C-36.67 31.35 -36.34 29.7 -36 28 C-39.82504618 28.59050252 -41.94702408 30.35427722 -44.875 32.8125 C-47.7006381 35.14563397 -50.47054593 37.40603167 -53.5625 39.375 C-56.09173402 40.77001893 -56.09173402 40.77001893 -57 43 C-57.66 43 -58.32 43 -59 43 C-59.33 43.99 -59.66 44.98 -60 46 C-60.71929687 46.08507812 -61.43859375 46.17015625 -62.1796875 46.2578125 C-65.59451369 47.15645097 -67.42371719 48.61980059 -70.125 50.875 C-70.97320312 51.57367188 -71.82140625 52.27234375 -72.6953125 52.9921875 C-75.04173474 55.03635874 -77.21628689 57.14164754 -79.3125 59.4375 C-81 61 -81 61 -84.0625 63 C-87.16818305 64.84538337 -87.16818305 64.84538337 -89 68 C-89.9590625 68.37125 -89.9590625 68.37125 -90.9375 68.75 C-93.39496761 69.96345342 -93.39496761 69.96345342 -94.5 73.5625 C-94.995 74.696875 -95.49 75.83125 -96 77 C-98 77.6875 -98 77.6875 -100 78 C-101.63676257 79.9600281 -101.63676257 79.9600281 -103 82 C-103.99 82.495 -103.99 82.495 -105 83 C-105 83.66 -105 84.32 -105 85 C-108.465 85.99 -108.465 85.99 -112 87 C-112.0825 87.556875 -112.165 88.11375 -112.25 88.6875 C-113.58386068 92.80023708 -116.74951117 96.19275965 -120 99 C-120.66 99 -121.32 99 -122 99 C-120.50328459 94.50985376 -118.16631659 90.52151236 -115 87 C-114.34 87 -113.68 87 -113 87 C-112.731875 86.4225 -112.46375 85.845 -112.1875 85.25 C-110.97070811 82.94449957 -109.69666121 80.97943808 -108 79 C-107.34 79 -106.68 79 -106 79 C-105.9071875 78.13375 -105.9071875 78.13375 -105.8125 77.25 C-104.66615826 74.07551517 -102.74043158 72.87151425 -100 71 C-99.34 71 -98.68 71 -98 71 C-97.78601563 70.45085937 -97.57203125 69.90171875 -97.3515625 69.3359375 C-95.53789178 66.20132742 -93.04912008 64.00917012 -90.375 61.625 C-89.83955566 61.14184326 -89.30411133 60.65868652 -88.75244141 60.16088867 C-77.3783887 50 -77.3783887 50 -74 50 C-74 49.34 -74 48.68 -74 48 C-73.0409375 47.8453125 -73.0409375 47.8453125 -72.0625 47.6875 C-71.381875 47.460625 -70.70125 47.23375 -70 47 C-69.67 46.01 -69.34 45.02 -69 44 C-68.01 44 -67.02 44 -66 44 C-66 43.34 -66 42.68 -66 42 C-64.2163382 40.68009027 -62.37010988 39.44427809 -60.5 38.25 C-56.03034932 35.35818351 -51.75961244 32.37766511 -47.62109375 29.03125 C-46 28 -46 28 -43 28 C-43 27.34 -43 26.68 -43 26 C-40.55075649 24.30205818 -38.10829912 22.72834132 -35.5625 21.1875 C-34.829104 20.73681152 -34.09570801 20.28612305 -33.34008789 19.82177734 C-28.91686645 17.11823551 -24.46387805 14.48498512 -19.8984375 12.02734375 C-17.9244209 10.9591002 -15.99568099 9.82768226 -14.0625 8.6875 C-11 7 -11 7 -9 7 C-9 6.34 -9 5.68 -9 5 C-8.43410156 4.72285156 -7.86820312 4.44570313 -7.28515625 4.16015625 C-6.18494141 3.61681641 -6.18494141 3.61681641 -5.0625 3.0625 C-3.96615234 2.52302734 -3.96615234 2.52302734 -2.84765625 1.97265625 C-1.03750973 1.13628173 -1.03750973 1.13628173 0 0 Z " fill="#26F1F5" transform="translate(270,58)"/>
<path d="M0 0 C-1.6485215 3.69587886 -3.9339805 6.72200421 -6.375 9.9375 C-7.14585937 10.95714844 -7.91671875 11.97679688 -8.7109375 13.02734375 C-10.148761 14.8945514 -11.6116242 16.74301014 -13.109375 18.5625 C-18.95981001 26.10520959 -22.84574035 35.44504157 -27 44 C-27.39445312 44.80566406 -27.78890625 45.61132812 -28.1953125 46.44140625 C-30.2853971 50.89251235 -31.62382236 55.13325257 -32.5703125 59.95703125 C-33 62 -33 62 -34 64.875 C-35.47742598 69.49195618 -36.20138291 74.22528931 -37 79 C-37.33 79 -37.66 79 -38 79 C-38.28096287 72.08519161 -37.6075984 65.60260455 -36.4375 58.78515625 C-35.92241006 55.97594167 -35.92241006 55.97594167 -36 53 C-35.34 52.67 -34.68 52.34 -34 52 C-35.32 51.34 -36.64 50.68 -38 50 C-37.34 47.69 -36.68 45.38 -36 43 C-33.525 42.505 -33.525 42.505 -31 42 C-30.06576355 38.98968256 -29.95550089 38.13349732 -31 35 C-31.66 35 -32.32 35 -33 35 C-34.32 37.31 -35.64 39.62 -37 42 C-37.66 42 -38.32 42 -39 42 C-39.103125 42.61875 -39.20625 43.2375 -39.3125 43.875 C-40 46 -40 46 -43 48 C-42.67 48.66 -42.34 49.32 -42 50 C-42.9075 50.12375 -43.815 50.2475 -44.75 50.375 C-49.13215276 52.56607638 -49.65650836 55.02050886 -51.23828125 59.4921875 C-51.89411274 61.65138657 -52.48412149 63.80368554 -53 66 C-53.99 65.67 -54.98 65.34 -56 65 C-59.55794468 67.00134388 -60.95604198 69.56615052 -63 73 C-64.299375 74.2684375 -64.299375 74.2684375 -65.625 75.5625 C-68.01814031 78.01861769 -68.36393167 78.81965837 -69 82 C-70.5625 83.75 -70.5625 83.75 -72 85 C-71.67 85.99 -71.34 86.98 -71 88 C-71.78375 88.391875 -72.5675 88.78375 -73.375 89.1875 C-76.4608119 91.31817964 -76.86077258 92.50094435 -78 96 C-79.55131225 99.2436529 -81.21045619 102.35994021 -83.0625 105.4375 C-84.54839394 107.97590215 -85.23293523 109.82212435 -86.0625 112.75 C-86.95728896 115.85193507 -87.50191534 117.06966185 -90 119 C-89.08218716 108.44515231 -83.78299906 99.27901818 -79 90 C-78.34 90 -77.68 90 -77 90 C-76.89300781 89.27425781 -76.78601563 88.54851562 -76.67578125 87.80078125 C-74.08217994 77.05157811 -63.63836582 66.63523473 -57 58 C-56.29746094 57.07960937 -55.59492188 56.15921875 -54.87109375 55.2109375 C-50.54217049 49.66196281 -45.85981116 44.4935259 -41.03515625 39.3762207 C-38.79739346 36.99640672 -36.81715636 34.72573454 -35 32 C-34.34 32 -33.68 32 -33 32 C-32.74041504 31.41516846 -32.48083008 30.83033691 -32.21337891 30.2277832 C-30.91356092 27.84129646 -29.51043278 26.26697789 -27.5859375 24.35546875 C-26.90660156 23.67806641 -26.22726563 23.00066406 -25.52734375 22.30273438 C-24.81707031 21.60470703 -24.10679687 20.90667969 -23.375 20.1875 C-22.68792969 19.50107422 -22.00085938 18.81464844 -21.29296875 18.10742188 C-17.23752558 14.08621791 -13.07711146 10.24179774 -8.73632812 6.53027344 C-7.11721879 5.10330812 -5.61788825 3.61949335 -4.125 2.0625 C-2 0 -2 0 0 0 Z " fill="#114EE9" transform="translate(260,70)"/>
<path d="M0 0 C2.02016106 2.8340389 1.99102238 4.07014715 1.5390625 7.6015625 C1.24800226 8.9457316 0.94285933 10.28691478 0.625 11.625 C-0.53508432 16.26857402 -0.53508432 16.26857402 -1 21 C-1.66 21 -2.32 21 -3 21 C-2.65555119 23.47266765 -2.65555119 23.47266765 -2 26 C-1.34 26.33 -0.68 26.66 0 27 C-0.66 27 -1.32 27 -2 27 C-2 28.32 -2 29.64 -2 31 C-2.74383425 32.84174458 -3.5640847 34.65355543 -4.4375 36.4375 C-6.16639976 39.97903541 -7.38404098 43.09892619 -8 47 C-8.66 47 -9.32 47 -10 47 C-10.99 48.98 -11.98 50.96 -13 53 C-9.67187429 52.42618522 -8.30157545 51.40619252 -6 49 C-5.34 49 -4.68 49 -4 49 C-4 48.34 -4 47.68 -4 47 C-2.90836863 45.87315471 -1.80802507 44.75415134 -0.6796875 43.6640625 C5.73034521 37.313658 11.27277984 30.49101607 16.37109375 23.0546875 C16.90863281 22.37664062 17.44617188 21.69859375 18 21 C18.66 21 19.32 21 20 21 C20.28875 20.360625 20.5775 19.72125 20.875 19.0625 C22 17 22 17 24 16 C21.66095721 22.62728792 17.6018061 27.57108977 12.98046875 32.734375 C10.78563744 35.24522738 8.70868203 37.83380658 6.625 40.4375 C-4.57889279 54.19296426 -4.57889279 54.19296426 -10 56 C-10.33 56.66 -10.66 57.32 -11 58 C-11.66 58 -12.32 58 -13 58 C-13.23074219 58.55816406 -13.46148437 59.11632812 -13.69921875 59.69140625 C-15.34533509 62.61289201 -17.41073132 64.60054666 -19.8125 66.9375 C-20.66457031 67.77152344 -21.51664062 68.60554688 -22.39453125 69.46484375 C-23.25433594 70.30144531 -24.11414063 71.13804687 -25 72 C-25.87011719 72.90878906 -26.74023438 73.81757813 -27.63671875 74.75390625 C-30 77 -30 77 -33 78 C-34.68538601 79.99665314 -34.68538601 79.99665314 -36 82 C-36.99 81.67 -37.98 81.34 -39 81 C-37.71937515 79.2925002 -36.38232443 77.62626404 -35 76 C-34.34 76 -33.68 76 -33 76 C-32.67 74.68 -32.34 73.36 -32 72 C-31.34 72 -30.68 72 -30 72 C-29.7525 71.319375 -29.505 70.63875 -29.25 69.9375 C-27.75802092 66.43134917 -25.93164489 63.28379632 -24 60 C-23.34 60 -22.68 60 -22 60 C-21.61134766 58.7315625 -21.61134766 58.7315625 -21.21484375 57.4375 C-19.92253535 53.78080742 -18.32368853 50.45420203 -16.5625 47 C-15.96566406 45.824375 -15.36882812 44.64875 -14.75390625 43.4375 C-13.62986939 41.23448788 -12.50136522 39.03374599 -11.3671875 36.8359375 C-7.06078731 27.90323312 -5.34601767 17.59842764 -3 8 C-2.34 8 -1.68 8 -1 8 C-0.67 5.36 -0.34 2.72 0 0 Z " fill="#144DE6" transform="translate(280,344)"/>
<path d="M0 0 C-0.19445787 5.96337471 -1.02204466 8.80625096 -5.35375977 12.91796875 C-5.93826904 13.44003906 -6.52277832 13.96210937 -7.125 14.5 C-8.3259112 15.63362645 -9.52514581 16.76903174 -10.72265625 17.90625 C-11.2964502 18.4425 -11.87024414 18.97875 -12.46142578 19.53125 C-14.87158036 21.83202594 -16.99936075 24.33421961 -19.1484375 26.875 C-21.08777145 29.10073348 -23.11303775 31.23327105 -25.14746094 33.37182617 C-32.45294819 41.09539853 -38.79229837 49.38067327 -45 58 C-45.69222656 58.95261719 -46.38445312 59.90523437 -47.09765625 60.88671875 C-54.05691066 70.4040259 -54.05691066 70.4040259 -59 81 C-59.66 81 -60.32 81 -61 81 C-61.268125 81.86625 -61.53625 82.7325 -61.8125 83.625 C-63.3431113 87.97515844 -65.43579855 91.91673321 -67.5625 96 C-68.97692825 98.95185026 -70.03312658 101.87625511 -71 105 C-71.66 104.67 -72.32 104.34 -73 104 C-72.53680089 99.27536912 -71.90108294 95.82942948 -69 92 C-68.34 92 -67.68 92 -67 92 C-66.89042969 91.41992188 -66.78085938 90.83984375 -66.66796875 90.2421875 C-65.6856635 85.40253723 -64.45178089 81.34633884 -62 77 C-61.34 77 -60.68 77 -60 77 C-59.7525 76.484375 -59.505 75.96875 -59.25 75.4375 C-56.9870178 71.02468471 -54.56372867 66.76840435 -51.75 62.6875 C-49.81810894 60.25517529 -49.81810894 60.25517529 -50 58 C-49.34 58 -48.68 58 -48 58 C-48 56.35 -48 54.7 -48 53 C-46.68 53 -45.36 53 -44 53 C-40.73795206 49.1554435 -40.71144715 45.9053984 -41 41 C-40.01 41.66 -39.02 42.32 -38 43 C-34.08396696 40.20579508 -34.08396696 40.20579508 -32 36 C-31.195625 35.21625 -30.39125 34.4325 -29.5625 33.625 C-26.8829317 31.26795239 -26.8829317 31.26795239 -26.1875 28.5 C-24.56438106 25.0829075 -22.24720236 24.1732739 -19.0390625 22.32421875 C-15.09156877 19.7606165 -12.49670805 16.49012414 -11 12 C-10.34 12 -9.68 12 -9 12 C-8.67 10.35 -8.34 8.7 -8 7 C-8.99 6.67 -9.98 6.34 -11 6 C-10.67 5.34 -10.34 4.68 -10 4 C-8.35 4 -6.7 4 -5 4 C-4.67 3.01 -4.34 2.02 -4 1 C-2 0 -2 0 0 0 Z " fill="#0FDBFA" transform="translate(242,79)"/>
<path d="M0 0 C-0.57764997 3.3503698 -1.58576846 4.68233772 -4 7 C-4.33 7.680625 -4.66 8.36125 -5 9.0625 C-6 11 -6 11 -9 13 C-8.505 13.99 -8.505 13.99 -8 15 C-9.36125 15.185625 -9.36125 15.185625 -10.75 15.375 C-15.13215276 17.56607638 -15.65650836 20.02050886 -17.23828125 24.4921875 C-17.89411274 26.65138657 -18.48412149 28.80368554 -19 31 C-19.99 30.67 -20.98 30.34 -22 30 C-25.55794468 32.00134388 -26.95604198 34.56615052 -29 38 C-30.299375 39.2684375 -30.299375 39.2684375 -31.625 40.5625 C-34.01814031 43.01861769 -34.36393167 43.81965837 -35 47 C-36.5625 48.75 -36.5625 48.75 -38 50 C-37.67 50.99 -37.34 51.98 -37 53 C-37.78375 53.391875 -38.5675 53.78375 -39.375 54.1875 C-42.4608119 56.31817964 -42.86077258 57.50094435 -44 61 C-45.55131225 64.2436529 -47.21045619 67.35994021 -49.0625 70.4375 C-50.54839394 72.97590215 -51.23293523 74.82212435 -52.0625 77.75 C-52.95728896 80.85193507 -53.50191534 82.06966185 -56 84 C-55.08218716 73.44515231 -49.78299906 64.27901818 -45 55 C-44.34 55 -43.68 55 -43 55 C-42.89300781 54.27425781 -42.78601563 53.54851562 -42.67578125 52.80078125 C-40.08217994 42.05157811 -29.63836582 31.63523473 -23 23 C-21.94619141 21.61941406 -21.94619141 21.61941406 -20.87109375 20.2109375 C-17.00654665 15.25721742 -12.89503301 10.53792917 -8.6875 5.875 C-8.17123047 5.29339111 -7.65496094 4.71178223 -7.12304688 4.11254883 C-3.35068025 0 -3.35068025 0 0 0 Z " fill="#0765E3" transform="translate(226,105)"/>
<path d="M0 0 C0.99 0.33 1.98 0.66 3 1 C2.31292969 1.54269531 1.62585938 2.08539063 0.91796875 2.64453125 C0.01691406 3.35996094 -0.88414062 4.07539062 -1.8125 4.8125 C-2.70582031 5.52019531 -3.59914062 6.22789063 -4.51953125 6.95703125 C-6.98154148 8.98479715 -9.16710282 11.08777927 -11.3125 13.4375 C-13 15 -13 15 -16.0625 17 C-19.16818305 18.84538337 -19.16818305 18.84538337 -21 22 C-21.639375 22.2475 -22.27875 22.495 -22.9375 22.75 C-25.39496761 23.96345342 -25.39496761 23.96345342 -26.5 27.5625 C-26.995 28.696875 -27.49 29.83125 -28 31 C-30 31.6875 -30 31.6875 -32 32 C-33.63676257 33.9600281 -33.63676257 33.9600281 -35 36 C-35.99 36.495 -35.99 36.495 -37 37 C-37 37.66 -37 38.32 -37 39 C-39.31 39.66 -41.62 40.32 -44 41 C-44.12375 41.8353125 -44.12375 41.8353125 -44.25 42.6875 C-45.58386068 46.80023708 -48.74951117 50.19275965 -52 53 C-52.66 53 -53.32 53 -54 53 C-52.50328459 48.50985376 -50.16631659 44.52151236 -47 41 C-46.34 41 -45.68 41 -45 41 C-44.731875 40.4225 -44.46375 39.845 -44.1875 39.25 C-42.97070811 36.94449957 -41.69666121 34.97943808 -40 33 C-39.34 33 -38.68 33 -38 33 C-37.9071875 32.13375 -37.9071875 32.13375 -37.8125 31.25 C-36.66615826 28.07551517 -34.74043158 26.87151425 -32 25 C-31.34 25 -30.68 25 -30 25 C-29.78601563 24.45085937 -29.57203125 23.90171875 -29.3515625 23.3359375 C-27.53789178 20.20132742 -25.04912008 18.00917012 -22.375 15.625 C-21.83955566 15.14184326 -21.30411133 14.65868652 -20.75244141 14.16088867 C-9.3783887 4 -9.3783887 4 -6 4 C-6 3.34 -6 2.68 -6 2 C-4.02 2 -2.04 2 0 2 C0 1.34 0 0.68 0 0 Z " fill="#3AE0ED" transform="translate(202,104)"/>
<path d="M0 0 C2.06710219 0.00316816 4.1327799 -0.02040003 6.19970703 -0.0456543 C14.88955251 -0.08730685 22.21959064 0.41486707 29.57080078 5.31567383 C23.6228865 6.98852472 18.00616891 6.24241051 12.57080078 3.31567383 C11.91080078 3.64567383 11.25080078 3.97567383 10.57080078 4.31567383 C10.07580078 3.32567383 10.07580078 3.32567383 9.57080078 2.31567383 C-4.83098551 1.84372835 -4.83098551 1.84372835 -18.88623047 4.65942383 C-21.80908639 5.41370923 -24.423012 5.4210001 -27.42919922 5.31567383 C-27.53232422 5.95504883 -27.63544922 6.59442383 -27.74169922 7.25317383 C-27.96857422 7.93379883 -28.19544922 8.61442383 -28.42919922 9.31567383 C-35.4129955 11.64360592 -42.19170664 12.92400551 -49.42919922 11.31567383 C-49.42919922 11.97567383 -49.42919922 12.63567383 -49.42919922 13.31567383 C-50.06857422 13.43942383 -50.70794922 13.56317383 -51.36669922 13.69067383 C-52.04732422 13.89692383 -52.72794922 14.10317383 -53.42919922 14.31567383 C-53.75919922 14.97567383 -54.08919922 15.63567383 -54.42919922 16.31567383 C-55.56357422 16.29504883 -56.69794922 16.27442383 -57.86669922 16.25317383 C-61.24495596 15.89989906 -61.24495596 15.89989906 -62.42919922 17.31567383 C-65.09978773 17.45682544 -67.7535216 17.3581449 -70.42919922 17.31567383 C-67.75097509 15.53019107 -65.79574836 14.65038408 -62.78857422 13.65942383 C-61.42925781 13.20889648 -61.42925781 13.20889648 -60.04248047 12.74926758 C-58.62515625 12.28713867 -58.62515625 12.28713867 -57.17919922 11.81567383 C-55.78507812 11.35354492 -55.78507812 11.35354492 -54.36279297 10.88208008 C-46.66576904 8.34543711 -38.94739821 6.14598084 -31.05419922 4.31567383 C-30.35037109 4.15067383 -29.64654297 3.98567383 -28.92138672 3.81567383 C-27.47965381 3.4789187 -26.03657252 3.14789088 -24.59228516 2.82226562 C-23.1978715 2.49569583 -21.80935091 2.14224045 -20.43017578 1.75634766 C-13.68985198 -0.02089237 -6.92757267 -0.02218796 0 0 Z " fill="#0AAEDE" transform="translate(327.42919921875,211.684326171875)"/>
<path d="M0 0 C2.02016106 2.8340389 1.99102238 4.07014715 1.5390625 7.6015625 C1.24800226 8.9457316 0.94285933 10.28691478 0.625 11.625 C-0.53508432 16.26857402 -0.53508432 16.26857402 -1 21 C-1.66 21 -2.32 21 -3 21 C-2.65555119 23.47266765 -2.65555119 23.47266765 -2 26 C-1.34 26.33 -0.68 26.66 0 27 C-0.66 27 -1.32 27 -2 27 C-2 28.32 -2 29.64 -2 31 C-2.74383425 32.84174458 -3.5640847 34.65355543 -4.4375 36.4375 C-6.16639976 39.97903541 -7.38404098 43.09892619 -8 47 C-8.66 47 -9.32 47 -10 47 C-10.99 49.64 -11.98 52.28 -13 55 C-13.33 54.34 -13.66 53.68 -14 53 C-14.99 53 -15.98 53 -17 53 C-17 53.66 -17 54.32 -17 55 C-17.66 55 -18.32 55 -19 55 C-19 55.66 -19 56.32 -19 57 C-19.66 56.67 -20.32 56.34 -21 56 C-18.02148438 50.04296875 -18.02148438 50.04296875 -15.04296875 44.0859375 C-14.69613037 43.39032715 -14.34929199 42.6947168 -13.99194336 41.97802734 C-13.11518898 40.22969754 -12.22281875 38.48921777 -11.328125 36.75 C-7.03253419 27.85560021 -5.3367344 17.56044633 -3 8 C-2.34 8 -1.68 8 -1 8 C-0.67 5.36 -0.34 2.72 0 0 Z " fill="#3373DE" transform="translate(280,344)"/>
<path d="M0 0 C0.99 0.33 1.98 0.66 3 1 C3 1.66 3 2.32 3 3 C2.34 3 1.68 3 1 3 C0.7628125 3.70511719 0.525625 4.41023438 0.28125 5.13671875 C-1.22502173 8.50286868 -3.15584517 10.96983173 -5.5 13.8125 C-6.2940625 14.78832031 -7.088125 15.76414062 -7.90625 16.76953125 C-8.5971875 17.50558594 -9.288125 18.24164063 -10 19 C-10.66 19 -11.32 19 -12 19 C-12.04125 19.556875 -12.0825 20.11375 -12.125 20.6875 C-13.44401411 24.17346586 -16.13030213 25.71595476 -19 28 C-19.66 28.99 -20.32 29.98 -21 31 C-21.66 31 -22.32 31 -23 31 C-23.26039063 31.59554688 -23.52078125 32.19109375 -23.7890625 32.8046875 C-25.08766625 35.15893043 -26.32479156 36.40351697 -28.375 38.125 C-29.07625 38.71667969 -29.7775 39.30835938 -30.5 39.91796875 C-31.325 40.60503906 -32.15 41.29210937 -33 42 C-34.04246267 42.8909966 -35.08408261 43.78297984 -36.125 44.67578125 C-37.20789213 45.59687312 -38.29122403 46.51744824 -39.375 47.4375 C-39.89884277 47.88689941 -40.42268555 48.33629883 -40.96240234 48.79931641 C-44.77120341 52 -44.77120341 52 -47 52 C-47 52.66 -47 53.32 -47 54 C-47.66 53.67 -48.32 53.34 -49 53 C-49 52.34 -49 51.68 -49 51 C-48.01 51 -47.02 51 -46 51 C-45.938125 50.236875 -45.87625 49.47375 -45.8125 48.6875 C-45 46 -45 46 -42.5 44.3125 C-41.675 43.879375 -40.85 43.44625 -40 43 C-39.67 42.34 -39.34 41.68 -39 41 C-38.01 41 -37.02 41 -36 41 C-36.495 39.515 -36.495 39.515 -37 38 C-36.113125 37.62875 -35.22625 37.2575 -34.3125 36.875 C-31.38277137 35.21666304 -30.23982998 34.32503159 -28.25 31.8125 C-27.5075 30.884375 -26.765 29.95625 -26 29 C-25.34 29 -24.68 29 -24 29 C-24 28.34 -24 27.68 -24 27 C-23.34 27 -22.68 27 -22 27 C-21.79375 26.443125 -21.5875 25.88625 -21.375 25.3125 C-19.49672031 22.15357507 -16.81151195 20.33295673 -14 18 C-13.505 16.515 -13.505 16.515 -13 15 C-8.66666667 12 -8.66666667 12 -6 12 C-5.731875 10.865625 -5.46375 9.73125 -5.1875 8.5625 C-4.795625 7.386875 -4.40375 6.21125 -4 5 C-3.01 4.67 -2.02 4.34 -1 4 C-0.26676204 1.98491642 -0.26676204 1.98491642 0 0 Z " fill="#4867BC" transform="translate(350,339)"/>
<path d="M0 0 C0 0.66 0 1.32 0 2 C-0.7528125 1.90460938 -1.505625 1.80921875 -2.28125 1.7109375 C-13.46548899 0.54365042 -24.32735793 1.25338019 -35 5 C-36.4115828 5.3153536 -37.82827103 5.60910412 -39.25 5.875 C-45.55867164 7.22227564 -51.62314627 9.41543085 -57 13 C-57 14.32 -57 15.64 -57 17 C-56.01 16.67 -55.02 16.34 -54 16 C-53.67 18.31 -53.34 20.62 -53 23 C-51.35 23 -49.7 23 -48 23 C-47 26 -47 26 -47 29 C-47.33 29.66 -47.66 30.32 -48 31 C-51.98950786 29.47933557 -53.70094726 27.0629151 -56.125 23.625 C-56.80820312 22.66851562 -57.49140625 21.71203125 -58.1953125 20.7265625 C-59.65573325 18.52012596 -60.89756541 16.39807937 -62 14 C-64.31 14 -66.62 14 -69 14 C-66.54714049 11.54714049 -64.60835712 11.04933764 -61.3125 9.9765625 C-60.1476709 9.59685303 -58.9828418 9.21714355 -57.78271484 8.82592773 C-55.910271 8.23146851 -55.910271 8.23146851 -54 7.625 C-53.36507629 7.42335236 -52.73015259 7.22170471 -52.07598877 7.01394653 C-14.55776479 -4.85258826 -14.55776479 -4.85258826 0 0 Z " fill="#10E7FC" transform="translate(317,253)"/>
<path d="M0 0 C2 2 2 2 2 6 C1.34 6 0.68 6 0 6 C-3.27285058 19.30901207 -5.49258651 32.19566109 -5.5 45.9375 C-5.50580078 47.10966064 -5.51160156 48.28182129 -5.51757812 49.48950195 C-5.49690377 53.76781716 -5.49690377 53.76781716 -5 58 C-4.01 58.66 -3.02 59.32 -2 60 C-1.77892213 62.7885289 -1.71892465 65.34653181 -1.8125 68.125 C-1.82603516 68.87910156 -1.83957031 69.63320313 -1.85351562 70.41015625 C-1.88890015 72.27374127 -1.94270833 74.13695978 -2 76 C-0.68 76.66 0.64 77.32 2 78 C1.34 79.32 0.68 80.64 0 82 C-0.96875839 80.17215398 -1.92446873 78.33739059 -2.875 76.5 C-3.40867187 75.4790625 -3.94234375 74.458125 -4.4921875 73.40625 C-8.29076342 64.82501113 -8.43680196 56.65078988 -8.4375 47.375 C-8.43956451 46.69346863 -8.44162903 46.01193726 -8.4437561 45.30975342 C-8.43513269 29.38160294 -5.16699442 14.99573609 0 0 Z " fill="#4D99C8" transform="translate(129,189)"/>
<path d="M0 0 C0.66 0.99 1.32 1.98 2 3 C4.55183404 4.20450304 4.55183404 4.20450304 7 5 C3.14629245 8.24445474 -0.86015929 10.83568479 -5.1875 13.375 C-5.84588867 13.7656665 -6.50427734 14.15633301 -7.18261719 14.55883789 C-8.50353823 15.34259082 -9.8253001 16.12492859 -11.14794922 16.90576172 C-13.68791657 18.40643845 -16.21960334 19.92075267 -18.75 21.4375 C-19.50796875 21.88996094 -20.2659375 22.34242188 -21.046875 22.80859375 C-22.72361788 23.83140691 -24.36578598 24.91052399 -26 26 C-26.99 26 -27.98 26 -29 26 C-29 26.66 -29 27.32 -29 28 C-30.65 28.33 -32.3 28.66 -34 29 C-32.53847629 25.40544169 -30.66615741 23.71555396 -27.5625 21.4375 C-24.31620518 19.05929196 -24.31620518 19.05929196 -21.4453125 16.265625 C-20.96835938 15.84796875 -20.49140625 15.4303125 -20 15 C-16.3125 15.3125 -16.3125 15.3125 -13 16 C-13 15.01 -13 14.02 -13 13 C-12.34 13 -11.68 13 -11 13 C-11 12.01 -11 11.02 -11 10 C-8.03 10.495 -8.03 10.495 -5 11 C-5.33 9.68 -5.66 8.36 -6 7 C-5.34 7 -4.68 7 -4 7 C-3.896875 6.401875 -3.79375 5.80375 -3.6875 5.1875 C-2.91123545 2.71756736 -1.92911079 1.67748765 0 0 Z " fill="#1C40B5" transform="translate(261,411)"/>
<path d="M0 0 C3.66487856 0.36648786 6.50155939 0.72927695 9.76171875 2.5 C13.55668813 4.25786277 16.523083 4.50103357 20.6875 4.6875 C21.99074219 4.75324219 23.29398438 4.81898438 24.63671875 4.88671875 C29.58616446 5.05342482 33.24496562 4.43548208 38 3 C38 3.66 38 4.32 38 5 C39.32 5.33 40.64 5.66 42 6 C42.33 5.34 42.66 4.68 43 4 C44.32 4 45.64 4 47 4 C47.33 3.34 47.66 2.68 48 2 C48 2.66 48 3.32 48 4 C48.99 3.34 49.98 2.68 51 2 C54.5625 1.75 54.5625 1.75 58 2 C58.66 2.66 59.32 3.32 60 4 C58.48129302 4.485864 56.95989301 4.96331201 55.4375 5.4375 C54.59058594 5.70433594 53.74367187 5.97117187 52.87109375 6.24609375 C38.34300602 10.06095216 18.93747003 10.74607989 5.1875 4.38671875 C3.14534108 3.09213586 1.60401219 1.79923736 0 0 Z " fill="#206CB7" transform="translate(138,279)"/>
<path d="M0 0 C0.66 0.33 1.32 0.66 2 1 C1.61779297 1.50748779 1.23558594 2.01497559 0.84179688 2.5378418 C-11.86006318 18.23075088 -11.86006318 18.23075088 -21 36 C-21.66 36 -22.32 36 -23 36 C-23.268125 36.86625 -23.53625 37.7325 -23.8125 38.625 C-25.3431113 42.97515844 -27.43579855 46.91673321 -29.5625 51 C-30.97692825 53.95185026 -32.03312658 56.87625511 -33 60 C-33.66 59.67 -34.32 59.34 -35 59 C-34.53680089 54.27536912 -33.90108294 50.82942948 -31 47 C-30.34 47 -29.68 47 -29 47 C-28.89042969 46.41992188 -28.78085938 45.83984375 -28.66796875 45.2421875 C-27.6856635 40.40253723 -26.45178089 36.34633884 -24 32 C-23.34 32 -22.68 32 -22 32 C-21.7525 31.484375 -21.505 30.96875 -21.25 30.4375 C-18.9870178 26.02468471 -16.56372867 21.76840435 -13.75 17.6875 C-11.81810894 15.25517529 -11.81810894 15.25517529 -12 13 C-11.34 13 -10.68 13 -10 13 C-10 11.35 -10 9.7 -10 8 C-8.68 8 -7.36 8 -6 8 C-4.3553326 5.53673288 -4.3553326 5.53673288 -3 3 C-2.34 3 -1.68 3 -1 3 C-0.67 2.01 -0.34 1.02 0 0 Z " fill="#0DCAF9" transform="translate(204,124)"/>
<path d="M0 0 C-1.6485215 3.69587886 -3.9339805 6.72200421 -6.375 9.9375 C-7.14585937 10.95714844 -7.91671875 11.97679688 -8.7109375 13.02734375 C-10.16614714 14.91712965 -11.64314534 16.79048409 -13.1484375 18.640625 C-14.72615731 20.65105277 -16.02391464 22.57927309 -17.25 24.8125 C-17.8275 25.864375 -18.405 26.91625 -19 28 C-19.33 28 -19.66 28 -20 28 C-20.36923077 22.46153846 -20.36923077 22.46153846 -18.5 20.125 C-18.005 19.75375 -17.51 19.3825 -17 19 C-21.00180927 21.17241075 -23.86860539 23.70802105 -27 27 C-27.763125 27.70125 -28.52625 28.4025 -29.3125 29.125 C-31.33448237 30.95122132 -31.33448237 30.95122132 -31 34 C-33.475 34.495 -33.475 34.495 -36 35 C-35.67 34.01 -35.34 33.02 -35 32 C-34.34 32 -33.68 32 -33 32 C-32.74041504 31.41516846 -32.48083008 30.83033691 -32.21337891 30.2277832 C-30.91356092 27.84129646 -29.51043278 26.26697789 -27.5859375 24.35546875 C-26.90660156 23.67806641 -26.22726563 23.00066406 -25.52734375 22.30273438 C-24.81707031 21.60470703 -24.10679687 20.90667969 -23.375 20.1875 C-22.68792969 19.50107422 -22.00085938 18.81464844 -21.29296875 18.10742188 C-17.23752558 14.08621791 -13.07711146 10.24179774 -8.73632812 6.53027344 C-7.11721879 5.10330812 -5.61788825 3.61949335 -4.125 2.0625 C-2 0 -2 0 0 0 Z " fill="#0369DB" transform="translate(260,70)"/>
<path d="M0 0 C0.66 0 1.32 0 2 0 C2 0.66 2 1.32 2 2 C2.66 2 3.32 2 4 2 C8.59225513 10.261959 8.59225513 10.261959 8 15 C8.66 15 9.32 15 10 15 C10 17.64 10 20.28 10 23 C10.66 23 11.32 23 12 23 C12 25.31 12 27.62 12 30 C12.66 30 13.32 30 14 30 C14.0498487 34.12593843 14.08592957 38.25175752 14.10986328 42.37792969 C14.11985248 43.77835142 14.13344854 45.17875268 14.15087891 46.57910156 C14.24048615 53.96906389 14.32144933 60.90769811 12 68 C11.67 68 11.34 68 11 68 C11.01047363 67.12899658 11.02094727 66.25799316 11.03173828 65.3605957 C11.06625338 62.06352989 11.09110586 58.76666184 11.10986328 55.46948242 C11.11979131 54.05473765 11.13333825 52.64001266 11.15087891 51.2253418 C11.35518502 34.29797942 9.18486162 19.53151489 1.20703125 4.46875 C0 2 0 2 0 0 Z " fill="#50B0E1" transform="translate(267,284)"/>
<path d="M0 0 C0.33 0.99 0.66 1.98 1 3 C-0.1796875 5.12109375 -0.1796875 5.12109375 -1.875 7.4375 C-3.98706379 10.34035976 -5.22960279 12.50703399 -6 16 C-7.5625 17.75 -7.5625 17.75 -9 19 C-8.67 19.99 -8.34 20.98 -8 22 C-8.78375 22.391875 -9.5675 22.78375 -10.375 23.1875 C-13.4608119 25.31817964 -13.86077258 26.50094435 -15 30 C-16.55131225 33.2436529 -18.21045619 36.35994021 -20.0625 39.4375 C-21.54839394 41.97590215 -22.23293523 43.82212435 -23.0625 46.75 C-23.95728896 49.85193507 -24.50191534 51.06966185 -27 53 C-26.08218716 42.44515231 -20.78299906 33.27901818 -16 24 C-15.34 24 -14.68 24 -14 24 C-13.90074219 23.28457031 -13.80148438 22.56914062 -13.69921875 21.83203125 C-11.71147696 13.78112178 -5.0504004 6.45637267 0 0 Z " fill="#0680E8" transform="translate(197,136)"/>
<path d="M0 0 C1.32 0 2.64 0 4 0 C4 0.66 4 1.32 4 2 C8.7897321 2.23428313 8.7897321 2.23428313 13 0 C13 1.32 13 2.64 13 4 C-25.17450622 17.59703955 -25.17450622 17.59703955 -33 16 C-33 15.67 -33 15.34 -33 15 C-32.3709375 14.90203125 -31.741875 14.8040625 -31.09375 14.703125 C-25.83229032 13.78395433 -21.55958913 12.49539126 -16.875 9.9453125 C-14.04296927 8.51749701 -11.05667591 7.80742382 -8 7 C-7.0925 6.62875 -6.185 6.2575 -5.25 5.875 C-3 5 -3 5 0 5 C-0.2784375 4.0409375 -0.2784375 4.0409375 -0.5625 3.0625 C-0.706875 2.381875 -0.85125 1.70125 -1 1 C-0.67 0.67 -0.34 0.34 0 0 Z " fill="#208FCC" transform="translate(234,264)"/>
<path d="M0 0 C0.66 0 1.32 0 2 0 C1.690625 0.721875 1.38125 1.44375 1.0625 2.1875 C0.07439461 4.80307309 -0.5287754 7.25118982 -1 10 C-1.99 10.33 -2.98 10.66 -4 11 C-3.67 11.66 -3.34 12.32 -3 13 C-3.33 13.66 -3.66 14.32 -4 15 C-3.01 15.33 -2.02 15.66 -1 16 C-4 17 -4 17 -6.125 16.1875 C-8 15 -8 15 -9 13 C-11.2477975 15.05233685 -12.0022242 16.00667261 -13 19 C-13.66 19 -14.32 19 -15 19 C-14.67 20.32 -14.34 21.64 -14 23 C-15.98 22.67 -17.96 22.34 -20 22 C-17.83432275 17.53329066 -14.79149469 14.96904712 -11.06640625 11.84765625 C-8.48657227 9.54092379 -6.36250755 6.99983502 -4.2265625 4.28515625 C-3.82179688 3.86105469 -3.41703125 3.43695313 -3 3 C-2.34 3 -1.68 3 -1 3 C-0.67 2.01 -0.34 1.02 0 0 Z M-23 22 C-22.01 22 -21.02 22 -20 22 C-20 22.99 -20 23.98 -20 25 C-20.66 25 -21.32 25 -22 25 C-22 25.99 -22 26.98 -22 28 C-25 29 -25 29 -27.1875 28.0625 C-27.785625 27.711875 -28.38375 27.36125 -29 27 C-28.38125 26.731875 -27.7625 26.46375 -27.125 26.1875 C-24.7004767 25.04443152 -24.7004767 25.04443152 -23 22 Z " fill="#0231B9" transform="translate(270,399)"/>
<path d="M0 0 C-0.75 2.4375 -0.75 2.4375 -2 5 C-3.9375 5.5625 -3.9375 5.5625 -6 6 C-7.63676257 7.9600281 -7.63676257 7.9600281 -9 10 C-9.99 10.495 -9.99 10.495 -11 11 C-11 11.66 -11 12.32 -11 13 C-13.31 13.66 -15.62 14.32 -18 15 C-18.0825 15.556875 -18.165 16.11375 -18.25 16.6875 C-19.58386068 20.80023708 -22.74951117 24.19275965 -26 27 C-26.66 27 -27.32 27 -28 27 C-26.50328459 22.50985376 -24.16631659 18.52151236 -21 15 C-20.34 15 -19.68 15 -19 15 C-18.731875 14.4225 -18.46375 13.845 -18.1875 13.25 C-16.97070811 10.94449957 -15.69666121 8.97943808 -14 7 C-13.34 7 -12.68 7 -12 7 C-11.91492188 6.38769531 -11.82984375 5.77539062 -11.7421875 5.14453125 C-11 3 -11 3 -9.2578125 1.69921875 C-8.55398437 1.36535156 -7.85015625 1.03148437 -7.125 0.6875 C-6.42632812 0.34074219 -5.72765625 -0.00601563 -5.0078125 -0.36328125 C-3 -1 -3 -1 0 0 Z " fill="#51D1E2" transform="translate(176,130)"/>
<path d="M0 0 C2.08471533 -0.0097099 4.16844454 -0.0408017 6.25292969 -0.07226562 C14.99634383 -0.14171375 22.32261775 0.30752641 29.72167969 5.24023438 C23.77376541 6.91308527 18.15704781 6.16697106 12.72167969 3.24023438 C12.06167969 3.57023438 11.40167969 3.90023437 10.72167969 4.24023438 C10.22667969 3.25023437 10.22667969 3.25023437 9.72167969 2.24023438 C-1.14174424 1.93342219 -10.79917128 2.01467048 -21.27832031 5.24023438 C-23.0244062 5.65299107 -24.77425745 6.05031218 -26.52832031 6.42773438 C-27.76582031 6.69585937 -29.00332031 6.96398437 -30.27832031 7.24023438 C-30.27832031 6.58023438 -30.27832031 5.92023438 -30.27832031 5.24023438 C-30.93832031 4.91023437 -31.59832031 4.58023438 -32.27832031 4.24023438 C-30.42535196 3.75645446 -28.57087591 3.27844802 -26.71582031 2.80273438 C-25.16701172 2.40248047 -25.16701172 2.40248047 -23.58691406 1.99414062 C-15.73515635 0.2050152 -8.00884107 0.02252839 0 0 Z " fill="#23B8D9" transform="translate(327.2783203125,211.759765625)"/>
<path d="M0 0 C0.33 0 0.66 0 1 0 C1.58446329 20.59783498 1.44976711 40.80824173 -7 60 C-7.33 60 -7.66 60 -8 60 C-8.33 56.04 -8.66 52.08 -9 48 C-7.515 47.505 -7.515 47.505 -6 47 C-4.0725029 42.56742827 -3.45351819 38.01774092 -2.9375 33.25 C-2.81290405 32.15594849 -2.81290405 32.15594849 -2.68579102 31.03979492 C-2.00247393 24.72734256 -1.61237477 18.40804031 -1.34155273 12.06542969 C-1.15888027 7.9709501 -0.76735405 4.02702331 0 0 Z " fill="#5AAAD0" transform="translate(377,249)"/>
<path d="M0 0 C0.33 0 0.66 0 1 0 C0.98952637 0.66418945 0.97905273 1.32837891 0.96826172 2.01269531 C0.60869326 19.1200091 0.60869326 19.1200091 3 36 C3.33419074 37.81234211 3.66754677 39.62483836 4 41.4375 C4.5418479 44.14240473 5.14703848 46.36372676 6.1875 48.9375 C7 51 7 51 6 54 C2.73456476 48.86956361 1.21066977 44.60912499 0.3125 38.625 C-0.05870063 33.93173054 -0.05870063 33.93173054 -2 30 C-2.21367451 27.28752076 -2.3773322 24.59186451 -2.5 21.875 C-2.70149475 17.54659435 -2.94650054 13.34199021 -3.6171875 9.0546875 C-3.74351562 8.04664063 -3.86984375 7.03859375 -4 6 C-2.625 4.25 -2.625 4.25 -1 3 C-0.67 2.01 -0.34 1.02 0 0 Z " fill="#2B90E2" transform="translate(221,149)"/>
<path d="M0 0 C3.1289835 2.81608515 4.56421722 5.07552707 6 9 C6.53625 9.886875 7.0725 10.77375 7.625 11.6875 C9 14 9 14 9 16 C9.99 16.33 10.98 16.66 12 17 C13.03789581 18.64333504 14.03567924 20.31243867 15 22 C15.556875 22.556875 16.11375 23.11375 16.6875 23.6875 C17.120625 24.120625 17.55375 24.55375 18 25 C18 25.66 18 26.32 18 27 C23.445 26.01 23.445 26.01 29 25 C28.67 25.66 28.34 26.32 28 27 C25.41796875 27.7734375 25.41796875 27.7734375 22.1875 28.375 C21.12917969 28.58898437 20.07085937 28.80296875 18.98046875 29.0234375 C16 29 16 29 13.6484375 27.17578125 C11.99229862 24.98983491 11.6273672 23.59909267 11 21 C10.01 20.67 9.02 20.34 8 20 C3.53037699 15.67455838 1.64676201 9.87753887 0 4 C0 2.68 0 1.36 0 0 Z " fill="#66E2ED" transform="translate(228,204)"/>
<path d="M0 0 C0 6.62777316 -5.79632693 12.10812555 -10.046875 16.79296875 C-12.2940654 19.3322939 -14.38885537 21.97170768 -16.5 24.625 C-20.0232032 28.9700825 -23.61028281 32.54426519 -28 36 C-27.66051201 32.0393068 -26.52848075 30.22645481 -23.64453125 27.55859375 C-17.13492309 21.38915513 -11.68818336 14.43407755 -6.62890625 7.0546875 C-6.09136719 6.37664062 -5.55382812 5.69859375 -5 5 C-4.34 5 -3.68 5 -3 5 C-2.690625 4.360625 -2.38125 3.72125 -2.0625 3.0625 C-1 1 -1 1 0 0 Z " fill="#0848D4" transform="translate(303,360)"/>
<path d="M0 0 C1.42934749 3.41171634 0.64266423 5.67801219 -0.68847656 9.02392578 C-0.9562793 9.65540527 -1.22408203 10.28688477 -1.5 10.9375 C-1.77553711 11.59991699 -2.05107422 12.26233398 -2.33496094 12.94482422 C-7.40053326 24.86800768 -13.86453161 34.99844831 -22 45 C-22 41.51038791 -21.09620626 39.88519705 -19.5 36.8125 C-19.0359375 35.91144531 -18.571875 35.01039063 -18.09375 34.08203125 C-17.7328125 33.39496094 -17.371875 32.70789063 -17 32 C-16.34 32 -15.68 32 -15 32 C-14.92265625 31.48308594 -14.8453125 30.96617187 -14.765625 30.43359375 C-13.67445711 26.96523868 -11.68634524 24.10810834 -9.75 21.0625 C-5.5461523 14.29005205 -2.5423846 7.57605058 0 0 Z " fill="#0771E1" transform="translate(327,315)"/>
<path d="M0 0 C0.66 0.33 1.32 0.66 2 1 C0.67765817 4.9670255 -0.91751495 7.19774087 -4 10 C-4.474375 10.5775 -4.94875 11.155 -5.4375 11.75 C-7.62447555 13.49958044 -9.28272205 13.22031983 -12 13 C-12 13.66 -12 14.32 -12 15 C-13.32 15.33 -14.64 15.66 -16 16 C-16 13.69 -16 11.38 -16 9 C-13.23735711 8.40267181 -10.83967231 8 -8 8 C-6.89363605 5.60931266 -6.89363605 5.60931266 -6 3 C-6.33 2.34 -6.66 1.68 -7 1 C-5.33388095 0.957279 -3.66617115 0.95936168 -2 1 C-1.67 1.33 -1.34 1.66 -1 2 C-0.67 1.34 -0.34 0.68 0 0 Z M-4 3 C-4.33 3.66 -4.66 4.32 -5 5 C-4.01 5 -3.02 5 -2 5 C-2 4.34 -2 3.68 -2 3 C-2.66 3 -3.32 3 -4 3 Z " fill="#1649BB" transform="translate(304,384)"/>
<path d="M0 0 C1.32 0.66 2.64 1.32 4 2 C3.01 2.495 3.01 2.495 2 3 C2.12375 3.886875 2.2475 4.77375 2.375 5.6875 C2 9 2 9 -0.875 11.6875 C-1.90625 12.450625 -2.9375 13.21375 -4 14 C-4.99 15.485 -4.99 15.485 -6 17 C-6.99 17.33 -7.98 17.66 -9 18 C-10.68538601 19.99665314 -10.68538601 19.99665314 -12 22 C-12.99 21.67 -13.98 21.34 -15 21 C-13.71937515 19.2925002 -12.38232443 17.62626404 -11 16 C-10.34 16 -9.68 16 -9 16 C-8.67 14.68 -8.34 13.36 -8 12 C-7.34 12 -6.68 12 -6 12 C-5.7525 11.319375 -5.505 10.63875 -5.25 9.9375 C-3.75802092 6.43134917 -1.93164489 3.28379632 0 0 Z " fill="#1F4DD8" transform="translate(256,404)"/>
<path d="M0 0 C-0.41592209 2.49553255 -0.81396064 4.63833948 -1.9765625 6.8984375 C-3.03916707 9.08042703 -3.53323658 10.99950759 -4 13.375 C-4.54112716 15.97917444 -5.12375901 18.35580714 -6 20.875 C-7.47742598 25.49195618 -8.20138291 30.22528931 -9 35 C-9.33 35 -9.66 35 -10 35 C-10.28096287 28.08519161 -9.6075984 21.60260455 -8.4375 14.78515625 C-7.92241006 11.97594167 -7.92241006 11.97594167 -8 9 C-7.34 8.67 -6.68 8.34 -6 8 C-5.67 6.845 -5.34 5.69 -5 4.5 C-4.67 3.345 -4.34 2.19 -4 1 C-2 0 -2 0 0 0 Z " fill="#397ADE" transform="translate(232,114)"/>
<path d="M0 0 C0.08353171 4.5942442 -0.11183236 6.91241359 -3.0703125 10.53515625 C-5.32409757 12.76421327 -7.61195789 14.91589052 -10 17 C-10.99 16.67 -11.98 16.34 -13 16 C-12.34 14.68 -11.68 13.36 -11 12 C-10.34 12 -9.68 12 -9 12 C-8.67 10.35 -8.34 8.7 -8 7 C-8.99 6.67 -9.98 6.34 -11 6 C-10.67 5.34 -10.34 4.68 -10 4 C-8.35 4 -6.7 4 -5 4 C-4.67 3.01 -4.34 2.02 -4 1 C-2 0 -2 0 0 0 Z " fill="#0CF6FB" transform="translate(242,79)"/>
<path d="M0 0 C0.33 1.32 0.66 2.64 1 4 C3.97 4.495 3.97 4.495 7 5 C7.33 7.31 7.66 9.62 8 12 C9.65 12 11.3 12 13 12 C14 15 14 15 14 18 C13.67 18.66 13.34 19.32 13 20 C9.01049214 18.47933557 7.29905274 16.0629151 4.875 12.625 C4.19179688 11.66851562 3.50859375 10.71203125 2.8046875 9.7265625 C1.34426675 7.52012596 0.10243459 5.39807937 -1 3 C-3.31 3 -5.62 3 -8 3 C-5.36657694 0.36657694 -3.69534435 0 0 0 Z " fill="#3BEAF0" transform="translate(256,264)"/>
<path d="M0 0 C2.0625 0.4375 2.0625 0.4375 4 1 C4 2.98 4 4.96 4 7 C3.01 7 2.02 7 1 7 C1 9.31 1 11.62 1 14 C-0.32 14.33 -1.64 14.66 -3 15 C-3.33 16.98 -3.66 18.96 -4 21 C-5.65 20.67 -7.3 20.34 -9 20 C-8.01 16.535 -8.01 16.535 -7 13 C-5.35 12.67 -3.7 12.34 -2 12 C-1.13090303 9.28407197 -1 7.21656157 -1 4.3125 C-1 1 -1 1 0 0 Z " fill="#1151ED" transform="translate(231,100)"/>
<path d="M0 0 C0.12375 0.61875 0.2475 1.2375 0.375 1.875 C0.87197356 4.19120832 0.87197356 4.19120832 3 6 C2.34 6 1.68 6 1 6 C0.87625 7.216875 0.7525 8.43375 0.625 9.6875 C0.21108694 13.06479059 -0.54573451 15.89756695 -2 19 C-2.33 18.34 -2.66 17.68 -3 17 C-3.99 17 -4.98 17 -6 17 C-6 17.66 -6 18.32 -6 19 C-6.66 19 -7.32 19 -8 19 C-8 19.66 -8 20.32 -8 21 C-8.66 20.67 -9.32 20.34 -10 20 C-6.66666667 13.33333333 -3.33333333 6.66666667 0 0 Z " fill="#3C68E5" transform="translate(269,380)"/>
<path d="M0 0 C0.33 0.66 0.66 1.32 1 2 C0.67 2.99 0.34 3.98 0 5 C-0.66 5 -1.32 5 -2 5 C-2.268125 5.86625 -2.53625 6.7325 -2.8125 7.625 C-4.3431113 11.97515844 -6.43579855 15.91673321 -8.5625 20 C-9.97692825 22.95185026 -11.03312658 25.87625511 -12 29 C-12.66 28.67 -13.32 28.34 -14 28 C-13.53680089 23.27536912 -12.90108294 19.82942948 -10 16 C-9.34 16 -8.68 16 -8 16 C-7.89042969 15.41992188 -7.78085938 14.83984375 -7.66796875 14.2421875 C-6.6936018 9.4416479 -5.63115888 5.20985421 -3 1 C-2.01 0.67 -1.02 0.34 0 0 Z " fill="#0DB8F3" transform="translate(183,155)"/>
<path d="M0 0 C0.99 0.33 1.98 0.66 3 1 C-0.87792288 5.92908146 -4.76116833 9.5423711 -10 13 C-10 12.01 -10 11.02 -10 10 C-12.31 10.33 -14.62 10.66 -17 11 C-14.60490662 8.10067643 -12.68754757 7.49831724 -9 7 C-9 6.34 -9 5.68 -9 5 C-8.43410156 4.72285156 -7.86820312 4.44570313 -7.28515625 4.16015625 C-6.55167969 3.79792969 -5.81820313 3.43570313 -5.0625 3.0625 C-3.96615234 2.52302734 -3.96615234 2.52302734 -2.84765625 1.97265625 C-1.03750973 1.13628173 -1.03750973 1.13628173 0 0 Z " fill="#7CECEF" transform="translate(270,58)"/>
<path d="M0 0 C1.32 0 2.64 0 4 0 C1.10995576 7.43722393 -2.3743249 14.48979059 -7 21 C-9 18 -9 18 -8.875 14.4375 C-8 11 -8 11 -6.0625 9.75 C-5.381875 9.5025 -4.70125 9.255 -4 9 C-3.34 8.01 -2.68 7.02 -2 6 C-1.34 6 -0.68 6 0 6 C0 4.02 0 2.04 0 0 Z " fill="#1471C8" transform="translate(361,319)"/>
<path d="M0 0 C0 2 0 2 -1.6796875 3.69140625 C-2.40414063 4.30886719 -3.12859375 4.92632812 -3.875 5.5625 C-4.95394531 6.49255859 -4.95394531 6.49255859 -6.0546875 7.44140625 C-8 9 -8 9 -10 10 C-10.33 8.68 -10.66 7.36 -11 6 C-11.99 6.495 -11.99 6.495 -13 7 C-13.99 7 -14.98 7 -16 7 C-16.33 7.99 -16.66 8.98 -17 10 C-18.32 9.67 -19.64 9.34 -21 9 C-18.92062051 7.68085608 -16.83691981 6.36961787 -14.75 5.0625 C-14.16347656 4.68931641 -13.57695312 4.31613281 -12.97265625 3.93164062 C-8.26106677 0.9935146 -5.50554351 0 0 0 Z " fill="#1AE9FB" transform="translate(260,68)"/>
<path d="M0 0 C-1.65640849 3.70465555 -3.94056118 6.76486535 -6.375 10 C-7.14585937 11.03125 -7.91671875 12.0625 -8.7109375 13.125 C-10.68556435 15.60507741 -12.70479246 17.82007686 -15 20 C-15.33 18.35 -15.66 16.7 -16 15 C-15.01 14.67 -14.02 14.34 -13 14 C-12.33234109 12.33373057 -11.66584658 10.66699447 -11 9 C-8.90625 6.54296875 -8.90625 6.54296875 -6.5 4.1875 C-5.7059375 3.39730469 -4.911875 2.60710937 -4.09375 1.79296875 C-2 0 -2 0 0 0 Z " fill="#4C85D5" transform="translate(260,70)"/>
<path d="M0 0 C2 2 2 2 2 6 C1.34 6 0.68 6 0 6 C-1.65 14.25 -3.3 22.5 -5 31 C-5.66 31 -6.32 31 -7 31 C-6.3074289 20.20544352 -3.56144661 10.17556175 0 0 Z " fill="#51AED2" transform="translate(129,189)"/>
<path d="M0 0 C2 1 4 2 6 3 C4.40089132 4.00806851 2.79551738 5.00620385 1.1875 6 C-0.15248047 6.8353125 -0.15248047 6.8353125 -1.51953125 7.6875 C-4 9 -4 9 -7 9 C-7 9.66 -7 10.32 -7 11 C-8.65 11.33 -10.3 11.66 -12 12 C-10.52739378 8.35469608 -8.57140363 6.63148808 -5.4375 4.3125 C-4.63183594 3.71050781 -3.82617188 3.10851562 -2.99609375 2.48828125 C-2.33738281 1.99714844 -1.67867187 1.50601562 -1 1 C-0.67 0.67 -0.34 0.34 0 0 Z " fill="#5767B6" transform="translate(239,428)"/>
<path d="M0 0 C1.49348318 2.98696636 0.68553973 5.29836912 0.1875 8.5625 C0.01605469 9.73941406 -0.15539062 10.91632813 -0.33203125 12.12890625 C-0.66267578 13.55009766 -0.66267578 13.55009766 -1 15 C-1.99 15.495 -1.99 15.495 -3 16 C-5 14 -5 14 -6 11 C-6 9.68 -6 8.36 -6 7 C-5.34 7 -4.68 7 -4 7 C-3.67 5.02 -3.34 3.04 -3 1 C-2.01 0.67 -1.02 0.34 0 0 Z " fill="#1772E8" transform="translate(222,137)"/>
<path d="M0 0 C0.33 0.99 0.66 1.98 1 3 C-0.1796875 5.12109375 -0.1796875 5.12109375 -1.875 7.4375 C-3.98706379 10.34035976 -5.22960279 12.50703399 -6 16 C-7.5625 17.75 -7.5625 17.75 -9 19 C-8.67 19.99 -8.34 20.98 -8 22 C-9.65 22.66 -11.3 23.32 -13 24 C-10.50689743 14.94610119 -6.16055481 7.10833247 0 0 Z " fill="#0576E5" transform="translate(197,136)"/>
<path d="M0 0 C0.33 0 0.66 0 1 0 C1.07409401 3.95092059 1.12857406 7.90157294 1.16479492 11.85302734 C1.18732251 13.85919374 1.2254357 15.86516526 1.26367188 17.87109375 C1.27333984 19.12792969 1.28300781 20.38476562 1.29296875 21.6796875 C1.3086792 22.84226074 1.32438965 24.00483398 1.34057617 25.20263672 C1.22818604 26.1257666 1.1157959 27.04889648 1 28 C0.01 28.66 -0.98 29.32 -2 30 C-1.86041196 26.12474874 -1.71222112 22.24987195 -1.5625 18.375 C-1.52318359 17.28058594 -1.48386719 16.18617188 -1.44335938 15.05859375 C-1.40146484 13.99511719 -1.35957031 12.93164062 -1.31640625 11.8359375 C-1.27974854 10.86188965 -1.24309082 9.8878418 -1.20532227 8.88427734 C-0.99106712 5.8745148 -0.54068643 2.96704084 0 0 Z " fill="#3BAAD7" transform="translate(377,249)"/>
<path d="M0 0 C0.99 0.33 1.98 0.66 3 1 C3 1.66 3 2.32 3 3 C2.34 3 1.68 3 1 3 C0.76539063 3.70511719 0.53078125 4.41023438 0.2890625 5.13671875 C-1.23952323 8.53203191 -3.22719573 10.96938922 -5.625 13.8125 C-6.85089844 15.27623047 -6.85089844 15.27623047 -8.1015625 16.76953125 C-8.72804688 17.50558594 -9.35453125 18.24164063 -10 19 C-10.99 18.67 -11.98 18.34 -13 18 C-13 17.01 -13 16.02 -13 15 C-8.77777778 12 -8.77777778 12 -6 12 C-5.5978125 10.2984375 -5.5978125 10.2984375 -5.1875 8.5625 C-4.5996875 6.7990625 -4.5996875 6.7990625 -4 5 C-3.01 4.67 -2.02 4.34 -1 4 C-0.26676204 1.98491642 -0.26676204 1.98491642 0 0 Z " fill="#4484C9" transform="translate(350,339)"/>
<path d="M0 0 C-3.4049334 2.93082875 -7.11108393 4.34258807 -11.3125 5.75 C-11.95123047 5.98332031 -12.58996094 6.21664063 -13.24804688 6.45703125 C-17.85630298 8.01646138 -21.26926108 8.00367553 -26 7 C-26 6.67 -26 6.34 -26 6 C-25.05640625 5.85304688 -25.05640625 5.85304688 -24.09375 5.703125 C-19.64572861 4.92606102 -15.83265353 4.0982237 -11.875 1.875 C-7.76670634 -0.38875365 -4.63604743 -0.33114624 0 0 Z " fill="#388AC6" transform="translate(227,273)"/>
<path d="M0 0 C0.33 0 0.66 0 1 0 C1.12117187 0.75023437 1.24234375 1.50046875 1.3671875 2.2734375 C2.9563657 13.81614301 2.9563657 13.81614301 6.1875 24.9375 C7 27 7 27 6 30 C-0.18422777 20.51751742 -0.31314944 11.09940799 0 0 Z " fill="#53C2E0" transform="translate(221,173)"/>
<path d="M0 0 C0.33 0.66 0.66 1.32 1 2 C1.99 1.34 2.98 0.68 4 0 C7.5625 -0.25 7.5625 -0.25 11 0 C11.66 0.66 12.32 1.32 13 2 C7.17745757 3.96818336 2.16618181 5.40214229 -4 5 C-4 4.01 -4 3.02 -4 2 C-2.68 2 -1.36 2 0 2 C0 1.34 0 0.68 0 0 Z " fill="#2476BE" transform="translate(185,281)"/>
<path d="M0 0 C1.18408447 -0.0009668 1.18408447 -0.0009668 2.39208984 -0.00195312 C5.67327711 0.02918171 8.36770383 0.14340128 11.5 1.1875 C11.5 1.8475 11.5 2.5075 11.5 3.1875 C10.26636719 3.06181641 10.26636719 3.06181641 9.0078125 2.93359375 C2.81265741 2.36844681 -2.96209508 2.14064495 -9.1328125 2.9296875 C-12.9294781 3.34318573 -16.68440383 3.24904187 -20.5 3.1875 C-20.5 2.8575 -20.5 2.5275 -20.5 2.1875 C-13.65365824 0.49853463 -7.02121348 -0.00563161 0 0 Z " fill="#0CDDFC" transform="translate(305.5,251.8125)"/>
<path d="M0 0 C3.11364609 2.80228148 4.59219741 5.07826421 6 9 C6.99 10.485 6.99 10.485 8 12 C8.125 15.1875 8.125 15.1875 8 18 C4.31199234 15.69886917 3.14453512 13.64096183 1.75 9.5625 C1.41484375 8.61503906 1.0796875 7.66757813 0.734375 6.69140625 C0 4 0 4 0 0 Z " fill="#2EDFF1" transform="translate(228,204)"/>
<path d="M0 0 C3.69522158 0.36952216 6.56112926 0.77102396 9.875 2.5 C13.88872368 4.42658736 17.60048724 4.71647584 22 5 C21.67 5.99 21.34 6.98 21 8 C12.86304398 7.72876813 7.06820635 4.91083499 0 1 C0 0.67 0 0.34 0 0 Z " fill="#4A8BC9" transform="translate(138,279)"/>
<path d="M0 0 C0 0.66 0 1.32 0 2 C-6.9796804 3.77149249 -13.96212627 5.47512736 -21 7 C-21 6.34 -21 5.68 -21 5 C-21.66 4.67 -22.32 4.34 -23 4 C-7.67924528 0 -7.67924528 0 0 0 Z " fill="#50C2DD" transform="translate(318,212)"/>
<path d="M0 0 C0.84820312 0.48855469 1.69640625 0.97710937 2.5703125 1.48046875 C9.28193345 4.45406847 17.62255249 3.88886179 24.625 1.875 C28 1 28 1 30.2109375 1.9453125 C30.80132812 2.29335937 31.39171875 2.64140625 32 3 C25.40628059 4.595025 18.95007462 5.23624414 12.1875 5.3125 C11.11254272 5.33860352 11.11254272 5.33860352 10.01586914 5.36523438 C5.26386509 5.36081031 2.07097298 4.42213306 -2 2 C-1.34 1.34 -0.68 0.68 0 0 Z " fill="#0EE0FC" transform="translate(179,241)"/>
<path d="M0 0 C0.99 0.33 1.98 0.66 3 1 C2.31292969 1.54269531 1.62585938 2.08539063 0.91796875 2.64453125 C0.01691406 3.35996094 -0.88414062 4.07539062 -1.8125 4.8125 C-2.70582031 5.52019531 -3.59914062 6.22789063 -4.51953125 6.95703125 C-6.47076911 8.56411377 -8.26274976 10.17040423 -10 12 C-10.66 11.67 -11.32 11.34 -12 11 C-10.68 8.69 -9.36 6.38 -8 4 C-7.34 4 -6.68 4 -6 4 C-6 3.34 -6 2.68 -6 2 C-4.02 2 -2.04 2 0 2 C0 1.34 0 0.68 0 0 Z " fill="#3CE7ED" transform="translate(202,104)"/>
<path d="M0 0 C0.66 0.33 1.32 0.66 2 1 C1.67 1.66 1.34 2.32 1 3 C2.32 3.33 3.64 3.66 5 4 C3.06891037 5.03290841 1.129882 6.05098672 -0.8125 7.0625 C-1.89144531 7.63097656 -2.97039062 8.19945312 -4.08203125 8.78515625 C-7 10 -7 10 -10 9 C-9.67 7.68 -9.34 6.36 -9 5 C-6.69 5.33 -4.38 5.66 -2 6 C-2 5.01 -2 4.02 -2 3 C-1.34 3 -0.68 3 0 3 C0 2.01 0 1.02 0 0 Z " fill="#344BB4" transform="translate(250,421)"/>
<path d="M0 0 C-1.26941497 3.91402949 -2.51167694 5.79072873 -6 8 C-7.9375 7.25 -7.9375 7.25 -10 6 C-10.75 3.875 -10.75 3.875 -11 2 C-7.38631295 0.19315648 -4.01574802 0 0 0 Z " fill="#0B30B5" transform="translate(276,408)"/>
<path d="M0 0 C1.80044165 2.6678077 2.00985046 3.90269671 1.6796875 7.1640625 C1.41414063 8.30617188 1.14859375 9.44828125 0.875 10.625 C0.49988281 12.34589844 0.49988281 12.34589844 0.1171875 14.1015625 C-1 17 -1 17 -5 19 C-4.34 15.37 -3.68 11.74 -3 8 C-2.34 8 -1.68 8 -1 8 C-0.67 5.36 -0.34 2.72 0 0 Z " fill="#1278E7" transform="translate(280,344)"/>
<path d="M0 0 C0 5.47579236 -3.98594465 10.14421318 -7.6875 14 C-10 16 -10 16 -12 16 C-10.25731793 12.03935893 -7.85325271 8.25563451 -5 5 C-4.34 5 -3.68 5 -3 5 C-2.690625 4.360625 -2.38125 3.72125 -2.0625 3.0625 C-1 1 -1 1 0 0 Z " fill="#0451D4" transform="translate(303,360)"/>
<path d="M0 0 C1 2 1 2 0.4375 3.8125 C-1.64253546 6.97777135 -3.90663332 8.79045237 -7 11 C-7.99 10.67 -8.98 10.34 -10 10 C-8.26548969 5.31682216 -4.40759243 2.20379621 0 0 Z " fill="#2C66BC" transform="translate(338,356)"/>
<path d="M0 0 C0.66 0 1.32 0 2 0 C2.50757862 1.41396902 3.00574925 2.83131729 3.5 4.25 C3.7784375 5.03890625 4.056875 5.8278125 4.34375 6.640625 C5 9 5 9 5 13 C6.32 13.66 7.64 14.32 9 15 C8.34 16.32 7.68 17.64 7 19 C0.29612756 6.51480638 0.29612756 6.51480638 0 0 Z " fill="#5F9ED1" transform="translate(122,252)"/>
<path d="M0 0 C3.465 1.98 3.465 1.98 7 4 C7 4.66 7 5.32 7 6 C7.99 6.33 8.98 6.66 10 7 C11.58965571 9.21701147 12.72327486 11.57862473 14 14 C13.01 14.495 13.01 14.495 12 15 C11.34 14.67 10.68 14.34 10 14 C10 12.68 10 11.36 10 10 C9.1028125 9.566875 9.1028125 9.566875 8.1875 9.125 C6 8 6 8 3 6 C3 5.01 3 4.02 3 3 C2.01 2.67 1.02 2.34 0 2 C0 1.34 0 0.68 0 0 Z " fill="#4EC3DC" transform="translate(357,217)"/>
<path d="M0 0 C-0.75 2.4375 -0.75 2.4375 -2 5 C-3.875 5.625 -3.875 5.625 -6 6 C-8.2072358 7.48800372 -8.2072358 7.48800372 -10 9 C-10.36540804 4.49330085 -10.36540804 4.49330085 -8.75 2.3125 C-3.92307692 -1.30769231 -3.92307692 -1.30769231 0 0 Z " fill="#10D4E9" transform="translate(176,130)"/>
<path d="M0 0 C1.4540625 0.0309375 1.4540625 0.0309375 2.9375 0.0625 C3.2675 1.7125 3.5975 3.3625 3.9375 5.0625 C2.6175 5.0625 1.2975 5.0625 -0.0625 5.0625 C-0.0625 5.7225 -0.0625 6.3825 -0.0625 7.0625 C-1.3825 7.3925 -2.7025 7.7225 -4.0625 8.0625 C-4.10491723 5.72955225 -4.10342937 3.39547433 -4.0625 1.0625 C-3.0625 0.0625 -3.0625 0.0625 0 0 Z " fill="#0838B7" transform="translate(292.0625,391.9375)"/>
<path d="M0 0 C0.99 0.33 1.98 0.66 3 1 C2.54625 1.721875 2.0925 2.44375 1.625 3.1875 C0.14505642 5.74894081 -0.97217539 8.23277989 -2 11 C-3.32 10.34 -4.64 9.68 -6 9 C-5.34 7.68 -4.68 6.36 -4 5 C-3.67 5.33 -3.34 5.66 -3 6 C-2.690625 5.195625 -2.38125 4.39125 -2.0625 3.5625 C-1 1 -1 1 0 0 Z M-5 11 C-4.01 11.495 -4.01 11.495 -3 12 C-3 13.32 -3 14.64 -3 16 C-3.66 16 -4.32 16 -5 16 C-5 14.35 -5 12.7 -5 11 Z " fill="#0F59EA" transform="translate(275,375)"/>
<path d="M0 0 C0 3.69418201 -1.28179295 5.77836178 -3 9 C-3.33 8.01 -3.66 7.02 -4 6 C-2.0625 2.8125 -2.0625 2.8125 0 0 Z M-7 10 C-6.34 10.33 -5.68 10.66 -5 11 C-7.64 14.63 -10.28 18.26 -13 22 C-13 18.86152691 -12.51037331 17.61540997 -11.125 14.875 C-10.77695312 14.17117188 -10.42890625 13.46734375 -10.0703125 12.7421875 C-9 11 -9 11 -7 10 Z " fill="#0561DA" transform="translate(318,338)"/>
<path d="M0 0 C1.625 1.3125 1.625 1.3125 3 3 C3 3.99 3 4.98 3 6 C3.66 6.33 4.32 6.66 5 7 C1.7 7 -1.6 7 -5 7 C-5 5.02 -5 3.04 -5 1 C-2 0 -2 0 0 0 Z " fill="#04BDEC" transform="translate(357,217)"/>
<path d="M0 0 C0.66 0.33 1.32 0.66 2 1 C1.3125 2.9375 1.3125 2.9375 0 5 C-1.66321482 5.35015049 -3.33034549 5.68197057 -5 6 C-5.99 7.0209375 -5.99 7.0209375 -7 8.0625 C-9 10 -9 10 -11.75 10.25 C-12.4925 10.1675 -13.235 10.085 -14 10 C-13.67 9.34 -13.34 8.68 -13 8 C-12.01 8 -11.02 8 -10 8 C-10 7.34 -10 6.68 -10 6 C-7.8828125 4.45703125 -7.8828125 4.45703125 -5.125 2.8125 C-4.22007812 2.26207031 -3.31515625 1.71164063 -2.3828125 1.14453125 C-1.20332031 0.57798828 -1.20332031 0.57798828 0 0 Z " fill="#6DF3F2" transform="translate(237,78)"/>
<path d="M0 0 C1.32 0.66 2.64 1.32 4 2 C3.01 2.495 3.01 2.495 2 3 C2 4.98 2 6.96 2 9 C1.01 9.495 1.01 9.495 0 10 C0 9.34 0 8.68 0 8 C-1.65 8.66 -3.3 9.32 -5 10 C-3.66511872 6.40608886 -2.03977277 3.24509304 0 0 Z " fill="#4B74E2" transform="translate(256,404)"/>
<path d="M0 0 C0.66 0 1.32 0 2 0 C1.28028381 3.75345656 -0.33112202 6.86091969 -2.0625 10.25 C-2.61035156 11.32765625 -3.15820312 12.4053125 -3.72265625 13.515625 C-4.14417969 14.33546875 -4.56570312 15.1553125 -5 16 C-5.33 16 -5.66 16 -6 16 C-6 13.69 -6 11.38 -6 9 C-5.01 9 -4.02 9 -3 9 C-3.33 7.02 -3.66 5.04 -4 3 C-3.01 2.67 -2.02 2.34 -1 2 C-0.67 1.34 -0.34 0.68 0 0 Z " fill="#406BDA" transform="translate(238,98)"/>
<path d="M0 0 C0.66 0.33 1.32 0.66 2 1 C0.73604399 5.52917571 -0.94102273 8.44763929 -4 12 C-4.33 12.66 -4.66 13.32 -5 14 C-5.66 14 -6.32 14 -7 14 C-7 14.66 -7 15.32 -7 16 C-7.66 15.67 -8.32 15.34 -9 15 C-6.03 10.05 -3.06 5.1 0 0 Z " fill="#5CCBE0" transform="translate(146,157)"/>
<path d="M0 0 C-0.41430992 2.4858595 -0.80650363 4.6254909 -1.96875 6.875 C-3.08032364 9.16551538 -3.61248908 11.26066125 -4.125 13.75 C-4.29257813 14.54921875 -4.46015625 15.3484375 -4.6328125 16.171875 C-4.81457031 17.07679688 -4.81457031 17.07679688 -5 18 C-6.30079252 14.26368105 -5.78881096 11.17559848 -5.1875 7.3125 C-5.01605469 6.15363281 -4.84460938 4.99476562 -4.66796875 3.80078125 C-4.44753906 2.87652344 -4.22710937 1.95226562 -4 1 C-2 0 -2 0 0 0 Z " fill="#6390E0" transform="translate(232,114)"/>
<path d="M0 0 C0.66 0.33 1.32 0.66 2 1 C1.01 2.32 0.02 3.64 -1 5 C-1.66 4.67 -2.32 4.34 -3 4 C-2.01 2.68 -1.02 1.36 0 0 Z M-6 5 C-5.01 5 -4.02 5 -3 5 C-3 5.99 -3 6.98 -3 8 C-3.66 8 -4.32 8 -5 8 C-5 8.99 -5 9.98 -5 11 C-8 12 -8 12 -10.1875 11.0625 C-10.785625 10.711875 -11.38375 10.36125 -12 10 C-11.38125 9.731875 -10.7625 9.46375 -10.125 9.1875 C-7.7004767 8.04443152 -7.7004767 8.04443152 -6 5 Z " fill="#0B36C4" transform="translate(253,416)"/>
<path d="M0 0 C0.99 0.33 1.98 0.66 3 1 C2.07038578 2.15224028 1.1309875 3.29659176 0.1875 4.4375 C-0.59560547 5.39462891 -0.59560547 5.39462891 -1.39453125 6.37109375 C-3 8 -3 8 -6 9 C-6 8.34 -6 7.68 -6 7 C-6.99 6.34 -7.98 5.68 -9 5 C-8.43410156 4.72285156 -7.86820312 4.44570313 -7.28515625 4.16015625 C-6.55167969 3.79792969 -5.81820313 3.43570313 -5.0625 3.0625 C-3.96615234 2.52302734 -3.96615234 2.52302734 -2.84765625 1.97265625 C-1.03750973 1.13628173 -1.03750973 1.13628173 0 0 Z " fill="#AFF2F2" transform="translate(270,58)"/>
<path d="M0 0 C4.32511328 3.91319773 5.87983952 8.75700439 6.1875 14.5 C6.125625 15.325 6.06375 16.15 6 17 C5.34 17 4.68 17 4 17 C3.71125 15.783125 3.4225 14.56625 3.125 13.3125 C2.51237377 10.83136377 1.84636595 8.62445011 0.875 6.25 C0 4 0 4 0 0 Z " fill="#5AC2E2" transform="translate(371,232)"/>
<path d="M0 0 C0.33 0 0.66 0 1 0 C-0.49448529 12.20496324 -0.49448529 12.20496324 -3.625 15.9375 C-4.305625 16.4634375 -4.305625 16.4634375 -5 17 C-4.46246904 10.81839396 -2.45417612 5.673142 0 0 Z " fill="#038DE9" transform="translate(175,172)"/>
<path d="M0 0 C0.66 0.33 1.32 0.66 2 1 C1.67 1.66 1.34 2.32 1 3 C0.896875 3.825 0.79375 4.65 0.6875 5.5 C0 8 0 8 -2.0625 9.3125 C-3.0215625 9.6528125 -3.0215625 9.6528125 -4 10 C-4.25 7.25 -4.25 7.25 -4 4 C-2 1.625 -2 1.625 0 0 Z " fill="#17E8F9" transform="translate(249,72)"/>
<path d="M0 0 C0.103125 0.639375 0.20625 1.27875 0.3125 1.9375 C0.6528125 2.9584375 0.6528125 2.9584375 1 4 C1.99 4.33 2.98 4.66 4 5 C5.1875 8.5625 5.1875 8.5625 6 12 C3.03595495 9.19195732 0.55500981 6.81684226 -1 3 C-3.31 3 -5.62 3 -8 3 C-5.36657694 0.36657694 -3.69534435 0 0 0 Z " fill="#69E9F3" transform="translate(256,264)"/>
<path d="M0 0 C0.99 0.33 1.98 0.66 3 1 C1.54634731 2.17249353 0.08692581 3.33783816 -1.375 4.5 C-2.18710937 5.1496875 -2.99921875 5.799375 -3.8359375 6.46875 C-6 8 -6 8 -8 8 C-7.67 6.35 -7.34 4.7 -7 3 C-3.535 2.505 -3.535 2.505 0 2 C0 1.34 0 0.68 0 0 Z " fill="#4459B8" transform="translate(292,397)"/>
<path d="M0 0 C0 0.99 0 1.98 0 3 C-5.24385089 4.7479503 -9.47322267 5.19392201 -15 5 C-12.58923344 3.39282229 -10.71900755 2.38457485 -8.0625 1.375 C-7.39347656 1.11460937 -6.72445313 0.85421875 -6.03515625 0.5859375 C-4 0 -4 0 0 0 Z " fill="#61C0E2" transform="translate(272,224)"/>
<path d="M0 0 C1.53690745 2.41040161 2.09752136 3.50082285 1.5390625 6.359375 C1.23742187 7.14828125 0.93578125 7.9371875 0.625 8.75 C0.32851563 9.54921875 0.03203125 10.3484375 -0.2734375 11.171875 C-0.51320313 11.77515625 -0.75296875 12.3784375 -1 13 C-1.33 13 -1.66 13 -2 13 C-2.33 9.04 -2.66 5.08 -3 1 C-2.01 0.67 -1.02 0.34 0 0 Z " fill="#3497D1" transform="translate(371,296)"/>
<path d="M0 0 C0.33 0 0.66 0 1 0 C1 2.31 1 4.62 1 7 C0.01 7 -0.98 7 -2 7 C-2.33 8.98 -2.66 10.96 -3 13 C-3.66 13 -4.32 13 -5 13 C-5.33 13.66 -5.66 14.32 -6 15 C-5.32756786 11.93202834 -4.29931605 9.23158455 -3 6.375 C-2.649375 5.59898437 -2.29875 4.82296875 -1.9375 4.0234375 C-1.31172863 2.6728143 -0.66569856 1.33139711 0 0 Z " fill="#67C7DD" transform="translate(136,174)"/>
<path d="M0 0 C1.32 0 2.64 0 4 0 C4 1.32 4 2.64 4 4 C3.34 4 2.68 4 2 4 C2 4.99 2 5.98 2 7 C1.01 7 0.02 7 -1 7 C-1 7.66 -1 8.32 -1 9 C-1.66 9 -2.32 9 -3 9 C-2.01 6.03 -1.02 3.06 0 0 Z " fill="#0BBEE6" transform="translate(148,157)"/>
<path d="M0 0 C0.99 0.33 1.98 0.66 3 1 C3.33 2.65 3.66 4.3 4 6 C1.69 6.33 -0.62 6.66 -3 7 C-3.33 6.01 -3.66 5.02 -4 4 C-2.68 4 -1.36 4 0 4 C0 2.68 0 1.36 0 0 Z " fill="#0E6FC9" transform="translate(140,272)"/>
<path d="M0 0 C2 2 2 2 2 6 C1.34 6 0.68 6 0 6 C-0.66 9.3 -1.32 12.6 -2 16 C-2.66 15.67 -3.32 15.34 -4 15 C-3.32584613 9.7415998 -1.75734451 4.97361654 0 0 Z " fill="#60BDDB" transform="translate(129,189)"/>
<path d="M0 0 C0.66 0 1.32 0 2 0 C1.50769231 7.38461538 1.50769231 7.38461538 -1.0625 10.5 C-1.701875 10.995 -2.34125 11.49 -3 12 C-3.36923077 6.46153846 -3.36923077 6.46153846 -1.5 4.125 C-1.005 3.75375 -0.51 3.3825 0 3 C-0.66 2.67 -1.32 2.34 -2 2 C-1.34 1.34 -0.68 0.68 0 0 Z " fill="#3665D9" transform="translate(243,86)"/>
<path d="M0 0 C1.32 0 2.64 0 4 0 C3.67 1.32 3.34 2.64 3 4 C2.34 4 1.68 4 1 4 C0.34 5.32 -0.32 6.64 -1 8 C-2.0625 6.125 -2.0625 6.125 -3 4 C-2.67 3.34 -2.34 2.68 -2 2 C-1.34 2 -0.68 2 0 2 C0 1.34 0 0.68 0 0 Z " fill="#4075C7" transform="translate(326,366)"/>
<path d="M0 0 C0.99 0.33 1.98 0.66 3 1 C2.3844197 3.14855454 1.75726569 5.29379625 1.125 7.4375 C0.60292969 9.22994141 0.60292969 9.22994141 0.0703125 11.05859375 C-1 14 -1 14 -3 15 C-2.68917128 13.24970238 -2.37626821 11.49977306 -2.0625 9.75 C-1.88847656 8.77546875 -1.71445312 7.8009375 -1.53515625 6.796875 C-1.09620271 4.50278205 -0.59651408 2.25708029 0 0 Z " fill="#0588E4" transform="translate(331,300)"/>
<path d="M0 0 C0.66 0.66 1.32 1.32 2 2 C0.68 3.32 -0.64 4.64 -2 6 C-1.67 6.99 -1.34 7.98 -1 9 C-2.65 9.66 -4.3 10.32 -6 11 C-5.57576756 9.53775201 -5.13509755 8.08026588 -4.6875 6.625 C-4.44386719 5.81289062 -4.20023438 5.00078125 -3.94921875 4.1640625 C-3 2 -3 2 0 0 Z " fill="#0C6DF0" transform="translate(190,149)"/>
<path d="M0 0 C0.66 0 1.32 0 2 0 C1.67 0.7425 1.34 1.485 1 2.25 C-0.22782871 5.13883312 -0.22782871 5.13883312 0 9 C-2.97 8.505 -2.97 8.505 -6 8 C-4.625 5.5 -4.625 5.5 -3 3 C-2.34 3 -1.68 3 -1 3 C-0.67 2.01 -0.34 1.02 0 0 Z " fill="#0135C4" transform="translate(270,399)"/>
<path d="M0 0 C0.66 0 1.32 0 2 0 C1.7444669 5.86448454 1.34242429 9.65757571 -3 14 C-2.67 12.02 -2.34 10.04 -2 8 C-1.34 8 -0.68 8 0 8 C-0.185625 7.05125 -0.37125 6.1025 -0.5625 5.125 C-1 2 -1 2 0 0 Z " fill="#11A3D5" transform="translate(131,187)"/>
<path d="M0 0 C0.66 0.33 1.32 0.66 2 1 C-0.475 5.455 -0.475 5.455 -3 10 C-3.66 10 -4.32 10 -5 10 C-5.33 10.99 -5.66 11.98 -6 13 C-6 11.02 -6 9.04 -6 7 C-5.34 7 -4.68 7 -4 7 C-4 6.34 -4 5.68 -4 5 C-3.34 5 -2.68 5 -2 5 C-1.34 3.35 -0.68 1.7 0 0 Z " fill="#14B3DB" transform="translate(143,166)"/>
<path d="M0 0 C0.33 0 0.66 0 1 0 C1.1953125 6.0546875 1.1953125 6.0546875 1 8 C0.34 8.66 -0.32 9.32 -1 10 C-1.66 10 -2.32 10 -3 10 C-3 7.69 -3 5.38 -3 3 C-2.34 3 -1.68 3 -1 3 C-0.67 2.01 -0.34 1.02 0 0 Z " fill="#0678ED" transform="translate(219,141)"/>
<path d="M0 0 C0.66 0 1.32 0 2 0 C1.6875 1.875 1.6875 1.875 1 4 C0.01 4.66 -0.98 5.32 -2 6 C-2.495 6.86625 -2.99 7.7325 -3.5 8.625 C-4.2425 9.800625 -4.2425 9.800625 -5 11 C-5.99 11 -6.98 11 -8 11 C-7.04454634 9.53977837 -6.08553322 8.08188532 -5.125 6.625 C-4.59132812 5.81289062 -4.05765625 5.00078125 -3.5078125 4.1640625 C-2 2 -2 2 0 0 Z " fill="#125CF3" transform="translate(202,132)"/>
<path d="M0 0 C0.99 0 1.98 0 3 0 C2.43307299 3.28817667 1.5440846 4.84731303 -1 7 C-1.99 7.66 -2.98 8.32 -4 9 C-3.3543999 5.51375944 -2.07639763 2.87501211 0 0 Z " fill="#0D53E9" transform="translate(223,105)"/>
<path d="M0 0 C0.66 1.32 1.32 2.64 2 4 C1.34 4 0.68 4 0 4 C0.34444881 6.47266765 0.34444881 6.47266765 1 9 C1.66 9.33 2.32 9.66 3 10 C2.34 10 1.68 10 1 10 C1 10.66 1 11.32 1 12 C0.01 11.67 -0.98 11.34 -2 11 C-2.05399736 9.54207116 -2.09279177 8.08357288 -2.125 6.625 C-2.15980469 5.40683594 -2.15980469 5.40683594 -2.1953125 4.1640625 C-2 2 -2 2 0 0 Z " fill="#166AEF" transform="translate(277,361)"/>
<path d="M0 0 C1.65 0 3.3 0 5 0 C4.67 1.32 4.34 2.64 4 4 C1.36 4.66 -1.28 5.32 -4 6 C-4 5.34 -4 4.68 -4 4 C-2.68 3.34 -1.36 2.68 0 2 C0 1.34 0 0.68 0 0 Z " fill="#088ECE" transform="translate(252,260)"/>
<path d="M0 0 C0.66 0.33 1.32 0.66 2 1 C-0.18018186 5.48148494 -2.34829356 7.21849541 -7 9 C-7.66 8.67 -8.32 8.34 -9 8 C-6.03 5.36 -3.06 2.72 0 0 Z " fill="#76ECF0" transform="translate(191,110)"/>
<path d="M0 0 C-1.33333333 0.66666667 -2.66666667 1.33333333 -4 2 C-4.680625 2.391875 -5.36125 2.78375 -6.0625 3.1875 C-8 4 -8 4 -11 3 C-10.67 2.01 -10.34 1.02 -10 0 C-6.33694766 -0.74926071 -3.57644848 -1.2380014 0 0 Z " fill="#4DA0D2" transform="translate(236,271)"/>
<path d="M0 0 C3.26954202 0.56371414 4.82575883 1.49962266 7 4 C6.01 5.485 6.01 5.485 5 7 C3.68 6.67 2.36 6.34 1 6 C0.67 4.02 0.34 2.04 0 0 Z " fill="#0771D0" transform="translate(129,265)"/>
<path d="M0 0 C0 3.92896395 -1.00299863 7.19893228 -2 11 C-2.66 10.67 -3.32 10.34 -4 10 C-3.67 7.03 -3.34 4.06 -3 1 C-2.01 0.67 -1.02 0.34 0 0 Z " fill="#06AFE2" transform="translate(137,180)"/>
<path d="M0 0 C0.66 0.33 1.32 0.66 2 1 C2 2.98 2 4.96 2 7 C0.35 7 -1.3 7 -3 7 C-2.690625 6.401875 -2.38125 5.80375 -2.0625 5.1875 C-0.89790296 2.91043228 -0.89790296 2.91043228 0 0 Z M-7 9 C-6.34 9.33 -5.68 9.66 -5 10 C-5.99 10.66 -6.98 11.32 -8 12 C-7.67 11.01 -7.34 10.02 -7 9 Z " fill="#08C9EF" transform="translate(158,145)"/>
<path d="M0 0 C0.33 0.66 0.66 1.32 1 2 C-0.42654726 6.27964178 -3.17958945 9.03239439 -7.16796875 11.15234375 C-7.77253906 11.43207031 -8.37710938 11.71179688 -9 12 C-8.06692579 10.55962331 -7.12834923 9.12281015 -6.1875 7.6875 C-5.66542969 6.88699219 -5.14335937 6.08648437 -4.60546875 5.26171875 C-3.19610151 3.2762598 -1.77903343 1.6508148 0 0 Z " fill="#0571E1" transform="translate(211,118)"/>
<path d="M0 0 C0.99 0.33 1.98 0.66 3 1 C0.02911382 4.99926986 -3.12948725 7.92118304 -7 11 C-7 9.68 -7 8.36 -7 7 C-4.625 4.9375 -4.625 4.9375 -2 3 C-1.34 2.01 -0.68 1.02 0 0 Z " fill="#19DBFD" transform="translate(228,96)"/>
<path d="M0 0 C0.12375 0.61875 0.2475 1.2375 0.375 1.875 C0.87197356 4.19120832 0.87197356 4.19120832 3 6 C2.34 6 1.68 6 1 6 C1 6.99 1 7.98 1 9 C0.01 9.33 -0.98 9.66 -2 10 C-3.39195915 5.82412255 -1.82323219 3.86525224 0 0 Z " fill="#4777E3" transform="translate(269,380)"/>
<path d="M0 0 C0.66 0 1.32 0 2 0 C1.125 4.75 1.125 4.75 0 7 C-1.32 7 -2.64 7 -4 7 C-2.92598892 4.08482708 -2.22189824 2.22189824 0 0 Z " fill="#2456B5" transform="translate(322,370)"/>
<path d="M0 0 C0.66 0 1.32 0 2 0 C2 0.66 2 1.32 2 2 C2.66 2 3.32 2 4 2 C5.80230168 5.82989106 6.19622241 8.78121808 6 13 C4.43926745 10.65890118 3.13626133 8.43666597 1.875 5.9375 C1.34519531 4.89916016 1.34519531 4.89916016 0.8046875 3.83984375 C0 2 0 2 0 0 Z " fill="#6BE0ED" transform="translate(267,284)"/>
<path d="M0 0 C0 0.66 0 1.32 0 2 C-0.99 2 -1.98 2 -3 2 C-3 2.66 -3 3.32 -3 4 C-3.639375 4.12375 -4.27875 4.2475 -4.9375 4.375 C-5.9584375 4.684375 -5.9584375 4.684375 -7 5 C-7.33 5.66 -7.66 6.32 -8 7 C-8.99 6.67 -9.98 6.34 -11 6 C-10.34 6 -9.68 6 -9 6 C-8.938125 5.38125 -8.87625 4.7625 -8.8125 4.125 C-8 2 -8 2 -5.625 0.75 C-3 0 -3 0 0 0 Z " fill="#39B4DB" transform="translate(281,221)"/>
<path d="M0 0 C0.66 0.33 1.32 0.66 2 1 C2 1.99 2 2.98 2 4 C1.01 4 0.02 4 -1 4 C-1 4.66 -1 5.32 -1 6 C-2.65 6.33 -4.3 6.66 -6 7 C-4.60667426 3.63279613 -3.0210714 2.0140476 0 0 Z " fill="#97A1C2" transform="translate(233,433)"/>
<path d="M0 0 C0.66 0.33 1.32 0.66 2 1 C1.43137108 4.29804771 0.49977286 5.80019989 -2 8 C-2.66 8.66 -3.32 9.32 -4 10 C-4.99 9.67 -5.98 9.34 -7 9 C-5.71937515 7.2925002 -4.38232443 5.62626404 -3 4 C-2.34 4 -1.68 4 -1 4 C-0.67 2.68 -0.34 1.36 0 0 Z " fill="#718FD9" transform="translate(248,416)"/>
<path d="M0 0 C1.65 0 3.3 0 5 0 C6 3 6 3 6 6 C5.67 6.66 5.34 7.32 5 8 C4.34 8 3.68 8 3 8 C2.67 6.02 2.34 4.04 2 2 C1.34 2 0.68 2 0 2 C0 1.34 0 0.68 0 0 Z " fill="#0FE1F5" transform="translate(264,276)"/>
<path d="M0 0 C0.33 0.66 0.66 1.32 1 2 C3.02463255 2.65213292 3.02463255 2.65213292 5 3 C5 3.66 5 4.32 5 5 C5.66 5.33 6.32 5.66 7 6 C6.67 6.66 6.34 7.32 6 8 C2.17053157 6.54744301 0.87949705 4.57104439 -1 1 C-0.67 0.67 -0.34 0.34 0 0 Z " fill="#5096CF" transform="translate(131,270)"/>
<path d="M0 0 C1.98 0.99 1.98 0.99 4 2 C3.67 4.64 3.34 7.28 3 10 C0.70366176 6.55549263 0.45983515 4.06187717 0 0 Z " fill="#077DD0" transform="translate(123,247)"/>
<path d="M0 0 C0.33 0 0.66 0 1 0 C1.66 5.28 2.32 10.56 3 16 C2.34 16 1.68 16 1 16 C-0.14077657 12.57767028 -0.09815117 9.91326783 -0.0625 6.3125 C-0.05347656 5.13300781 -0.04445312 3.95351562 -0.03515625 2.73828125 C-0.02355469 1.83464844 -0.01195312 0.93101562 0 0 Z " fill="#64BFE8" transform="translate(221,173)"/>
<path d="M0 0 C0 2.95274099 -0.43891831 4.49058403 -1.5 7.1875 C-1.7784375 7.90292969 -2.056875 8.61835938 -2.34375 9.35546875 C-2.5603125 9.89816406 -2.776875 10.44085938 -3 11 C-3.66 10.67 -4.32 10.34 -5 10 C-4.50769231 3.47692308 -4.50769231 3.47692308 -1.9375 1.0625 C-0.9784375 0.5365625 -0.9784375 0.5365625 0 0 Z " fill="#09ADF0" transform="translate(174,173)"/>
<path d="M0 0 C1.39195915 4.17587745 -0.17676781 6.13474776 -2 10 C-2.99 8.68 -3.98 7.36 -5 6 C-3.35 4.02 -1.7 2.04 0 0 Z " fill="#0F57EC" transform="translate(209,123)"/>
<path d="M0 0 C1.32 0 2.64 0 4 0 C2.8141763 3.37503669 1.72426311 5.64722731 -1 8 C-1.625 5.125 -1.625 5.125 -2 2 C-1.34 1.34 -0.68 0.68 0 0 Z " fill="#428BCE" transform="translate(354,332)"/>
<path d="M0 0 C1.32 0 2.64 0 4 0 C2.55049545 3.7910119 0.84827434 7.3874638 -1 11 C-2.31625194 8.36749612 -1.74813658 7.19820944 -1.0625 4.375 C-0.86785156 3.55773437 -0.67320312 2.74046875 -0.47265625 1.8984375 C-0.23869141 0.95871094 -0.23869141 0.95871094 0 0 Z " fill="#4F96CC" transform="translate(361,319)"/>
<path d="M0 0 C0.66 0.66 1.32 1.32 2 2 C1.01 2.66 0.02 3.32 -1 4 C-0.67 4.66 -0.34 5.32 0 6 C-2.31 6.66 -4.62 7.32 -7 8 C-5.50902342 4.2047869 -3.24299151 2.38957269 0 0 Z " fill="#1252EE" transform="translate(218,114)"/>
<path d="M0 0 C1.32 0.33 2.64 0.66 4 1 C2.90081184 1.98475214 1.7954398 2.96260473 0.6875 3.9375 C0.07261719 4.48277344 -0.54226562 5.02804688 -1.17578125 5.58984375 C-3 7 -3 7 -6 8 C-6 7.34 -6 6.68 -6 6 C-4.34997172 4.64613064 -2.6825613 3.31321858 -1 2 C-0.67 1.34 -0.34 0.68 0 0 Z " fill="#15F6F6" transform="translate(223,88)"/>
<path d="M0 0 C-1.65 1.65 -3.3 3.3 -5 5 C-5.66 3.35 -6.32 1.7 -7 0 C-4.3333581 -1.33332095 -2.83319697 -0.67102033 0 0 Z " fill="#4271CA" transform="translate(320,377)"/>
<path d="M0 0 C0.66 0 1.32 0 2 0 C1.39009109 3.55780196 0.4216319 6.6828589 -1 10 C-1.33 10 -1.66 10 -2 10 C-2 7.36 -2 4.72 -2 2 C-1.34 2 -0.68 2 0 2 C0 1.34 0 0.68 0 0 Z " fill="#4F9AD0" transform="translate(367,309)"/>
<path d="M0 0 C-2.46301423 2.46301423 -4.27360036 2.76766521 -7.625 3.625 C-9.12933594 4.01558594 -9.12933594 4.01558594 -10.6640625 4.4140625 C-11.43492187 4.60742188 -12.20578125 4.80078125 -13 5 C-13 4.34 -13 3.68 -13 3 C-8.44573816 0.33409063 -5.26053037 -0.31563182 0 0 Z " fill="#009ED2" transform="translate(270,258)"/>
<path d="M0 0 C-3.2102122 3.2102122 -6.37460314 2.98974759 -10.8125 3.0625 C-11.864375 3.041875 -12.91625 3.02125 -14 3 C-14 2.67 -14 2.34 -14 2 C-11.66836622 1.32741333 -9.3347961 0.66152556 -7 0 C-6.2575 -0.226875 -5.515 -0.45375 -4.75 -0.6875 C-3 -1 -3 -1 0 0 Z " fill="#57C0DC" transform="translate(295,218)"/>
<path d="M0 0 C4.75207471 -0.43200679 7.78210698 1.01510917 12 3 C11.34 3.66 10.68 4.32 10 5 C7.375 4.625 7.375 4.625 5 4 C4.67 3.01 4.34 2.02 4 1 C1.98491642 0.26676204 1.98491642 0.26676204 0 0 Z " fill="#59CCE5" transform="translate(345,213)"/>
<path d="M0 0 C0.99 0.33 1.98 0.66 3 1 C0.36 2.98 -2.28 4.96 -5 7 C-5 4 -5 4 -4 2 C-2.68 2 -1.36 2 0 2 C0 1.34 0 0.68 0 0 Z " fill="#13E8F6" transform="translate(202,104)"/>
<path d="M0 0 C0.33 0.66 0.66 1.32 1 2 C-2.625 5 -2.625 5 -6 5 C-6.33 5.99 -6.66 6.98 -7 8 C-8.32 7.67 -9.64 7.34 -11 7 C-7.37 4.69 -3.74 2.38 0 0 Z " fill="#8CF5F6" transform="translate(250,70)"/>
<path d="M0 0 C0 0.66 0 1.32 0 2 C-2.5 3.625 -2.5 3.625 -5 5 C-5 4.34 -5 3.68 -5 3 C-6.32 2.67 -7.64 2.34 -9 2 C-5.62902617 0.50178941 -3.79557881 0 0 0 Z " fill="#38ECF2" transform="translate(260,68)"/>
<path d="M0 0 C0.66 0.33 1.32 0.66 2 1 C0.88321917 2.6721852 -0.24366352 4.33762803 -1.375 6 C-2.00148438 6.928125 -2.62796875 7.85625 -3.2734375 8.8125 C-3.84320313 9.534375 -4.41296875 10.25625 -5 11 C-5.66 11 -6.32 11 -7 11 C-5.22054913 6.95579349 -2.60470327 3.53921513 0 0 Z " fill="#0B54DF" transform="translate(298,365)"/>
<path d="M0 0 C1.625 2 1.625 2 3 4 C0.6875 4.6875 0.6875 4.6875 -2 5 C-3.8125 3.5625 -3.8125 3.5625 -5 2 C-2 0 -2 0 0 0 Z " fill="#0CBAE2" transform="translate(357,217)"/>
<path d="M0 0 C0 0.99 0 1.98 0 3 C-0.66 3 -1.32 3 -2 3 C-2 4.65 -2 6.3 -2 8 C-3.65 8.33 -5.3 8.66 -7 9 C-6.67 8.01 -6.34 7.02 -6 6 C-5.34 6 -4.68 6 -4 6 C-3.896875 5.38125 -3.79375 4.7625 -3.6875 4.125 C-3 2 -3 2 0 0 Z " fill="#7AE4ED" transform="translate(168,131)"/>
<path d="M0 0 C-0.8125 1.9375 -0.8125 1.9375 -2 4 C-2.99 4.33 -3.98 4.66 -5 5 C-5.33 3.35 -5.66 1.7 -6 0 C-2.25 -1.125 -2.25 -1.125 0 0 Z " fill="#0FF6F8" transform="translate(262,264)"/>
<path d="M0 0 C2.475 0.99 2.475 0.99 5 2 C5 3.65 5 5.3 5 7 C3.0625 6.3125 3.0625 6.3125 1 5 C0.25 2.375 0.25 2.375 0 0 Z " fill="#03BCE1" transform="translate(362,225)"/>
<path d="M0 0 C1.32 0.66 2.64 1.32 4 2 C3.01 2.495 3.01 2.495 2 3 C2 3.66 2 4.32 2 5 C0.35 5.33 -1.3 5.66 -3 6 C-1.125 1.125 -1.125 1.125 0 0 Z " fill="#13CDE7" transform="translate(163,138)"/>
<path d="M0 0 C0.66 0 1.32 0 2 0 C1.67 1.32 1.34 2.64 1 4 C0.01 4 -0.98 4 -2 4 C-2 4.66 -2 5.32 -2 6 C-3.32 5.67 -4.64 5.34 -6 5 C-5.34 5 -4.68 5 -4 5 C-3.67 4.01 -3.34 3.02 -3 2 C-2.01 2 -1.02 2 0 2 C0 1.34 0 0.68 0 0 Z " fill="#65ECEE" transform="translate(204,100)"/>
<path d="M0 0 C0.99 0.66 1.98 1.32 3 2 C1.68 3.32 0.36 4.64 -1 6 C-1.99 5.67 -2.98 5.34 -4 5 C-2.25 1.125 -2.25 1.125 0 0 Z " fill="#12EDFD" transform="translate(233,90)"/>
<path d="M0 0 C0 3 0 3 -1.25 4.75 C-3 6 -3 6 -5.1875 5.6875 C-5.785625 5.460625 -6.38375 5.23375 -7 5 C-2.25 1.125 -2.25 1.125 0 0 Z " fill="#6CF2F0" transform="translate(222,88)"/>
<path d="M0 0 C1.32 0 2.64 0 4 0 C3.6875 1.9375 3.6875 1.9375 3 4 C2.01 4.33 1.02 4.66 0 5 C-0.66 4.34 -1.32 3.68 -2 3 C-1.34 2.01 -0.68 1.02 0 0 Z " fill="#3C64B8" transform="translate(311,380)"/>
<path d="M0 0 C-0.66 1.65 -1.32 3.3 -2 5 C-2.99 5 -3.98 5 -5 5 C-5.33 4.01 -5.66 3.02 -6 2 C-2.25 0 -2.25 0 0 0 Z " fill="#3A77C3" transform="translate(343,352)"/>
<path d="M0 0 C0 2.31 0 4.62 0 7 C-0.99 7.33 -1.98 7.66 -3 8 C-3 5.69 -3 3.38 -3 1 C-1 0 -1 0 0 0 Z " fill="#0D7ACA" transform="translate(365,312)"/>
<path d="M0 0 C0.33 0.99 0.66 1.98 1 3 C1.66 3.66 2.32 4.32 3 5 C0.69 5 -1.62 5 -4 5 C-4 4.01 -4 3.02 -4 2 C-2.68 2 -1.36 2 0 2 C0 1.34 0 0.68 0 0 Z " fill="#3B8DD6" transform="translate(185,281)"/>
<path d="M0 0 C1.670625 0.061875 1.670625 0.061875 3.375 0.125 C3.375 0.785 3.375 1.445 3.375 2.125 C0.405 2.785 -2.565 3.445 -5.625 4.125 C-5.625 0.12403124 -3.58125362 0.1234915 0 0 Z " fill="#00A3D7" transform="translate(288.625,250.875)"/>
<path d="M0 0 C1.485 0.99 1.485 0.99 3 2 C3 2.66 3 3.32 3 4 C3.99 4.33 4.98 4.66 6 5 C6 5.66 6 6.32 6 7 C6.66 7.33 7.32 7.66 8 8 C4.74333728 7.43850643 3.04376677 6.62770014 1 4 C0.3125 1.8125 0.3125 1.8125 0 0 Z " fill="#1BF0F3" transform="translate(239,225)"/>
<path d="M0 0 C2.64 0 5.28 0 8 0 C6.3125 1.5625 6.3125 1.5625 4 3 C1.25 2.6875 1.25 2.6875 -1 2 C-0.67 1.34 -0.34 0.68 0 0 Z " fill="#1D7FC1" transform="translate(219,273)"/>
<path d="M0 0 C2.64 1.32 5.28 2.64 8 4 C3.23374833 5.19156292 2.12120649 4.3415946 -2 2 C-1.34 1.34 -0.68 0.68 0 0 Z " fill="#0DCDF9" transform="translate(179,241)"/>
<path d="M0 0 C1 3 1 3 -0.4375 6.1875 C-1.2109375 7.5796875 -1.2109375 7.5796875 -2 9 C-2.33 9 -2.66 9 -3 9 C-3 6.69 -3 4.38 -3 2 C-2.01 2 -1.02 2 0 2 C0 1.34 0 0.68 0 0 Z " fill="#5075DA" transform="translate(235,105)"/>
<path d="M0 0 C2.97 0.495 2.97 0.495 6 1 C4.1875 2.5625 4.1875 2.5625 2 4 C1.01 3.67 0.02 3.34 -1 3 C-0.67 2.01 -0.34 1.02 0 0 Z " fill="#3550B8" transform="translate(262,415)"/>
<path d="M0 0 C2.31 0 4.62 0 7 0 C5.68 1.32 4.36 2.64 3 4 C1.68 3.34 0.36 2.68 -1 2 C-0.67 1.34 -0.34 0.68 0 0 Z " fill="#4460C0" transform="translate(267,412)"/>
<path d="M0 0 C0.33 0 0.66 0 1 0 C1.08096803 1.45742463 1.13917774 2.91612807 1.1875 4.375 C1.22230469 5.18710937 1.25710938 5.99921875 1.29296875 6.8359375 C1.19628906 7.55007813 1.09960938 8.26421875 1 9 C0.01 9.66 -0.98 10.32 -2 11 C-1.34 7.37 -0.68 3.74 0 0 Z " fill="#689FE4" transform="translate(277,352)"/>
<path d="M0 0 C2.475 0.99 2.475 0.99 5 2 C4.67 2.99 4.34 3.98 4 5 C3.34 4.67 2.68 4.34 2 4 C1.34 4.99 0.68 5.98 0 7 C0 4.69 0 2.38 0 0 Z " fill="#0A69C7" transform="translate(348,336)"/>
<path d="M0 0 C2 1.8125 2 1.8125 4 4 C4 4.99 4 5.98 4 7 C3.01 7 2.02 7 1 7 C0.67 4.69 0.34 2.38 0 0 Z " fill="#61DAEA" transform="translate(228,204)"/>
<path d="M0 0 C-0.33 1.65 -0.66 3.3 -1 5 C-1.99 5.33 -2.98 5.66 -4 6 C-4 4.35 -4 2.7 -4 1 C-2 0 -2 0 0 0 Z " fill="#3D6FDF" transform="translate(232,114)"/>
<path d="M0 0 C-0.33 1.65 -0.66 3.3 -1 5 C-1.99 5 -2.98 5 -4 5 C-4 3.68 -4 2.36 -4 1 C-2 0 -2 0 0 0 Z " fill="#0BE6FD" transform="translate(221,104)"/>
</svg>
